<mxfile host="65bd71144e">
    <diagram id="Y7qbkNckk-Wp018k-7rb" name="ページ1">
        <mxGraphModel dx="1778" dy="817" grid="1" gridSize="10" guides="1" tooltips="1" connect="1" arrows="1" fold="1" page="1" pageScale="1" pageWidth="1169" pageHeight="827" background="#FFFFFF" math="0" shadow="0">
            <root>
                <mxCell id="0"/>
                <mxCell id="1" parent="0"/>
                <mxCell id="27" value="" style="rounded=0;whiteSpace=wrap;html=1;fillColor=none;fontColor=#FFFFFF;" parent="1" vertex="1">
                    <mxGeometry x="440" y="30" width="300" height="280" as="geometry"/>
                </mxCell>
                <mxCell id="2" value="&lt;font&gt;Lambda&lt;/font&gt;" style="sketch=0;points=[[0,0,0],[0.25,0,0],[0.5,0,0],[0.75,0,0],[1,0,0],[0,1,0],[0.25,1,0],[0.5,1,0],[0.75,1,0],[1,1,0],[0,0.25,0],[0,0.5,0],[0,0.75,0],[1,0.25,0],[1,0.5,0],[1,0.75,0]];outlineConnect=0;fontColor=#000000;gradientColor=#F78E04;gradientDirection=north;fillColor=#D05C17;strokeColor=#ffffff;dashed=0;verticalLabelPosition=bottom;verticalAlign=top;align=center;html=1;fontSize=12;fontStyle=0;aspect=fixed;shape=mxgraph.aws4.resourceIcon;resIcon=mxgraph.aws4.lambda;" parent="1" vertex="1">
                    <mxGeometry x="130" y="130" width="78" height="78" as="geometry"/>
                </mxCell>
                <mxCell id="3" value="&lt;font&gt;StepFunction&lt;/font&gt;" style="sketch=0;points=[[0,0,0],[0.25,0,0],[0.5,0,0],[0.75,0,0],[1,0,0],[0,1,0],[0.25,1,0],[0.5,1,0],[0.75,1,0],[1,1,0],[0,0.25,0],[0,0.5,0],[0,0.75,0],[1,0.25,0],[1,0.5,0],[1,0.75,0]];outlineConnect=0;fontColor=#000000;gradientColor=#FF4F8B;gradientDirection=north;fillColor=#BC1356;strokeColor=#ffffff;dashed=0;verticalLabelPosition=bottom;verticalAlign=top;align=center;html=1;fontSize=12;fontStyle=0;aspect=fixed;shape=mxgraph.aws4.resourceIcon;resIcon=mxgraph.aws4.step_functions;" parent="1" vertex="1">
                    <mxGeometry x="330" y="130" width="78" height="78" as="geometry"/>
                </mxCell>
                <mxCell id="4" value="&lt;font&gt;S3&lt;/font&gt;" style="sketch=0;points=[[0,0,0],[0.25,0,0],[0.5,0,0],[0.75,0,0],[1,0,0],[0,1,0],[0.25,1,0],[0.5,1,0],[0.75,1,0],[1,1,0],[0,0.25,0],[0,0.5,0],[0,0.75,0],[1,0.25,0],[1,0.5,0],[1,0.75,0]];outlineConnect=0;fontColor=#000000;gradientColor=#60A337;gradientDirection=north;fillColor=#277116;strokeColor=#ffffff;dashed=0;verticalLabelPosition=bottom;verticalAlign=top;align=center;html=1;fontSize=12;fontStyle=0;aspect=fixed;shape=mxgraph.aws4.resourceIcon;resIcon=mxgraph.aws4.s3;" parent="1" vertex="1">
                    <mxGeometry x="130" y="310" width="78" height="78" as="geometry"/>
                </mxCell>
                <mxCell id="5" value="" style="endArrow=classic;html=1;exitX=0.5;exitY=0;exitDx=0;exitDy=0;exitPerimeter=0;strokeWidth=3;strokeColor=#000000;fontColor=#000000;" parent="1" source="4" edge="1">
                    <mxGeometry width="50" height="50" relative="1" as="geometry">
                        <mxPoint x="520" y="400" as="sourcePoint"/>
                        <mxPoint x="169" y="230" as="targetPoint"/>
                    </mxGeometry>
                </mxCell>
                <mxCell id="6" value="PUTイベント通知" style="text;html=1;strokeColor=none;fillColor=none;align=center;verticalAlign=middle;whiteSpace=wrap;rounded=0;fontColor=#000000;" parent="1" vertex="1">
                    <mxGeometry x="60" y="250" width="100" height="30" as="geometry"/>
                </mxCell>
                <mxCell id="7" value="" style="verticalLabelPosition=bottom;html=1;verticalAlign=top;align=center;strokeColor=none;fillColor=#00BEF2;shape=mxgraph.azure.user;fontColor=#000000;" parent="1" vertex="1">
                    <mxGeometry x="145.25" y="660" width="47.5" height="50" as="geometry"/>
                </mxCell>
                <mxCell id="8" value="" style="endArrow=classic;html=1;exitX=0.5;exitY=0;exitDx=0;exitDy=0;exitPerimeter=0;startArrow=none;strokeWidth=3;strokeColor=#000000;fontColor=#000000;" parent="1" source="9" edge="1">
                    <mxGeometry width="50" height="50" relative="1" as="geometry">
                        <mxPoint x="170" y="480" as="sourcePoint"/>
                        <mxPoint x="169" y="410" as="targetPoint"/>
                    </mxGeometry>
                </mxCell>
                <mxCell id="9" value="" style="sketch=0;pointerEvents=1;shadow=0;dashed=0;html=1;strokeColor=none;labelPosition=center;verticalLabelPosition=bottom;verticalAlign=top;outlineConnect=0;align=center;shape=mxgraph.office.concepts.home_page;fillColor=#2072B8;fontColor=#000000;" parent="1" vertex="1">
                    <mxGeometry x="130" y="480" width="77.5" height="70" as="geometry"/>
                </mxCell>
                <mxCell id="11" value="" style="endArrow=classic;html=1;exitX=0.5;exitY=0;exitDx=0;exitDy=0;exitPerimeter=0;startArrow=none;strokeWidth=3;strokeColor=#000000;fontColor=#000000;" parent="1" source="7" target="9" edge="1">
                    <mxGeometry width="50" height="50" relative="1" as="geometry">
                        <mxPoint x="178.99999999999977" y="520.0000000000002" as="sourcePoint"/>
                        <mxPoint x="178.99999999999977" y="398" as="targetPoint"/>
                    </mxGeometry>
                </mxCell>
                <mxCell id="12" value="" style="endArrow=classic;html=1;exitX=1;exitY=0.5;exitDx=0;exitDy=0;exitPerimeter=0;strokeWidth=3;entryX=0;entryY=0.5;entryDx=0;entryDy=0;entryPerimeter=0;strokeColor=#000000;fontColor=#000000;" parent="1" source="2" target="3" edge="1">
                    <mxGeometry width="50" height="50" relative="1" as="geometry">
                        <mxPoint x="239.99999999999977" y="169" as="sourcePoint"/>
                        <mxPoint x="330" y="169" as="targetPoint"/>
                    </mxGeometry>
                </mxCell>
                <mxCell id="13" value="ファイルアップロード" style="text;html=1;strokeColor=none;fillColor=none;align=center;verticalAlign=middle;whiteSpace=wrap;rounded=0;fontColor=#000000;" parent="1" vertex="1">
                    <mxGeometry x="30" y="430" width="130" height="30" as="geometry"/>
                </mxCell>
                <mxCell id="14" value="Judge Program Group A" style="swimlane;whiteSpace=wrap;html=1;strokeColor=#000000;fontColor=#FFFFFF;" parent="1" vertex="1">
                    <mxGeometry x="512" y="40" width="200" height="80" as="geometry"/>
                </mxCell>
                <mxCell id="15" value="Judge Program Group B" style="swimlane;whiteSpace=wrap;html=1;strokeColor=#000000;fontColor=#FFFFFF;" parent="1" vertex="1">
                    <mxGeometry x="512" y="130" width="200" height="80" as="geometry"/>
                </mxCell>
                <mxCell id="16" value="Judge Program Group C" style="swimlane;whiteSpace=wrap;html=1;strokeColor=#000000;fontColor=#FFFFFF;" parent="1" vertex="1">
                    <mxGeometry x="512" y="220" width="200" height="80" as="geometry"/>
                </mxCell>
                <mxCell id="18" value="" style="endArrow=classic;html=1;exitX=1;exitY=0.5;exitDx=0;exitDy=0;exitPerimeter=0;strokeWidth=3;entryX=0;entryY=0.5;entryDx=0;entryDy=0;strokeColor=#000000;fontColor=#000000;" parent="1" source="3" target="14" edge="1">
                    <mxGeometry width="50" height="50" relative="1" as="geometry">
                        <mxPoint x="217.99999999999977" y="179" as="sourcePoint"/>
                        <mxPoint x="340" y="179" as="targetPoint"/>
                        <Array as="points">
                            <mxPoint x="460" y="169"/>
                            <mxPoint x="460" y="80"/>
                        </Array>
                    </mxGeometry>
                </mxCell>
                <mxCell id="19" value="" style="endArrow=classic;html=1;exitX=1;exitY=0.5;exitDx=0;exitDy=0;exitPerimeter=0;strokeWidth=3;entryX=0;entryY=0.5;entryDx=0;entryDy=0;strokeColor=#000000;fontColor=#000000;" parent="1" source="3" target="15" edge="1">
                    <mxGeometry width="50" height="50" relative="1" as="geometry">
                        <mxPoint x="417.9999999999998" y="179" as="sourcePoint"/>
                        <mxPoint x="522" y="90" as="targetPoint"/>
                        <Array as="points"/>
                    </mxGeometry>
                </mxCell>
                <mxCell id="20" value="" style="endArrow=classic;html=1;exitX=1;exitY=0.5;exitDx=0;exitDy=0;exitPerimeter=0;strokeWidth=3;entryX=0;entryY=0.5;entryDx=0;entryDy=0;strokeColor=#000000;fontColor=#000000;" parent="1" source="3" target="16" edge="1">
                    <mxGeometry width="50" height="50" relative="1" as="geometry">
                        <mxPoint x="417.9999999999998" y="179" as="sourcePoint"/>
                        <mxPoint x="522" y="180" as="targetPoint"/>
                        <Array as="points">
                            <mxPoint x="460" y="169"/>
                            <mxPoint x="460" y="260"/>
                        </Array>
                    </mxGeometry>
                </mxCell>
                <mxCell id="28" style="edgeStyle=none;html=1;entryX=1;entryY=0.5;entryDx=0;entryDy=0;strokeWidth=3;strokeColor=#000000;fontColor=#000000;" parent="1" source="21" target="27" edge="1">
                    <mxGeometry relative="1" as="geometry"/>
                </mxCell>
                <mxCell id="21" value="Jekins" style="rounded=0;whiteSpace=wrap;html=1;fontColor=#FFFFFF;" parent="1" vertex="1">
                    <mxGeometry x="810" y="37" width="60" height="265" as="geometry"/>
                </mxCell>
                <mxCell id="29" style="edgeStyle=none;html=1;entryX=1;entryY=0.5;entryDx=0;entryDy=0;strokeWidth=3;strokeColor=#000000;fontColor=#000000;" parent="1" source="26" target="21" edge="1">
                    <mxGeometry relative="1" as="geometry"/>
                </mxCell>
                <mxCell id="26" value="&lt;font&gt;CodeCommit&lt;/font&gt;" style="sketch=0;points=[[0,0,0],[0.25,0,0],[0.5,0,0],[0.75,0,0],[1,0,0],[0,1,0],[0.25,1,0],[0.5,1,0],[0.75,1,0],[1,1,0],[0,0.25,0],[0,0.5,0],[0,0.75,0],[1,0.25,0],[1,0.5,0],[1,0.75,0]];outlineConnect=0;fontColor=#000000;gradientColor=#4D72F3;gradientDirection=north;fillColor=#3334B9;strokeColor=#ffffff;dashed=0;verticalLabelPosition=bottom;verticalAlign=top;align=center;html=1;fontSize=12;fontStyle=0;aspect=fixed;shape=mxgraph.aws4.resourceIcon;resIcon=mxgraph.aws4.codecommit;" parent="1" vertex="1">
                    <mxGeometry x="990" y="130" width="78" height="78" as="geometry"/>
                </mxCell>
                <mxCell id="44" style="edgeStyle=none;html=1;entryX=0.5;entryY=0;entryDx=0;entryDy=0;entryPerimeter=0;strokeWidth=3;strokeColor=#000000;fontColor=#000000;" parent="1" source="27" target="43" edge="1">
                    <mxGeometry relative="1" as="geometry"/>
                </mxCell>
                <mxCell id="37" style="edgeStyle=none;html=1;strokeWidth=3;strokeColor=#000000;fontColor=#000000;" parent="1" source="36" edge="1">
                    <mxGeometry relative="1" as="geometry">
                        <mxPoint x="1030" y="230" as="targetPoint"/>
                    </mxGeometry>
                </mxCell>
                <mxCell id="36" value="BedRock" style="shape=image;imageAspect=0;aspect=fixed;verticalLabelPosition=bottom;verticalAlign=top;fillColor=none;image=data:image/png,iVBORw0KGgoAAAANSUhEUgAAB4AAAAQ4CAYAAADo08FDAAAACXBIWXMAAA7EAAAOxAGVKw4bAAAAPHRFWHRDb21tZW50AHhyOmQ6REFGanRidjhORzg6MzYsajo2NDAyMjcxNTk0NDkwODkzNjQ4LHQ6MjMxMDAyMDijLGCoAAAE2mlUWHRYTUw6Y29tLmFkb2JlLnhtcAAAAAAAPHg6eG1wbWV0YSB4bWxuczp4PSdhZG9iZTpuczptZXRhLyc+CiAgICAgICAgPHJkZjpSREYgeG1sbnM6cmRmPSdodHRwOi8vd3d3LnczLm9yZy8xOTk5LzAyLzIyLXJkZi1zeW50YXgtbnMjJz4KCiAgICAgICAgPHJkZjpEZXNjcmlwdGlvbiByZGY6YWJvdXQ9JycKICAgICAgICB4bWxuczpkYz0naHR0cDovL3B1cmwub3JnL2RjL2VsZW1lbnRzLzEuMS8nPgogICAgICAgIDxkYzp0aXRsZT4KICAgICAgICA8cmRmOkFsdD4KICAgICAgICA8cmRmOmxpIHhtbDpsYW5nPSd4LWRlZmF1bHQnPiMxNDFjMmMgLSAxPC9yZGY6bGk+CiAgICAgICAgPC9yZGY6QWx0PgogICAgICAgIDwvZGM6dGl0bGU+CiAgICAgICAgPC9yZGY6RGVzY3JpcHRpb24+CgogICAgICAgIDxyZGY6RGVzY3JpcHRpb24gcmRmOmFib3V0PScnCiAgICAgICAgeG1sbnM6QXR0cmliPSdodHRwOi8vbnMuYXR0cmlidXRpb24uY29tL2Fkcy8xLjAvJz4KICAgICAgICA8QXR0cmliOkFkcz4KICAgICAgICA8cmRmOlNlcT4KICAgICAgICA8cmRmOmxpIHJkZjpwYXJzZVR5cGU9J1Jlc291cmNlJz4KICAgICAgICA8QXR0cmliOkNyZWF0ZWQ+MjAyMy0xMC0wMjwvQXR0cmliOkNyZWF0ZWQ+CiAgICAgICAgPEF0dHJpYjpFeHRJZD42ZDY4MGM2NS1hNDc2LTQ0ZjQtOWEzMy0wODBjYTc4YzAxMWQ8L0F0dHJpYjpFeHRJZD4KICAgICAgICA8QXR0cmliOkZiSWQ+NTI1MjY1OTE0MTc5NTgwPC9BdHRyaWI6RmJJZD4KICAgICAgICA8QXR0cmliOlRvdWNoVHlwZT4yPC9BdHRyaWI6VG91Y2hUeXBlPgogICAgICAgIDwvcmRmOmxpPgogICAgICAgIDwvcmRmOlNlcT4KICAgICAgICA8L0F0dHJpYjpBZHM+CiAgICAgICAgPC9yZGY6RGVzY3JpcHRpb24+CgogICAgICAgIDxyZGY6RGVzY3JpcHRpb24gcmRmOmFib3V0PScnCiAgICAgICAgeG1sbnM6cGRmPSdodHRwOi8vbnMuYWRvYmUuY29tL3BkZi8xLjMvJz4KICAgICAgICA8cGRmOkF1dGhvcj5Lb2tpIE11cmFrYW1pPC9wZGY6QXV0aG9yPgogICAgICAgIDwvcmRmOkRlc2NyaXB0aW9uPgoKICAgICAgICA8cmRmOkRlc2NyaXB0aW9uIHJkZjphYm91dD0nJwogICAgICAgIHhtbG5zOnhtcD0naHR0cDovL25zLmFkb2JlLmNvbS94YXAvMS4wLyc+CiAgICAgICAgPHhtcDpDcmVhdG9yVG9vbD5DYW52YTwveG1wOkNyZWF0b3JUb29sPgogICAgICAgIDwvcmRmOkRlc2NyaXB0aW9uPgogICAgICAgIDwvcmRmOlJERj4KICAgICAgICA8L3g6eG1wbWV0YT5QOZGNAAETTklEQVR4nOzZQQ2AMADAwDENeyIB//aYiSWE5k5B/73W/bwDAAAAAAAAgN+bXwcAAAAAAAAAcIYBDAAAAAAAABBhAAMAAAAAAABEGMAAAAAAAAAAEQYwAAAAAAAAQIQBDAAAAAAAABBhAAMAAAAAAABEGMAAAAAAAAAAEQYwAAAAAAAAQIQBDAAAAAAAABBhAAMAAAAAAABEGMAAAAAAAAAAEQYwAAAAAAAAQIQBDAAAAAAAABBhAAMAAAAAAABEGMAAAAAAAAAAEQYwAAAAAAAAQIQBDAAAAAAAABBhAAMAAAAAAABEGMAAAAAAAAAAEQYwAAAAAAAAQIQBDAAAAAAAABBhAAMAAAAAAABEGMAAAAAAAAAAEQYwAAAAAAAAQIQBDAAAAAAAABBhAAMAAAAAAABEGMAAAAAAAAAAEQYwAAAAAAAAQIQBDAAAAAAAABBhAAMAAAAAAABEGMAAAAAAAAAAEQYwAAAAAAAAQMQGAAD//+zZgQwAAADAIH/re3ylkQAGAAAAAAAAmBDAAAAAAAAAABMCGAAAAAAAAGBCAAMAAAAAAABMCGAAAAAAAACACQEMAAAAAAAAMCGAAQAAAAAAACYEMAAAAAAAAMCEAAYAAAAAAACYEMAAAAAAAAAAEwIYAAAAAAAAYEIAAwAAAAAAAEwIYAAAAAAAAIAJAQwAAAAAAAAwIYABAAAAAAAAJgQwAAAAAAAAwIQABgAAAAAAAJgQwAAAAAAAAAATAhgAAAAAAABgQgADAAAAAAAATAhgAAAAAAAAgAkBDAAAAAAAADAhgAEAAAAAAAAmBDAAAAAAAADAhAAGAAAAAAAAmBDAAAAAAAAAABMCGAAAAAAAAGBCAAMAAAAAAABMCGAAAAAAAACACQEMAAAAAAAAMCGAAQAAAAAAACYEMAAAAAAAAMCEAAYAAAAAAACYEMAAAAAAAAAAEwIYAAAAAAAAYCIAAAD//+zZgQwAAADAIH/re3ylkQAGAAAAAAAAmBDAAAAAAAAAABMCGAAAAAAAAGBCAAMAAAAAAABMCGAAAAAAAACACQEMAAAAAAAAMCGAAQAAAAAAACYEMAAAAAAAAMCEAAYAAAAAAACYEMAAAAAAAAAAEwIYAAAAAAAAYEIAAwAAAAAAAEwIYAAAAAAAAIAJAQwAAAAAAAAwIYABAAAAAAAAJgQwAAAAAAAAwIQABgAAAAAAAJgQwAAAAAAAAAATAhgAAAAAAABgQgADAAAAAAAATAhgAAAAAAAAgAkBDAAAAAAAADAhgAEAAAAAAAAmBDAAAAAAAADAhAAGAAAAAAAAmBDAAAAAAAAAABMCGAAAAAAAAGBCAAMAAAAAAABMCGAAAAAAAACACQEMAAAAAAAAMCGAAQAAAAAAACYEMAAAAAAAAMCEAAYAAAAAAACYEMAAAAAAAAAAEwIYAAAAAAAAYCIAAAD//+zZgQwAAADAIH/re3ylkQAGAAAAAAAAmBDAAAAAAAAAABMCGAAAAAAAAGBCAAMAAAAAAABMCGAAAAAAAACACQEMAAAAAAAAMCGAAQAAAAAAACYEMAAAAAAAAMCEAAYAAAAAAACYEMAAAAAAAAAAEwIYAAAAAAAAYEIAAwAAAAAAAEwIYAAAAAAAAIAJAQwAAAAAAAAwIYABAAAAAAAAJgQwAAAAAAAAwIQABgAAAAAAAJgQwAAAAAAAAAATAhgAAAAAAABgQgADAAAAAAAATAhgAAAAAAAAgAkBDAAAAAAAADAhgAEAAAAAAAAmBDAAAAAAAADAhAAGAAAAAAAAmBDAAAAAAAAAABMCGAAAAAAAAGBCAAMAAAAAAABMCGAAAAAAAACACQEMAAAAAAAAMCGAAQAAAAAAACYEMAAAAAAAAMCEAAYAAAAAAACYEMAAAAAAAAAAEwIYAAAAAAAAYCIAAAD//+zZgQwAAADAIH/re3ylkQAGAAAAAAAAmBDAAAAAAAAAABMCGAAAAAAAAGBCAAMAAAAAAABMCGAAAAAAAACACQEMAAAAAAAAMCGAAQAAAAAAACYEMAAAAAAAAMCEAAYAAAAAAACYEMAAAAAAAAAAEwIYAAAAAAAAYEIAAwAAAAAAAEwIYAAAAAAAAIAJAQwAAAAAAAAwIYABAAAAAAAAJgQwAAAAAAAAwIQABgAAAAAAAJgQwAAAAAAAAAATAhgAAAAAAABgQgADAAAAAAAATAhgAAAAAAAAgAkBDAAAAAAAADAhgAEAAAAAAAAmBDAAAAAAAADAhAAGAAAAAAAAmBDAAAAAAAAAABMCGAAAAAAAAGBCAAMAAAAAAABMCGAAAAAAAACACQEMAAAAAAAAMCGAAQAAAAAAACYEMAAAAAAAAMCEAAYAAAAAAACYEMAAAAAAAAAAEwIYAAAAAAAAYCIAAAD//+zZgQwAAADAIH/re3ylkQAGAAAAAAAAmBDAAAAAAAAAABMCGAAAAAAAAGBCAAMAAAAAAABMCGAAAAAAAACACQEMAAAAAAAAMCGAAQAAAAAAACYEMAAAAAAAAMCEAAYAAAAAAACYEMAAAAAAAAAAEwIYAAAAAAAAYEIAAwAAAAAAAEwIYAAAAAAAAIAJAQwAAAAAAAAwIYABAAAAAAAAJgQwAAAAAAAAwIQABgAAAAAAAJgQwAAAAAAAAAATAhgAAAAAAABgQgADAAAAAAAATAhgAAAAAAAAgAkBDAAAAAAAADAhgAEAAAAAAAAmBDAAAAAAAADAhAAGAAAAAAAAmBDAAAAAAAAAABMCGAAAAAAAAGBCAAMAAAAAAABMCGAAAAAAAACACQEMAAAAAAAAMCGAAQAAAAAAACYEMAAAAAAAAMCEAAYAAAAAAACYEMAAAAAAAAAAEwIYAAAAAAAAYCIAAAD//+zc3W3bSBiG0RGQJlJVGkgZaWHb2taUCzqix+T3Q1iGLOqci2A5eB1xTTMXebArAAMAAAAAAACchAAMAAAAAAAAcBICMAAAAAAAAMBJCMAAAAAAAAAAJyEAAwAAAAAAAJyEAAwAAAAAAABwEgIwAAAAAAAAwEn8ePQNAADAd/Dzz69x6Y4vyy/l/jL/Q7i/hBfbr0m2Ox+ZffFy0rup6Sj51MblJdyl++KbffsONx/iJf4X3xv3fttPPu/8WW8P8h+F/U9vP+/02x4/4PRno3zeB591Y3ubdJ93991+ty1vY+el7L2ewfPuvtsHtvGrc+Td/nAS/xEyX9373T6wXabdH6LpbtrbcN/9c//e7/bb0UPe7WS72X/i3f7/93/1FwMAwMn5L4ABAGCMMa7XcW1vl1/K/XX+h3B/DS+2X5Nsdz4y++LlpHdT01HyqY3La7hL98U3+/Ydbj7Ea/wvvjfu/baffN75s94e5D8K+5/eft7ptz1+wOnPRvm8Dz7rxvY26T7v7rv9blvexs5L2Xs9g+fdfbcPbONX58i7/eEk/iNkvrr3u31gu0y7P0TT3bS34b775/693+23o4e828l2s7/3uw0AAC9GAAYAgH9E4HIrAle7zd0Uu/lCBBaBswMRON+texG43IvAAABwagIwAAC8JwKXWxG42m3uptjNFyKwCJwdiMD5bt2LwOVeBAYAgNMSgAEA4CMRuNyKwNVuczfFbr4QgUXg7EAEznfrXgQu9yIwAACckgAMAAB7ROByKwJXu83dFLv5QgQWgbMDETjfrXsRuNyLwAAAcDoCMAAARETgcisCV7vN3RS7+UIEFoGzAxE43617EbjcnykCAwAAAjAAAKRE4HIrAle7zd0Uu/lCBBaBswMRON+texG43J8kAgMAAAIwAADUROByKwJXu83dFLv5QgQWgbMDETjfrXsRuNyLwAAAcAoCMAAAdIjA5VYErnabuyl284UILAJnByJwvlv3InC5F4EBAODpCcAAANB1KAouv4jAwVYEni/D3XwhAovA2YEInO/WvQhc7kVgAAB4agIwAACMcSgKtv/OWQTOtyLwfBnu5gsRWATODkTgfLfuReByLwIDAMDTEoABAGCMcegvkkXgcisCV7vN3RS7+UIEFoGzAxE43617Ebjci8AAAPCUBGAAABjHw4EIXG9F4Gq3uZtiN1+IwCJwdiAC57t1LwKXexEYAACejgAMAABvRODyg5YTEbgzFoEb2/29CCwCR0cicHAhAovAAAAwEYABAOAdEbj8oOVEBO6MReDGdn8vAovA0ZEIHFyIwCIwAADcCMAAAPCBCFx+0HIiAnfGInBju78XgUXg6EgEDi5EYAUYAADGGAIwAADsEoHLD1pORODOWARubPf3IrAIHB2JwMGFCAwAAAjAAAAQEYHLD1pORODOWARubPf3IrAIHB2JwMGFCAwAAC9OAAYAgIQIXH7QciICd8YicGO7vxeBReDoSAQOLl42AgMAAAIwAACURODyg5YTEbgzFoEb2/29CCwCR0cicHAhAgMAwIsSgAEAYIy7hwMRuN6KwNVuczfFbr4QgUXg7EAEznfrXgQu9yIwAAB8OwIwAAD8IwLv/o4icL677UXgfC8Ct7flbYjAwZEIHFyIwAAA8GIEYAAAGGN8VTgQgeutCFztNndT7OYLEVgEzg5E4Hy37kXgci8CAwDAtyEAAwDAzddF4GO3IAKHWxF4vgx384UILAJnByJwvlv3InC5F4EBAOBbEIABAGB8IhQdiILtv5sWgfOtCDxfhrv5QgQWgbMDETjfrXsRuNyLwAAA8HACMAAAvPnqCOx/B11vReBqt7mbYjdfiMAicHYgAue7dS8Cl/tHRmAAAGD8BQAA///s3M1y2jAYhlHf/02nC4iNLH0/mdIGzDk7KS9BM931mVYABgCAByJwvV18Zfbh240I3BmLwI3tei8Ci8DRlQgcHERgAAC4MAEYAABOROB6u/jK7MO3GxG4MxaBG9v1XgQWgaMrETg4iMAAAHBRAjAAACyIwPV28ZXZh283InBnLAI3tuu9CCwCR1cicHC4YAQGAAAEYAAACIjA9XbxldmHbzcicGcsAje2670ILAJHVyJwcBCBAQDgYgRgAADYtueHIhE434vAnbEI3Niu9yKwCBxdicDB4TIRGAAAEIABAOAgAsc/KraLr8w+fLsRgTtjEbixXe9FYBE4uhKBg4MIDAAAFyEAAwDAIxE4/lGxXXxl9uHbjQjcGYvAje16LwKLwNGVCBwcRGAAALgAARgAALZt+6ehSATO9yJwZywCN7brvQgsAkdXInBwEIEBAODNCcAAALATgYODCCwChxcicL3dJyJwuhWB693pNe1tuBeBAQDgkgRgAAAYiMDBQQQWgcMLEbje7hMRON2KwPXu9Jr2NtyLwAAAcDkCMAAATETg4CACi8DhhQhcb/eJCJxuReB6d3pNexvurxSBAQAAARgAALbtP4eiH0TgNhE434rA4zHcjQcRWATOLkTgfHfsReByLwIDAMBTCcAAAHD3ihH4y78ELrcicLWbXlPsxoMILAJnFyJwvjv2InC5F4EBAOBpBGAAAHjwihHYfwddb0Xgaje9ptiNBxFYBM4uROB8d+xF4HL/lAgMAAAIwAAAcCICR7t5JQKLwNGFCFxv94kInG5F4Hp3ek17G+5FYAAAeGsCMAAAbNtfh4PxWgROfioCi8DRxe1WBO6MReBoKwKPx8Y23IvAAADwtgRgAAD4JgKPx3A3r0RgETi6EIHr7T4RgdOtCFzvTq9pb8O9CAwAAG9JAAYAgEci8HgMd/NKBBaBowsRuN7uExE43YrA9e70mvY23L9ZBAYAAARgAAC4i2OACBzt5pUILAJHFyJwvd0nInC6FYHr3ek17W24F4EBAOCtCMAAALATgUXg1VEEFoGjhQicXYjA+e7Yi8DlXgQGAIAfEYABAGAgAovAq6MILAJHCxE4uxCB892xF4HLfffPGwAAEIABAGAmAovAq6MILAJHCxE4uxCB892xF4HLvQgMAAAtAjAAACyJwCLw6igCi8DRQgTOLkTgfHfsReByLwIDAEBJAAYAgK3xl8ki8HgMd/NKBBaBowsRuN7uExE43YrA9e70mvY23IvAAADwsgRgAAC4E4HTR2xlOBCB670IPF2IwPV2n4jA6VYErnen17S34f4lIzAAACAAAwDAtvVD0ZtE4DYRON+KwOMx3I0HEVgEzi5E4Hx37EXgci8CAwDAkgAMAADfLhSBv/xL4HIrAle76TXFbjyIwCJwdiEC57tjLwKXexEYAAAmAjAAADy6UAT230HXWxG42k2vKXbjQQQWgbMLETjfHXsRuNyLwAAAMBCAAQDgTATuPGIrw4EIXO9F4OlCBK63+0QETrcicL07vaa9DfciMAAAvAQBGAAAVkTgziO2MhyIwPVeBJ4uROB6u09E4HQrAte702va23D/yxEYAAAQgAEA4O4nUfB0KwKPx3A3r0RgETi6EIHr7T4RgdOtCFzvTq9pb8P9b0ZgAABAAAYAgIMIPP5yETjcisDjMdyNBxFYBM4uROB8d+xF4M4eAAA+mQAMAAADEXj85SJwuBWBx2O4Gw8isAicXYjA+e7Yi8CdPQAAfCoBGAAAJiLw+MtF4HArAo/HcDceRGAROLsQgfPdsReBO3sAAPhEAjAAACyJwOMvF4HDrQg8HsPdeBCBReDsQgTOd8deBO7sAQDg0/wBAAD//+zdzY4cVxkG4K/GM/6JAyJOkJPYIkbKgkUsoRgRhGSDhBQkyAXAjoW9IRKsyT2Eq4qzCxLrBASxBBGLLFAiQoynWFRPV5+uOj/tGY/H3c+zGOUcv9VVPWeqFM2r06MABgCAyP0yWQmcvrgSOJtVAqfDbC4dKIGVwKUJJXA5N+aVwAAAQEoBDAAAC0rgWnb4ogTOZJXA6TCbSwdKYCVwaUIJXM6NeSUwAAAwUgADAMAKJXAtO3xRAmeySuB0mM2lAyWwErg0oQQu58a8EhgAABgogAEAYI0SuJYdviiBM1klcDrM5tKBElgJXJpQApdzY14JDAAAKIABAGDWrpbAzZTA5awSOB1mc+lACawELk0ogcu5Ma8EBgCAXacABgCAjF0sgXs7gatZJXAtN7maSi4dKIGVwKUJJXA5N+aVwAAAsMsUwAAAEBGb/TJ5u0tgHwddzyqBa7nJ1VRy6UAJrAQuTSiBy7kxv5slMAAAoAAGAIAVSuDxACVwLasEruUmV1PJpQMlsBK4NKEELufGvBIYAAB2kQIYAAASSuDxACVwLasEruUmV1PJpQMlsBK4NKEELufGvBIYAAB2jQIYAAAmlMDjAUrgWlYJXMtNrqaSSwdKYCVwaUIJXM6NeSUwAADsEgUwAADMUgKPByiBa1klcC03uZpKLh0ogZXApQklcDk35pXAAACwKxTAAAAQ0V4GhBK4nh2+KIEzWSVwOszm0oESWAlcmlACl3NjXgkMAAC7QAEMAABHlMCVA5TAtawSuJabXE0llw6UwErg0oQSuJwb89teAgMAAApgAACIzYuDiN0tgZspgctZJXA6zObSgRJYCVyaUAKXc2NeCQwAANtMAQwAAAtK4HJumbcTuJpVAtdyk6up5NKBElgJXJpQApdzY14JDAAA20oBDAAAK5TA5dx4gBK4llUC13KTq6nk0oESWAlcmlACl3NjXgkMAADbSAEMAABrlMDl3HiAEriWVQLXcpOrqeTSgRJYCVyaUAKXc2N+y0pgAABAAQwAAIPjFQcRSuB6dviiBM5klcDpMJtLB0pgJXBpQglczo15JTAAAGwTBTAAACwpgcd/3qwEbqYELmeVwOkwm0sHSmAlcGlCCVzOjXklMAAAbAsFMAAAJJTA4z9vVgo2/+JdCVzOnoESuI9hhfrMOimBK3klcHO2ehlK4MyUEjgzAAAAQgEMAAAzlMDjP29SBiiBa9mzXAIfLmrfg71zcWn/IJ4/uBiXDy7Epf2D2N87t3iJlZ8iJXA5rwRuzlYvQwmcmVICZwYAALDz9p/2BQAAwJnQR0SXn1iOJrnsZPR9RNeSXUxlXmWcXQtM8/nsNFE86Vq+j+i7Ym48oI++65qiw4v30Uclv/bNz15y8g+Z9WvIzpyydKJhZnatMy+Q/daXFzj7jqprXTxp9BGxF108d3A+Xrz0fNz+zuvx8je+Fa9f+XZ88fV/47Mv/h0ff/6v+PNnD+Lz/3wZXx/+Lx4+ehR99NH3EXvzb3zmghp/No653pVbeTJR/lHY5N6eybfe22vDU723G7LLfP6Nz4Xr9/ZKtrjW4wVHca1nJ4/3LF+5vGo2/6jc5N5em8k/QtLRCT/L++ija37uR/Rdw2q33tsz2fS/5nLZBAAA7CQFMAAAHFECz1ICz51sO0rgvu/j0sH5+O4LL8Vvvv/j+OmN7829gaWP/vG3+ODTj+ODT/+SlMEREV1TMagEbsnOn1UJrATO5ZXA6Q0MAAB0L11/w/8dAwCw81589+fjYPLb5W5+NPtb6/lfZc/3JTOTXfFVsodO8/nsdLp40rVUYxkQEdFaAi9fvCG/9s3P5rvsoLK8he9k4xrmu7FN1ru8wNl3VF3rYdRHxLm9Li6fvxB337wdv3rjh/MHFqyXwQ/7R8udwdWVbP3ZOOZ6V27lyUT5R2GTe3sm33pvrw1P9d5uyC4jrTu/W+/tlWz1MmZuyrbb83jP8m5+en4y+6jc5N5em8k/QtLRCT/Lu42e+42r3Xpvz2Sz+cXk/bvv188PAABbTgEMAACxVgBHKIEzlMDVEw0zZ7gEHnb9XoibV6/FH27/Iq5984XcxTY7KoPvP/jr5GOisyuqBG7KzueVwErg3JQSWAEMAAA+AhoAACLiGB8Z6+Ogy3wcdDV7Wh8HfRgR+10Xly9cjLu37jzWrt+cW6/eiFuv3ojf/yjio3/+fSiD1z4merKyPg66KTt/Vh8H7eOgc3kfBw0AAIQdwAAAEBFxZbEDePLL5MrEzKak0sHDbGu2uJGrm/3P+Xw+O50unnQt1VgGRISdwPVs/ltfXuDsO0q61uFv/d68ei3eu/3LE9n126KpDLYTuCk7n3+C93ZDdhmxE7iYzT8qN7m312byj5B0dMLP8mdhJ/D9e3YAAwCAAhgAAGIsgCOUwE+sOGgtiZYvrgTOZhtL4L6LONcNf+v33gnv+t1UqQyObi/2Wl5ECawEzubSlBJ4ZbRjJbACGAAAFMAAABAREVfefTtOpChSAlcOsBO4lj2pEni56/fl093122K2DD48jGj5kGAlsBI4m0tTSuCV0Q6VwApgAABQAAMAQEQcFcARSmAlcEt25pSlg4eZUyqB+zja9Xtx2PV78+nt+m2RlMFffRkPDx/N/83gVUpgJXA2l6aUwCujHSmBFcAAAKAABgCAiFgtgCOUwErgluzMKUsHDzNPuATu+z6eO/pbv3feOVO7flsMZfAn8eGDTxY7gwtlsBJYCZzNpSkl8MpoB0rgDxXAAACgAAYAgIiIK799++SLIiVw5QAlcC3bWgKv/63fX998K3eSZ8afFmXw/VIZrARWAmdzaUoJvDLa8hJYAQwAABH7T/sCAADgzOhj5RfJ4yCZbphYjia57GT0/VxfMpNdTGVeZZxdC0zz+ew0UTzpWr4f2siWMmD+TRdevPihwGsXvbya+XxmraejcnbmlKUTDTPZt73Jeq+sTt/Hpf3F3/q9805cf8Z2/ea8+cpr8eYrr8Xv3vpZvgzu++i6Lh53vR/73m47eJhtXe/We3tteKr3dkN2mW+9v1vv7ZVsca3HC47iWs9OHu9ZvnJ51Wz+UVl+eG+63rPv6ISf5X300TU/9yP6rmG1W5/lM1kAACDsAAYAgIjFDuAjye+PCzvITnj3WESuL8lv66ruIDvm7rF0+snsHrMTuJ6d+9YPf+t3b9j1+4Pt2PXbYrYMPjzaGbwXEZuv92Pf220HD7Ot6916b68NT/XebsguI3YCF7P5R2X54b3pes++oxN+lp+VncAf3vtj40UAAMD2sgMYAADW2QmcSTy5ncB9awlsJ3B0sdj1e3A+bl69Hu/9ZHt2/bbI7gz+6mhn8GEcLn5CystgJ7CdwOu5+Qk7gdue5WdnJzAAAPB/AAAA///s3X2MHPV9x/HPzOze7fnZ+On8cHfxIwHD2cbY5sEXGzuhCYEU0qpqg9KgShhopEZUqlBSqMI/bSWatmr5g4iqdRRqEgWEQDSlFKLQ2NjGPBoQYPwA9tnYxk/48e724dc/ZvduH+Y3O3e3e7e793794ez89jszv9nfzhDt534zBMAAAABAEEJgSwUh8GiGwMaRXMfRxOaE7r523ZiZ9WtTEgYfys0Mvqi+TFqp4mcGS4TA1q0RAhMCl6rLEBgAAAAAATAAAABgRQhsqSAEHo0QOPes387WNv1o3TfH1KzfKPrD4NX5YfA+nc5/ZnDuG0MIbKkgBCYELlV3ITAAAAAAAmAAAABACvn9mxDYUkEIPFIhsJEjz3E0vjmhTdeu0590ju1Zv1Hkh8FvfPapth3aq1cP7Rt4ZnA6LWOMnP4PnRCYELi4LriBEJgQGAAAAKgHBMAAAABAFiFweG1pBSFwtUNg/1m/cXW2tjPrd4hWzu7QyrAwOJObGSwRAhMCBzcSAg9UEQIDAAAA9YAAGAAAAMhDCBxeW1pBCFyNENhIRbN+rws7MkRkDYN78m8TLTlB3w9C4ECEwJFWJgQmBAYAAABGFAEwAAAAIKlsGFDyBiEwIXD52oBdhu1IkpTJGI1ryj3r91Zm/VZJSRjcnT8zOKNkOq1M9hsVNdglBHZk+pNOG7/SJQQOrSUEJgQGAAAAhoMAGAAAAOhHCFyLIXCkkKh/4/UbAhvlzfpdtU7fYdbviOkPg1dt1BtH828TfdGfGZxKSbk/RiAELqjxEzvJdV3FHFeu48pz3bznKxdKm4yMMUplMsqYjL+Ncn/oQQgcXksIrLLjDQAAAIwxBMAAAACAFD0MKHmDELjaIbDJHnSkH/brNAQ2JqOWeLOWtbbpR+trZ9avMUaXUknFXU9xzxvt7oyIla0dWtmaC4MPatuhvXph7/vqTSfVk0z6weYYD4GNjFy5avI8xVxXcdfTwqnTtWDyDLWOn6gFU6ZrQrw5cJv7zpzQhWSvdh8/rP1nTups3yWljFEynVYqk7af64TA4bWEwLneAAAAAJDkTJ93Ff//GAAAAGPe1Pu+5r/o/6154Edn68/PTvBCSX2ZhoBdhq3st0atdUK3Yl21tN5eW9ocutOiqohhgBQ9BO7feIT6og9/sGMduE5IbfEujbKzfpuatWnV+pqa9duXTmn/6c/1729u1YrZberqWKKpifFq8mJjJgzOSZuMnv7gLf3H29t0vq9XJhczRT23I9T2t0b7EkY/t4sWh3NuGyN//GOe2iZO1fVzFqhz5lx1zpgrz418dhY4cv4LvXv8sLZ/dkBvHz+sZCat3lQqe/ttW2ciXgucgd6H1ke97lf4Wu4ENwc3Wi+V4RfvwY534BFV+FruDOq6H3G08z787Zv+MeLGAQAAgMZFAAwAAAAoLwCWCIGtWyIEtiwMKQQ2xqilqSk76/e2mpr1eyHZqy27X9Pmt7apJ51UxmSUzhit7Visr3QsGrNh8JFzp/XQb5/TnlPH/Znp0pgIgY2Mmt2YWmJx3Tx/qW6Yu0ArWufZOjlkZ3t7tP3wfj27710dPHtKPbYgmBA4vHaMh8DbN/1TxA0DAAAAjYsAGAAAAFBRACwRAlu3RAhsWYgcAudm/U7IzfpdVjuzfnvTKR04/bn+9pXn9e6xI4p5XkFAlc5klB7jYXAqk9bdz/9ce04dDzlnGyMENpJijqtx8bi+Pn+pvnvVak1qbrF1rKK2du/Tlg9e1ydfnFRvOlVaQAgcXjuGQ2ACYAAAAIAAGAAAAJAUEABLhMDWLY1+COzY0zHLxmsjBDbGqCXuz/r96/W3ad7k2pr1+5+7d+pnb21TXzol13EUNta5MDiTDYO7xlAY3H3utO56drN6UsmBxgYMgROxuFbP7tC9K7o0Z8IUW2eq6uk9b+uZPe/o+MVzSplMwOdICGytHaMh8PZ7CIABAAAAb9ykmT8e7U4AAAAAo61l1cLgNwiBLfWjHwLX00zg3Kzfic0t+vM1G/TDdd/UpMTIzKQspzed0t6Tx/XA/z6l/9qzW8ZRNvzNCR5r13Hkua5inqfuL05p68GP9cQ7O/TRyaO6kOzV1JZx8hxXjvy6RjKpuUWJWFw7Dh8YVLBbLyGw6zhqHT9Z965Yq7uXr9XEpoStE1V35bRWbey4XIfPn9GxC+eUMunCM5kQOLx2DIbA3c/viLgxAAAAoHExAxgAAACQZQZwDiGwpZ4Q2LJQsJT/rF9/1u9lkbpbbf2zft/Zqc1vblOfSRUEv9YjKjPW/sxgk71N9CJ1dSxWV8fihpsZ3JNK6htP/ouS6XThG3UeAsddT50z5+lvbrxFk2vkjxRynt7ztn723k5dSPYWvkEIHF47xkJgZgADAAAAzAAGAAAAJIXMAM4hBLbUEwJbFiTlZv0msrN+b629Wb8v+rN+5UhuwGc+lBA4NzM47nnq/uK0th76WE/s3qmPTjTWzOCY6+nEpfP64MTRoZ/bEWr7W6scAktSk+vp9iXL9eCN31AiFrftcNRcOa1V17a26/XPDuo8IXB/EyFwIWYAAwAAAATAAAAAgCQpsWrhoEPBwle22jL1hMAh9fUbAuee9btyTof++dbv6MaOJVF7V3W9qZQ2v7VND//mWR29cEYx1wsNJIcSAue4jivPyYbB5077t4luoDD4fF+fXvl0j6RhnNvRVvZbqxgCN3sx3b5kub6/cp1tJzVhWst4XT9nvnYc+YQQOK+JEHgAATAAAABAAAwAAABIkhKrFmgooWDhK1ttmXpC4JD6+gqB/Wf9uprUnNB9123QD9fXzqzfnC3v7NC/7nhJcvKf9TuYoGhwIXBuqX9msNs4YfC5vh79eu97/cv1GgLHPU/3rOjSXZ3X2zZeUyY2J7Sx43K9cnAvIXBeEyGwjwAYAAAAkGKj3QEAAACgJhhJjpEpFxwYZX+Y7n+R98pWW6a+TEPALsNW9ltNUFAUUJttsmxloLWooLTeXltaEbrTonojmYhhgDEyUUPgIY532Fgb+bN+l7W26cGbvlUzz/otdimdVMzz7ONXdnEwY523lNfoOa48zw95XztyQNu79+nvtv63utoWaW3umcEt49Xk1vYzg40xqsi5HW3l7D5tIXDwoJU7t2OuqzsWL9cffvmaoI3WrMnNLXpk/R36q98+o88uni36HCOc23m1oed2f13Bi4iX4+Fdy/O6V7bWfqkczLld1GL/T0bhUoWv5UZGTuTrvmScSKMNAAAAjCkEwAAAAEAOITAhsL0T+b0pqPdn/Tqa0JTQpjU36c5ltT2L0jH+/4aOX9nF4YfAOflh8M5sGPz3W1/Q2vZFWtu+WF0di+ogDK7PENiRq5vnX6HvX7suaGM1b87EyXpk/R26+8Ut6kklB94gBA6vJQQGAAAAGh4BMAAAAJCPEJgQ2N6J/N7Ikfqf9bustU0PbqjdWb8lrB/96ITAObkwuEnSa93ZMHib0dq2egiD6ysENpIWTZ2m+1dvtBxPfZgzcbJ+cM16/eT1l5XKZAbeIAQOryUEBgAAABoaATAAAABQjBC4IULgkIelBmx8cONtJLnZZ/1uWn2T7lxe27N+A9VoCJyr8lxHnmKSM3Cb6JoMgyt9bkdb2W8dRgiciMX0cNe31OTV/88CN8+/Qm9/3q3/OfBB4RuEwOG1DRoCAwAAACAABgAAAIIRAtd9CGyyBx0pBh7EeA8867ddD9XTrN8gNR4C58Y76JnBNRUG11kI7DqO7l62VvMmTbEfU525f+UGvXH0kE5cOl/4BiFweG0DhsAAAAAACIABAAAAO0Lgug+BK3k7aKPcs35bdM+aOp31G6ROQuBcXc2GwXUUAi+YPE23Le4MOZj6E/c8/dnV1+snr7+sdP6toCVCYHvnoywWttRDCAwAAACAABgAAAAIRQhMCCwNPOt3dgPM+g2aIldnIXCONQxuX6yu9sVa275wZMPgOgiBY46rB274uhKxeOih1KPfm3+F/q/7Y+048knpm4TA4bWEwAAAAEBDIQAGAAAAyiEEHrMhsJSd9dvcYLN+BzXetR0C5xSEwd37tSMbBt/Ytqg/DJ43aQSC+xoPgVfN/pIuv2xW2cOoV3+wZIV2fvapfwv4YoTA4bWEwAAAAEDDcEe7AwAAAEBdMP4/AZFCQF3BC/s6JnihpL5MQ8Auw1b2W6PWmtCtWFctrbfXljaH7rSoypStG1ghwvjlbdyYjBKxuFbNW6Atf3xvA4W/OYMZ7/ABtnwjI4x16E4DqqKNt+e6irueWmJx7TpyQI+8+oJuffLR8itWSqXP7Wgr+60hFxzXcXTLoqtsBQ3hmllt6ggL+qNey/NqB/4NqyusinaJHd613AQ3BzdaT53BnNtFLfZLSOFSha/lZjDXfQAAAGCMIgAGAAAAoiIEDq9vkBDYSHIdR5Obx+kvbviafnrHXXV+y+cwjRsCS5IxRp7jqsmLqaVKtzwesXM72sp+q6VT7ROnaF374uA3G8j3lq4pf7cGQmB7LSEwAAAAUPe4BTQAAAAgPyhygu+dWlQobgcddgBFBaX19trSitCdFtUbVeJ20Lln/S6f3a4HN/6+2ho2+M03mPEOH2DLNzLCWIfuNGCd6OMd+dwehhE7t6Ot7LcGnNu3LOq0HULFGEnJdEp9mbQyxiiTTaNjrivPcRR3Y4q51f1b9NWzOzSleZxO914M7yi3g7bXDvNaPiLntrgdNAAAAGBDAAwAAABkEQKXqW3wENjNPuv33jUbdOeKRrvdczmEwENXJhiskRDYc1x9dcGXyxzL8PSmU/rkzEm9eni/Xj28X8cunNWxi+ckSZ0z5mrWhIm6Ye5CfaVtkVpicXlOdYLgRCyurnkL9dy+d8MLCYHDawmBAQAAgLpFAAwAAADkIQQuU9tgIbAcP8yJu55Wzu3QQxtvr5lZvxlj1JtKqiXeNEJ7bPwQuOJM/ovaDoEvnzZL01smhB7OUBljdOzCOT314Zt64v2d8lxPnuPKkfpvvf3RqWP68ORR/eaTj7R0+hx9d+kaXTf3S2ryqvOzxI1zF5QPgCVCYHvnoywWthACAwAAADWDZwADAAAARSIHRcb/p2y1KXlhX8cEL5TUl2kI2GXYyn5r1FoTuhXrqqX19trS5tCdFlWZsnX99caoyYvptiuW6dHb/7Rmwt+eVFKvHz6gf/jdC1XZvv0rPpjxDh9gyzcywliH7jSgKvp4V0XRyTZi53a0lf1WI61obbf1bNg+PvW5/vLlX+nJD3YpEYsr7rpyHcf/Y5psl1zHkef6z2P+6NQxPfDKM9ry/i71pVNV6dPSGXPkRU0Eo17L82oH/g2rK6yKdokd3rXcBDcHN1pPncGc20Ut9ktI4VKlr+WjfR0AAAAAagwBMAAAABCAELhMbYOEwI7j6I+uXqUff/XbanJH/wZJGWN0trdHj25/Wd976t/06ZkTVdsXIXAF1UEIvHxmm61Xw3L0/Fnd9+IWHTp3RnHXC+5HUZdcx1GzF9Pju7dpy/u7lMpkKt6vllhci6fODPuiFyIEDq8lBAYAAADqCgEwAAAAYEEIXKa2AULgJdNm6Qdrbw4vGiE9qaR2HT6gO3/5mDa/uVWJWLyKz631EQJXUA2HwI6kq2fNsfVoyJLptO5/6VdKZjJys7dTt/Yj4AOJu54e371NL3/6YcX7JkmdM+dkL8+EwGG1DRcCAwAAACAABgAAAMIQApepreMQ2HUcPXzzt9XsxcM3VGX+rN9LenT7S7rrqcd18IuTinte+RUrhBC4gmo0BJ6caNG4WOWfJf3cx++o+9wZ/7mztm5ECIEfe+t36kunK96/1vGTBnZLCBxa20ghMAAAAAACYAAAAKAsQuAytXUaAi+4bIaunDk3fANV1ptKaVf3Ad35i8e0+Q1/1q/rOBrppIMQuIJqMAReOGWGrRdDljYZ/fy917LfV5UZ0vDxPnXpgn69770K91CaP2V64W4JgUNrCYEBAACAxvH/AAAA///s3V2MHeddx/HfzOzaGxNiB7dJX5KIxk2jphU04gKwCJUAkVwC4gYR7lCkXgBClegNN0jABRcFpRckoKYXaRJqpOLyXpI6cRtHqR3HTswm9iY2jtdOdr1Zr+usX3b3nHm4OLvnnDnzPM88sztz3vz9SF6dec5/zjw7z3mei/15ZgiAAQAAgACEwAW1IxgC/96X9vp3rJExRssrN/Stoz9cv+r3UuuqX3+aV2UPLH0KryUELjBkIfBt26dcPdi0k4tzunR92dmtMnM7iiK9fP7dCnvXkvTcQp0QuLiWEBgAAAAYDxOD7gAAAAAwKowxYc9kNZIiI6NI3mqj1sM5Oy+6XrlqC+oLGiyH9O3cajVS/te21K43OT6l09pTkK931+YrvAftqTeSidp19+2+w71DjVYaDZ25dFF/ceBfdWJuVlMTPbegLvhdqmM589axtte6T71/gB3fyICx9h7Usk92vPuuZ7L1bW5bavfc3rkStiqvXjizvh66B7jM3P7xB2cr7+MXPpZ/7nFreXZ+0W3FxWt5V613rNt1mReBy/HW1vKu7hXWuqdOmbnd0+JeQrJbozC3AQAAgBFAAAwAAACUQAhcUDtCIfAnbtvlLq6BMUZXV1f09PFX9M3XDmq12XQ/65cQ2PNpIxQUDUkInIZe9VqG6d3YWgicRLGaaaokrv9GZYTAxbWEwAAAAMBo4xbQAAAAgKTg24JK3A66qNZ4P8W5a77eXZtv9h60p8pIRvrErTv9xRVaaTR0cuED/eF3v6VvvPKC1tK0/ezUsLGuk+XMl+mU89T7B9jxjQwYa+9BLVWmj+fS2Ql19aagLrux6bntPdjWnb1yydsP/5Da3zx7ZXHrHQvUWp4rXsu7ajs/fXXZqrAldmtrubE32xudU6fM3O5pcS8h2a1RmNsAAADAECMABgAAAFQyDBAhcGHtKITAfbDxrN+njv5Qf7DvSb118by2JUnrKryQ3tTRzdCgiBA4SHgomOlNwIdVFwI30rSwi2V99vaPW1o3HwJHkvbssn3m5hX93oTAxbWEwAAAAMBo4hbQAAAAwDqjErcFlbgddFHtepPjU+S6LWi+3l2br/AeNFNft/azfn/wPb05N6vJJFEcdf0f3J6TX9DlagWO99jdDroOxshEobcHzvamX7eDfmP+fFHvSts5taN4bvds+r4bu7bvqLyPJxYuFNaUWvdD1/KuWm4H7ah3LyHZrdC5ze2gAQAAgAyuAAYAAAC6lLoiTOJK4KJa74Vc7ivCyl49lm0Ou3qsLp2rfg/q0X1Panrjql9rcfZFP7pcdrzH60rgmpgyV4Z2XvRrbseB/6mljF/59B5FzljdPcCu78aX77mvsr5tiKMoaOBLrfuha3lXbeenry5bFTY9t7aWG3uzvdEErOPFmyr4Mmxhbjs7CAAAANyUCIABAACAHoTAhTu3WgmBczrP+n1Kjx96QWtpM3vVrw0hsGWznhC4VkMcAtdxC+iP7bhVe3butnfB1uoZ0iSO9PC9n6+wdy3t35sQ2NlICAwAAACMJwJgAAAAwIIQuHDnVishcFsjbeqp1w7q0e88of+d737Wb/nxJgTu2SIEluWb7ajLNxyfP6+mqT4E/treRzQZJfYu2FodQ/pLn/pZfX73JyvunXRsflZlvheEwMW1IxECAwAAACAABgAAAFwIgQt3brUSAkuSXr9wVo+/8oLW0lRJ77N+CYHdtYTA2U1nXXajzNyOo0gzH86H9KqU+3ffqd+6/+cVdz27Ns89wKmMPr7jVn3lwS9X3jdJemdpIXt2CYGdjeMVAgMAAAAgAAYAAAA8CIELd261EgIrjuKCZ/0SAjtrCYGzm8667EaZud26GrZ6jz34kB68825NRLGMrQu2jq1v/vTklP7oF35Nd912e+X9appUJxYudB2OELhg57EJgQEAAAAQAAMAAACFCIELd261EgL7bWG860YIXIMhC4FnFi+G9Ka07cmE/ubXf0cP3/uAdiTbFKl1Za9tvI2MjDGajBN98qd26m9/43f1q/d8tpZ+zVy6qGuNta6jd34SArsbCYEBAACA8TAx6A4AAAAAo8BIioyRIuv1nfl6YxSF1LY+WEaR/crRTF3mRdcrV21BfUGD5ZC+nVut1lNkqV1vcnxKp7WnIF/vrs1XeA/aH5sa79o64j5kwBi6p0OZ8fYPsOMbGTDW3oP2jzEyUcFYS7mTX8fcfuPirFJjFAeuYWVMxom+9ssPa+9d9+rpN3+s88uXtZo2laad5w5HkTQZT2gySfTwZx7Qo1/8Re2auqXyvmw4Nj+bO4eZsxvwvSi17ofO7a5a71h3OizvWFsbt7aWd3WvsFZGMlHBOl68mW1xLyHZrUHObQAAAGDIEQADAAAAUvVhgAiBC2sHHQIPSpnxrr8j9hZC4OoMSQh88eoVvbXwvr54x6fL9b+Eh+6+Tw/dfZ9mFud16MIZnb58sd2FWye3a+9de/Rzd9ylndvrC36l1tr78vnT9vdECEwIDAAAAIw/AmAAAABgAyGwtWFsQ+AaBH8yIfBgQuBBGYIQOIoi/dP0Ef1ljQHwhs/tvlOf231n7cdxOXdlSdMffuC82pkQOGhnQmAAAABghPEMYAAAAEBSOx0KCImMJJ4J7N251Rpa6z31xvrSXu+uzTfXlAaGPve13YUS9VVyfC9yLYFjODLPBK5YqdEbgmcC/+DsSS1euxrSi5FlJO17+6jigkQwc3arXvfLzG2T642nLlsVNj23tpYbe7O90QSs48Wb2Rb3EpLdGuR/8AAAAACGEAEwAAAA0EYI7GsYvxC4JoTAhbVjFQKXWAcGHQIncaznpg+H9GBkLV2/pgPvnWxtFJxsQuCgnQmBAQAAgBFEAAwAAADI8ud0QmBrAyFwIELgwtrBhMD1GKUQ+Pn/e1srjUZID0bSv737pq43GwpdywmBg3YmBAYAAABGDAEwAAAAsI4QOKxhXELg2pUKBVs/CIEdtYTA2U1nXXbDNpU/vPaRnnj9YLn+joiFa8t6ZvpIVwshsK9hbENgAAAAAATAAAAAQDdC4LAGQuAwZkivBPYPLyHwZo1CCBwp0rPTh3Xm8kLI0UdGM031+NEXtZK2rm4uu5YTAgftTAgMAAAAjAgCYAAAAKAHIXBYAyFwIELgwtp+hcD9MAoh8GSU6K8P/ZfWms2Qo4+EV98/q5fem1HU1UYI7Goc9xAYAAAAAAEwAAAAYEEIHNZACByIELiwlhC4qC77Yqtz++2FOe0/dUzpGNwKeuHasv7+9YNK4vyfOAiBXY2EwAAAAMA4IwAGAAAAHAiBwxoIgQNt4pnANXXEs9XbQAi8WcMeAsdRpCeOHtTxudmRfh7wjcaaHn/tgM5dWXKeEEJgVyMhMAAAADCuCIABAAAAqbLgoF1CCOzbudV6E4bAm3kmcE098Wz1NhACb9awh8A3mk199fl9Or00ms8DXkub+rsjB/TSezOKo/WbPxMC55usdfaGcQiBAQAAABAAAwAAAB2EwP76cQuBB6VMCFwrQuB+GOYQOJK0mqb68xf3a275J+H9HAJraVP7Z47r3989sX7r5+LxJgR2NRICAwAAAOOGABgAAADoRgjsrycE9gv96EGGwJ5glxC4HsMeAp+7sqQ/+f53NLf8k9BIcqBWmw3tnzmurx8+oInMc38JgQmBAQAAAEgEwAAAAMC66oODdgkhsG/nVuvYhMDOZMNSSghcVFt5CFyH0Ck7xCFwHEWaXQ+B31mcVzrEzwS+vraqZ6YP6+uHD2hbkmwqFCQEdjUSAgMAAADjggAYAAAAaCMEvrlC4Oq1o5kSIfDAEAJXJHy8RyEEfuw/vq3jc7NabTbC+9oHRkbLqyv6q0P/rX88fkjb4qTrvXy1582eZkJgXwMhMAAAADCaCIABAACADEJgQuCtKRsCG64ELqwd5hB4M+Md/uH9D4HX0lRffX6fvn3iVS2vroTGkrVaaTb0zuKC/vSFf9ZL52Y0uRH+epdrQuCbNgQGAAAAQAAMAAAASJ6giBDYX08I7Dl6eCjI7aCLa6sJgesxTiFwJGk1TfXk0R/pj//nOc0szmulMZirgZsm1UerN/QPx36kr3z/GZ1cnFMSR9kiQmBCYN9nAwAAADcpAmAAAABgHSGwq7agnhDYc3RCYM/OrRZC4JDivofAk0mikwvz+v3939QTrx/UhY8ua6XRCI0nt6SRplpeXdGh2dN67D+f0XNvHdFamiqONsJf9wATArvqslWEwAAAAMB4mxh0BwAAAIBhYtQKP3Jb2TcsFeuvHHW5fYyRooLCjXpjFIXUtj5YRpG/C+0+5nrvqS2oL2iwHNK3c6vVeoostd5TXzyGdWod0kgmCjt2ie/FVvrkfMMy1vktf22mJXC83b92mfHuabFs1q3seAfP7VaxTFQwtzud6O7Npud2HEWaSib17PRh/cupY/rt+x/UI3u+oLtv+xndMrmt8unUSJu6traml2ff1XdPHdeJhQuaTBJNxIl/bvdser8bFa3lmbNb9bofupZ31XrHutNhucY6X2dvKD23O90rrHVPneK53eelHQAAABh6BMAAAABAD0JgV21BPSGwVa2h4Jb6VPTG+IXA/TBuIbAkTUaJ1tJUz04f1tMnXtVvfuYB/dneR7Rr6pawfgc6cPaUvnHkgBauX9VEnGh70vmTReHc7tkkBHZ2WL6xtjcSAgMAAACjhltAAwAAAFLu8kDj2nJcRmh6XznqcvtwO2jfzq3W0FrvqS8ewzqZjZ+hQ7h+y18jqZmmlf5LTbs3vs7aNpzDG0eRkjhSEseZf/HG6yjOvWet76rLR0j2Y+ff8U7mvtjMeId/eH9vB70hMtJknGhqYlIvvndKp5cuhvSilO/NvKHLK9e1LUm6bves8Lnds+n9blS0lmfObtXrfuha3lVb2I3Qdb/itdzYm+2Nzqnjn9sDmOoAAADA0OIKYAAAAGCD94qi6q8ea1dyJbBv51ar9RTZrx4LvhK4agFBUdnbQS9dv6qXzrxdRe/azl5e6O5NJVcCf+lT92jX1I71hvwnRrkXflEkHXv/nJZuXHN1KtOUf8c7mfui7HiPwpXAGw2tsL76EzoRx13nwD6GhXO7Z9P73ahoLc+c3arX/dC1vKv2Zr8SGAAAAID0/wAAAP//7N3NjyR1HcDhb/fM7C67usBGlpfVuBvhwBI9KWS5IC5e8WyCxw3IgX+Fu9z4DzSe1+NiPHkAEtQYNWxYSEiIUROWmZ+Hmump6q6XX/dU9VRPP0/CpqvmW9XVXd1l5MNsCcAAAFAmAldXNc52zG9CBB5CbijKjIKffPFZvP3b9/OPeFL80Ta/M92J3Z1p+WhOHIHfufXz+NFT38s9yiy//t378adP/952UJVVWRG4bz1H/02KwOshApeGReCm2VP4DzwAAGDsBGAAAJgnAldXNc52zG9dBE5Zu18mCk4nkzi/s7vcPYEzIvBJo+D80sP9/fzjy3Rw0FRXTxCBh9Bz9N+YCLw2InBpWARumhWBAQCgwj2AAQAgIhaKRutiapxbXJ1a5xa2cU/gto2LtbmzrW/9UAUr73ynoz9zT2HufV9nO1/+fC97rlu36UnzR3yZ872GWjnA+c5/7tO5J/AQss/3Mt/t1st1/9fyyrvb93U/97tdmu08jNzrfs/X8lS/un5l41en/X+3AQBgmwnAAAAwIwJvVwTu18qhKPfgROD5nzSuWm8EHi765x+CCJwzWz8vAovAAABw9gjAAABQIQKLwKvb1gg8NBE4a1gEzpitnxeBz1QEBgAABGAAAFgkAovAqxOBh9FPBB6SCNwnEThrWARumwUAgC0mAAMAQHTEgM5FEVgEbnr24SLwcgeziRG45ls5wghc+wneggi8DiJw1rAI3DYLAABbSgAGAIBDInDTXOWBCJxp6AictuI3gUXg2bwIPP+T2kURuHu28zBEYAAA2HgCMAAAlIjATXOVB2ciAq/D0BF4PH8d9JBE4Nn8mY/Ay3y3a+ZF4OzZzsPY6AgMAAAIwAAAEJEfAzoXRWARuOmpRODV9ROBh7ZdEXgoInBlXgRunRWBAQCgngAMAABHROCMucqDzY7AQ+g7FC0RgbOJwIMSgfsgAlfmReDWWREYAAAWCcAAAFAmAmfMVR6IwJlPM3QEXi4KFn/0FoHX5oQReE1E4D6IwJV5Ebh1VgQGAIAqARgAAOaJwBlzlQcicObTrCMCZ7/CTYjAuaHoNEtl57kuLZ2lCLwWInBlXgRunRWBAQDgmAAMAAARsXIM6FwUgbcrAg8YinIP+4xE4KVDkQicMzz+CNx9YSjWisA5w1sZgQEAAAEYAABKRODSjkXglYnAfRGBM59aBG6fF4GzZzsPYxMiMAAAIAADAECVCFza8RmPwEMaRwTOJgKfwDLnurQkAjc/Xe2TicCVeRG4dRYAALadAAwAAAtE4NKOReCVnX4EPiv3BO4vAg9FBO6LCNw9OxsRgVtnAQBgmwnAAABQSwQu7VgEzrTWUJT7WkTgNRGB+yICd8/ORkTg1lkAANhWAjAAADQSgUs7FoEzbWsE7l/LOzmiCHxw+MzFP+n4cSqvP/6ndr5htrpN6pybzaeUNVc8d5o7pqa56jEPreES0bSiWJt3wen4mq143e/7u50xOxsRgVtnAQBgG+2e9gEAAMAYpBQxmdT+JCImtYtzP2mdXVxs3dHc6sNHDXML2zS/mMX5lGKSM1vsOFJM2g9hdowLR98y2zHfsaLmKds2LtYO3AhaPxs9ne/ixykiTTo/F8UGKdKk4/xVdr7s+R5CyzuZeb6X+DosbTqZxCO7exELzzqpfdgwcbyUcZyTyDzfEUu88OJNyvp0HL7500He1MUoWHOJaFpRrF3yWt6wl9rZ+mcd8Ls9xHU/97tdmi0dTdsBR80rbZirX7H0d/v48AAAgDkCMAAAHBKBuwbjTEXgoY01AmdHwWXO96DGG4GfvvxYvP3iq7PlZSPwKiZ977Cy88z/QCAinv7WY8McQ/NVUgRuIQJ3vRAAANguAjAAAJSIwF2DIQK3aT/1McT5XjYCp8PPRda7cZoROM0vnDwC9+3JS5fjlz98qf8dbz0R+HhKBO7YWAQGAIAa7gEMAABzlr2PZM1PWmcXF1t3NLc6tc4tbOOewG0bD6P91McQ5zsd/Zn7Eoe4J/AQGj4XC2tO83wzkMarZM6FoVi75LW8YS+Ni2v9bmfMzkbcExgAALaeAAwAADVE4Kwdb2QETinFzrT//ys0nUxiZzot3sMticApit8cH+Z+sOXnrl2orhGBN1/udztjdrZWBM4ZFoEBAOCMEYABAKCBCJy1442JwEfh9/KFC3H72RcaD3dV1x59PG4/+3xcvvBIEYIPWuLVwsHV73MdEThb6Xwfhd9Le+fj+atPx7VHH8/fzypE4O0hArfMi8AdG/u2AwDAIfcABgCAiCj+tfHJ7yNZv6fm2cXF1h3NrT581DC3sM2W3hM4HaTY3d2Ji3vn4tb3n4s3b92Om09e635tS3rq24/Fu6//Kj76/NN474M/xL1//DX++/Dr+OZgf/Zetn42ejrfxY9TLHNP4KxzHcV7OZ1O4pG983Hjynfizo9fiVd/cDNr22XVdqHmG8HWfcSaNmbsMr/bObOztUteyxv2Ujtb/6wDfrfdE7htYwAAIARgAAAoEYEr8xsegVNKsbOzE5f2zsWt68OF33k3r16Ld19/Iz76/H6898HdIgR/83V8s1+E4LFG4Jg0n78UKaaTaVzcOxfXrzwRd37ySvxsoPBbfd62871KBGZjiMC1ROCsjQEAYOsJwAAAUCECV+Y3MAKndBC7O7vFb/xefy7eWlP4nXfz6jPHIfje3bj3r8PfCN7fr4mtpx+BI6VIc8c1C7+76w2/lcOKPiMwG0UEriUCZ20MAABbTQAGAIAFInBlfkMicIoUuzs7pfD72qmE33k3rz4T7/7ijfjowf147493494/j0PwtPK+jicCxwjCb+WwQgTeFt0dVwQ+nhKBOzYGAICtJQADAEDEYOGgfk8icJ8ROKVS+L0xnvA77+aTh78RPBeC9/f3S+/t6UbgFCmmaRIXz50fRfgtE4G3hwgsAp8sAgMAAAIwAAAcEYHb50cWgefv8fvWy+MMv/PqQvD/Hh7fI/g0InD5r3q+ceWJuPPiT089/B6kFK2hb2GFCLzp9tPB7LEILAKvHoEBAAABGAAAou1fJovAlfkRRODiN36ncXHvQrx8/bl48+XX4oUNCL/z5kPwB6W/Grp4i4ePwGMMv0c+/erLw0c9RmBG7S9fPojWa4EIXEsEbnsyAADYTgIwAAAcEoHHHYFTSrE73YmL58+Vwu93s455zNpD8LQY6jkUpYOI6XQaF/fGF34jIvYPDuKzf38Vk+nRi+kpAjNa++kg/vPw4cIVQAQWgUVgAABYngAMAAAlIvD4InD5Hr+z8PvU5offeUch+OMH9+M3lRB8ULzXPZzv4kxM49K5vbhx5WrceWlc4ffIhw/u17zmk0dgxuvjLz476oaHRGAReH6ufoUIDAAAiwRgAACYIwKPIwKX7/F7lsPvvOdrQ/DD4jeCY7LS+U6RYhrV3/i9/ewL63g5K7n7tw+PF3qMwIzX7z/5c/FABG6YEIGzIzAAABD/BwAA///s3W2MHHUBx/HfPOzutaXWWsg1xBpqy1WwBaM82IIkQILUxEhEYoyGFyTEGkKM74yJ0RR95QsTH6K2RgVa3hBDFYyRQil4LW25thShEqSQ0tJSChTaXq+93Z3xxT7N7s7Df+529nZvv58X7e3Mf2em+985436ZHQIwAAAAEIIIPHMR2FfzPX7XDUj4bdUegg81vhraDnkPqn2+6/f47ZPwK0nnS0X9oxYDa4jAs9r758a19c2DjQVE4IgRRGDj+QYAAAAGHAEYAAAAkBT7sTwROH58hyJw01c9Lx0Z2PDbqjkEP9P4amiv3Pa616bXlydbjubm+yf8SpLn+/r1zqd08uyZ9vcUEXhWKnueNv9nlyZKJaM5JAITgZPmGwAAAAABGAAAAAggAjc9p0sRuPkevyNadwPhN0wlBH+7OQSXqlcEW7UZrt3jt6ClCy/Wvdff3BfhV6rE37Gjb+ov+0aVc5zwQUTgWcXzfe048roefnm38nbInBOBI0YQgU3mEAAAABhkBGAAAACgCRG46TkZRmDPl3KE39TaQvCRyhXBnudrbr6gTy+8RPde3x9X/NZcKJV04Phbuu/xh5RzbEkxb9FpRWD0islySS+9e1Q/3r5FOdtJPd9EYCIwERgAAACIRgAGAAAA2hCBm57T4Qjs+75c29HcQkFrLhvR9wi/U9Iago+f+bDvwm/Z8zRevKDNLz6vP409p8lyufpWSwhFU47AmEm+fJXKniZKk3r0lTH9dmy7CrlcdXrSzzcRmAjMyQ4AAACEIwADAAAAktEHyUTg6UXgxlc9F7RmKeG3U2ohuJ+UPU8TxUntPnJIv9zxpN744KRyjtNyfvV+BC57lZjZPf0bt3z5Onb6Q+1/54gePLBT7507qyE3N+35JgITgdvnEAAAAAABGAAAAKghAkeaTgT2Vb3it0/Db7Fcjr4nLVIJht+NLzynA8cPK+e4yre+vllF4A577b139PNnnzAbbDX91b7C6GHy+Rc63rQbG44z+qr3wEYtSzozeUFvnDop27KUs53mc4oITASOPmDFznXkQgAAAGCwEYABAACAICJwpKlEYEmamy/opmVX9F34PV8s6uT4ab1w5A3devlnNSeXV97h/0JNRXP4fVYvHj8s13FVcHPRT8oiAnfYeHFSB0++HbHWat97aI/128dGRuCWsRH/uNDxCS9EfbXh+V0ZZlqMJUtW5YrfKERgInD0ASt2riMXAgAAAIOLTy8AAAAApY8BRODkT9p9+booP6Sf3H6nvn7VdYnje0Ut/D48tkOP7Nup8eJ5LZ6/QOtW36o7Vl1DCE6hLfweOyzXcVRwcmZvuR6PwJW0asecDiEr2tqtFT429GHI2NgI3DLeKAInx+L6+DRXAhsHxMYPRODElS2LicBEYAAAAKCCTy0AAACAKiJwZ2PAvFxBv/jad3TbilXxG+wRjfA7qkf27dBEqVSJlW5OH5wb1/qtj+n3zz+tdWtu1R0rCcFxIsNv8ApQ01DU4xFYSnFuBxZ179yO3WnIc3zJN4vAUff7jhgs3zKNgk1HQwQmAqeLwAAAAAAIwAAAAEAQEbgzMcC1bf107Tf6Iv6eLxZ18uxpPby3Fn6Lch1HOceuj7EsSznH1alz41r/r2oIXk0IblX2PJ0rTmpPXPgN6nIEzhIR2AAR2Ghs+F6JwMYRGAAAAAABGAAAAGhFBJ5+DLhp2RU9/7XPTeF3bzD8OoFRLS+EZSnvujo1Pq71TxKCa4Lhd8Oe7ZXw6ybc47emixE4a0RgA0Rgo7HheyUCE4EBAAAAM4P56QQAAADQZnoxgAjcGGhblu7/0pfjnziDguF3czX85oLh1yQUWZbytSuCtw5uCA4Nv4Erfo3DDBGYCBx9EJrqfBOBicAAAADAoBqMTyUAAAAAI0TgTkTgpZ+4RKsu/VT8k2ZAc/gdjbjit8owFFkazBA8WS7pQqkUGX7rTCOR1McROOSsJAKbDCYCG4wN3ysRmAgMAAAAxJudn0YAAAAAU0YEnm4EvuXylfGDu6wefsdGtXnfqCaKRblue/idcijyNTBXBE+WS5ooTurvB/frif/u14vH34q/x68qUVAmoU/qQgTOChG4Pp4IHHdQROAuRGAAAAAABGAAAACgIuYTfyJwuhjwsTlz4gd2SWj4rV3x2+lQVP2hPQRv07rVt/R9CK6F378d3K+Nu5/Ru+On5dq2Ck7O7JI709AnZRyBs0QEro8nAscdFBE44wgMAAAAgAAMAAAANBCBI7aWLgZcu2RZ/KCMVcLvR3pobEc9/ObCvuo5owgsBUPwWa3fuqVvQ3BY+M3ZTuD4zaMgETh5LBE4aZymMN9EYCIwAAAAMHj641MHAAAAoFuIwBFbM48BZd+LH5CRRvgNueI3SoYRWKqFYKd6RXD/hOB6+H1lvzbuCQu/FWmj4IzfE7griMD18UTguIMiAmcWgQEAAAD05qcNAAAAwEwiAkdszTwGdFNT+N0bHX67FopCdmRZCnw1dO+G4Eb43Ve94vdMaPgNyjYKqrMROAuhOyMC18cTgeMOigicSQQGAAAA0BufMgAAAAC9hggcsbXeicCJ4TfkhZ/JCCz5LfcI7p0QHAy/G6pf9Zy3HeUdR1lFQc3U10FngQgciwgce1BE4E5HYAAAAAAEYAAAACASEThiazMbgYPhd9PeUZ2P+6rnHozAktUzITgs/LZf8ZtNFJzRewJ3kMl8Ny0hApsMJgIbjA3fKxEYAAAAAAEYAAAAkJQ+CiasCt0iEXh66uH3hVFt2vvvyhW/riPXcVJFweafosYmjO9ABJbUFoL/sGubvvvF7ENwU/jdVQ2/TtQ9fgM/EYFNdhm1trGECGwymAhsMDZ8r0RgAAAAYNARgAEAAIAqInDihloWdy8CH/volP68+9lG+K1d8TvFKNj8U9TYhPEdisBSIwR/MD6uBwIh+M5V1+miwlDcvyy1ieKkHn1pjzbs2la94tc1uMdv4KcMIrBRJKpvnAgcOZYIrNj5JgJHjCACAwAAALONPdMHAAAAAPQGP/Bn5OqwB3GrQrfoR64K37tvdlBND2P2avAwdkMti/3YcZ3y/cce1MZd21T0POVar/j1K38kHkLIC592vpOnLOKVDN1R+0LLspSrXhH8wFNb9IPHN0Ud4ZRt2PWMfvb0Fp2aGFfecZvbTIfmu342Gb4vfN9g/po2nn6+M36Lhu0yam1jiem5HVjUvXM7dqcho9LNtzHT94bpfHf63DZ7cmVpyt/lEVuJfBj73uj0uW0wtj7EdL5Nz+3AWMPDAAAAAAYOARgAAACoIwIbbqhlcfYRuODm2sNv28HMjghcUbkieLJUjjq6Kcs5jnKO23IVZoahyPR90YUI3A1E4Phx9fFE4PjxRGDjsYaHAQAAAAwUAjAAAAAgTTscJKwK3SIRuMNmWQT2/Wy/2rSroWhWR+A053bEeCKwyeCORWC/srnK3/Lly6v+HfypdXvhC4jAyWPrQ4jAAAAAQNdwD2AAAACgxte07iOZsCpsQesuY8dK6p97AneYcSjyNSvuCVxfmnHRiH1vpJnvDt8T2Oi+r/WNp5nvrKQ5tyPGm57bgUXdO7djdxryHPP57sY9gb36MUmObcu1HVmWZMmS6wT/u/jGlkteWZ7vy/N8lbxyZVV939P7vV/9p3BP4OTByed2YGztaAAAAAAQgAEAAIBmROCQh2nDQTaMQ9Esi8BZ69UIbBSJ6hs3nO9MEYGbR818BPbly7Er99XO2Y5ytqPlCy/R1YuX6KJcQfPyeS1fOBx6jAdOHNWJ8Y/0ztnTOnDiqEpeWZNeWcVyWZ7vVeeJCNyLERgAAAAAARgAAABoRwQOeZg2FGWDCNwh8VOvdPOdXRRUp68EzkL8yU4E7nIE9qvr866rguPqMxcv1o1LLtfVw0u04uJhs+1LWrGoeexr75/Q6JHXtfPoIb195kOdLxU1WS5Jll0/DiJwr0RgAAAAAARgAAAAIAwROOShWTjIGhG4Q/ogAmfyddBZIAKHmokIPOTmNOS4Wrt8pb68fGVbyJ2qkUXDGlk0rHs+d4OOnTmlv766X/889LIulEu6UCo3DktE4BmPwAAAAAAIwAAAAEAkInDIw+Rw0A1E4A4hAncOEThUNyKw5CtnOxqeN193XXmt7rzi83JsO/HpU3Xp/IW6/9pbdPdVq/XkoYN69NUxvTt+VkWvLKv1fyuIwPHjs4jAAAAAAAjAAAAAQCwicMhDInD3InBWouewVyNwx+8JnAUicKgsI7DlS/MKQ7r5shW675qbtWBojtHzOmFBYY7uuvILum3Zlfrd3u3afvh/Ojt5QVL63/sSETgRERgAAAAwlt1/EgsAAADMFn7zD5FZzo98ELcqdIt+5KrwvftmB9X0MGavBg9jN9Q1fvQ/vGVg5Y/E0SEvfNr5Tp6yiFcydEdZR+Dw3cS+NyIOqe0VSDj0+tlkOoW+wfw1bTzF+GmIn94053bEeNNzO7Ao63M7dHwG8520Pdd2NLJoWL9Z+y396MavdDX+Bi0ozNEP16zVr277pj45/+NybFu+0v/el9L/Lo/YSuTDrp7bBmPrQzr9uxwAAAAYcARgAAAAQAafUROBQx4SgbsTgbPUXxFYRODEsYMQgX1JBcfV7ctX6o9fvVsrFi0222DGRhYNa9Md9+jGJcs15LpEYCIwAAAAMGP+DwAA///s3X2MHHUdx/HPzOwe99D22qv0QXrHkfaoPAhtD2tLS1uMhEIJmFiDjYGgomJioiDBZ4N/+JeJiSH6hyb+hTQQxJhghAjCH1KBQCkFKVQe29qHoxy1tr3S6+34x+7t7ew8/WZ3Zh/u3q+/dma/t/Pr7c6Q3Ju5IwADAAAAkmoJg0Tg2BdqGCJwPYjAaSACNyYCu5J68h269fI1+tFV1yvnOGYv1CA529HPN92kO1ZuUE++gwhMBAYAAACaggAMAAAAlBGBTWb9m0TgdorAsaGICFwzInC2EXgy/v50ww366sqrzL64Sb5w8bB+vP56InCC2fIIERgAAACoGwEYAAAAkDwlhggcP+vfbI0fwROBzUyXCGzMNVhAzWLOBCJwxNeYv98F1y3H342Dy82+qMk2DAwRgVXxXhvMlkeIwAAAAEBdCMAAAADAJCJw60bgBLFvWkXgLJiGojaIwG7iO4GzQgTOOgJ3OE5bxd9JkxH4HCcniQhsMlseIQIDAAAANSMAAwAAAJWIwETg0DnPAyJwzKx/dzYRONGvg84UETirCJyzHW29aLjt4u+kDQNDuuXST8uxiz+CIQLHz5ZHiMAAAABATQjAAAAAQDUicEtG4EQxQETgWETgdJie2zGznj1EYI/Nyy7Rt9d8NvpFWtyXV1ypdUuWlreJwPGz5ZGE13IAAAAABGAAAAAgGBG4zlCUjZkYgTNFBE4HETh+vsb3e0HPHN2zbnP0F7eJezfeoIU9s8vbROD42fJIoms5AAAAAAIwAAAAEIYITAQOnfM8IALHzPp3ZxeBm4YIHD+f8P12bFt3rb1GHaW/n9vuOuycfrjuuvKvgpaIwCaz5ZFmnt8AAABAmyEAAwAAAFGIwIlDUSMQgeuRJApW7W2DCOxyJ3DsbLtE4HX9y7SpTf/ub5jhxefryiUXePYRgeNnyyNEYAAAAMAIARgAAACIQwQmAofOeR4QgWNm/buzicD8Ouj42VaPwB2OrR+svy56sE3ds3az8o73xzFE4PjZ8ggRGAAAAIhFAAYAAABMEIGJwKFzngcZROCsEIHrVfe5HTPr2TPDIvBNn1ipeV090UNtal5ntz534QrVe92XiMAAAAAAghGAAQAAABk2JSIwETh0zvOACBwz69+dXQTOGhG4aiuFCJyzbW29ZDj4yWnilk+uUd52RASufJoIDAAAAKQl1+wFAAAAAC3BdeValqzYOak45MpVzHzFrGRNbYbO+TaingraUX3IyFmp+PNzK35Rns2IozaNK8kK/8f4511Xlsls8YUTv9feR2GzMfMNjcBW4K6QT43CPgyRn42Qb4jvOxDzcSqfTa5l9LFzS5+LbD6hbvlvDtd1bsfMevYEHixg3vTcrtgVe25HbiZ5ryMPqjVLlur83o8FLX7a6Ovq0abB5frb26+p3uu+lPxaHntuV2029Nw2mC3PJ7juAwAAADMJARgAAACYRASOWlRzI7DhHWFE4FpN7wg8eW6nLWc76uvu0eQiQo9ghW74vyZi1rPHIAJLUadDwBNW7FENXskKeyJ6vmLnzZeujjxeGgquq48mzmqiUNDZwkRpCZYc21aH4yjvOHFnfN029g/pibdfq7j7lQhMBAYAAADSQQAGAAAAKhGBoxbV/AiccgxoiwicgeBv0fSPwGlbsXhAT93+/dRfF9kpuK5OjZ/R60cP6bE3X9WboyPadXi/ZFma3XGOlvUt0Pr+ZVo/MKT+3j515zsyW8umweWa93y3RsdOlfYQgaemiMAAAABAPQjAAAAAQDUicNSiDGJAhojAqZmRERgz2vjEhHYfOaD7nn9SLx85oJxty7ZsdZUi77jras/Rw3p15KB+/cLTunbpJfrW6qu1eNZc2RnFxY39F+pPe3dV7CECT00RgQEAAIBa2c1eAAAAANCSSn/XM35u6kHsvOt9EDrvhm5EPRX4im7oU8FHD79J0g3dzDj5+g9qcEBXSnTHp2s6W3zhxO+191HYrOF8ndyK1w7+ZwfsjPzWh38YIj6Rof9A33cg5htRPpsa90FEGxqfmNAf9+zUnY8/qD1HD6szl1fOdjxh1yr9zyB5x1FnLq8n33ld2x7+rV46vE+FDO4gl6QViwZir89Jr/tS8mt57LldtdnQc9tgtjyS0fsEAAAAtBsCMAAAABCGCBw938AInDQclEfaPAJnoSuXV1cuXz4SERjTXcF19cjrO/WLHY/pTGEi+m7eiut+zrY17rq66/EHtevIvkzWdtnCJVO/MMC7kPAtInDMPAAAAAACMAAAABCFCBw9TwQ2mPM8aHoE/tKqdbpz43UamDu/HIILRGBMY7uP7Ndvnn9KHU7O7DeFV1z3LUlnCgX95O9/1gdjJ1Jf27nds9Tb2VU6rm8h4VtEYAAAAAARCMAAAABAHCJw9DwR2GDO86CpEbgzn9etw+v1l9vv9oRgN7CdEoHR3ibcgn717BM6PXHW/NyWfBF4dOyk7t/9XCYfraG+BRXH9S0kfIsIDAAAACAEARgAAAAwQQSOnicCG8x5HjQ1AktSznZ8IbjTmfrV0JFrIAKjTbw2clD/ev9Q+c7fmiOwZen+V57VsbGTaS9RC2f1Vh3Xt5DwLSIwAAAAgAAEYAAAAMAUETh6voE/kJ9ZEThb1SG4v3e+528Ehy6ICIw28Nc3X/H9zd9aI3DedvT0e3vTW1zJwp45BpdjIvDU00RgAAAAIA4BGAAAAJDMf5BMBI6eJwIbzHketEQElrwh+DsbvH8jOPSTSQRGi/v36Ejg/loj8O4j++tfVMDrSyaXYyLw1NNEYAAAACAKARgAAACQlCgUEYGN5huBCJy+yRD86Ffu1p2+EFzwfwERGC3srdH3Q5+rJQKPnPhf/Yuq0tvZNXUY33GjdxCB42cBAACAmYgADAAAAKiGUEQENppPVUrhoDzSLhG4SXKOo1t8IbhDxX9fjaGICIwGOzV+JvL5pBFYVb9OOg2DvfMVeS0gAkfME4EBAACAIARgAAAAoIQIHD8rEYENXziVCFxIEqcyEhyCq/9GsGK+9S0SgTHjzO3sjp1JEoHt9Puv3hg9MrmS8j4iMBEYAAAAqAcBGAAAAKhABI6flZoRgdMPB+WRFo7A+46NtkQEloJCcJ8/BLd8BMZMc9H8RUZzpud2/5y+epYTaOxM5V3KRGAiMAAAAFA/AjAAAABQhQgcPysl6qYpmXkR+PDxD/Xu6Ijx2hrBG4I3++8IbuEIjJln0wXLjT8XJuf2psHlda7Ir+BW//eGCFxXBAYAAABAAAYAAACCEIHjZyUisOEL1xyBLcvSQ7ueM15XI02F4O/6QzARGC3iyoFlyjt2KhH43O7ZWn3eBSmtbMrBE/8tHdyzkoBHZjuIwAAAAAAIwAAAAEAIInD8rNSYCBz6L5oBEXj7Szt0+Pgx43U1WmgILp06RGA007nds/X5i4aV5FoedG7blqVvXLEh3cWVHKw8v4nAIRNJIjAAAAAAAjAAAAAQgQgcPysRgQ1fuKYIfGp8XN97dLvOTJw1XlczBIZgp3hHcCHwK4jAaIxvfupqLZ41V/VE4FWLBrRl6LLU1zbhFvTyyIGqgwdvEIE5twEAAABTBGAAAAAgBhE4flYiAhu+cOL32pL0j3f26oGdz2hs/IzxuprFF4J7i3cEB98NTARG9s7J5XTflm1aPGuuLMv89C64rmzL0pLZ8/TLa2/OZG1vHD0i27L8TxCBQyY4twEAAAATBGAAAADAABE4flYiAhu+cOL32rFt3fvYI/rZ44/o+OkxTRSC76ltJZ4QfFXxjuDOyb8R7JkkAiN7S+b06b4t2zQ0f6E6c7nQy3nxf1QoPtOdy2vV4gFt3/p15R0nk3XtPPRe4ms5EZhzGwAAAIiTa/YCAAAAgJbgqnirZeyIK7lW7GzxC1y5lhU/Wj62K1cx8xWzpdUEz3ue8E5FPBW0o/qQkbOZCegIgf+ikCVN7S49Mn2/XVcKujsvaN51ZZnMFl848XvdkcvpwV3P6oX9b+mez9yotYND6s53yLFb+//rnQzB21as1faX/6k/7Nyh908c1+mz4/73pephwGbkrH/C/P2uhSup0AYxvt1k9ZleMqdPv7/xNj2850U9/OoLGj19SuPuhAoVtdOxbOVtR31dPbptxZXacmH6v/Z5kivpxUPvlh8nuZbHX47ru+5LxQgcfEkLPklDXiVwNviorXNuAwAAAO2OAAwAAABIkmHYJQLHz2YmMgzOjAicdxy9++EH+tpDv9PweYO6Y9017RWCV63XtsuLIfiBnTs0cuK4Ppo4W7qDugEROGXHxk5p53/eSfdFLe8D87OrgRWshkP5vyT8RdadP6SOjO64zTmOvnjpam29+Ao9s2+vdh3ar8Mnj5efX9q3QCsX9Wv444OZHL/SsbGT2nHg7dK5m/xaTgQmAgMAAABh/g8AAP//7N19jBz1fcfxz+83e77DNgQwNTkMtuNUTVRIayCUtqSAkkZKVCVS2qZFFRKhVSo1KfzTIlU0VZKqD+k/fVAFaUPVBEdJK4wak5aWBtvhyTHGMT4bbE7Fxr47x5x99sH5/HC+3dnpH7O3u7Pz9Nu73dtd3/v1R9j57Xdnxje3J8Vvzx4BGAAAAKgiAqe8MOmQmbNtQwSWNUb9hT7tHx+7JELwP/1om96dOV95ts0RuMXePDWuLzy1SXLduwn/J3fWNQKb1I34azJmEw6Z8GzD/jP/ECZxM/klJvbw4Tt/Tfd86BeyDrBgBWt11/oP6q71H2zrcbJsOzIsz8y9X+f3s5wITAQGAAAAkhCAAQAAADX8ZTIROG2BCNwlEViSrLEaKNieDsH33vIRPb77xboALLU3AreWNUb9XkFyeW/P6ekI3LDidlKRpYyjVje/NbRDn73xw13/PbwQfrmsJw/uCTcW+LOcCEwEBgAAABpduv9vCgAAAGhSUP/IoRUFTcyGo4HbaFB7kDsfRB+kzgepG1lPJe4xSH2q9YGtuuegHP1qNBwq9U+UckpB4yPX6x24/xkD19lwx01f67lHnrEaqLsj+L7vPKptbx7Q9MUZ+V3++2m/s2eHfnLmnYRnXK919mzOcuu4vreleV/vBb+3c2YTDpn14nDF7aQiS5nXr7J56ty0do4dTtv5JeHlY2/p6NTp2sICr3f+j+OF/dyXmrjemT9W09/QC3tvu/8sBwAAAJYCAjAAAABQhwictIPOR+DLBy7TZX3LMo+9lCOw1HsheNYv6Ru7tssYkx+KiMDRzdS5+FQvRmAjo8f2PN+V37et4JfL+tehHbKNt9QSgVsTgQEAAAAQgAEAAIBGROCkHTQbilrrkd/6PT30sU9r3dWroiGYCNzwKCEEf7c7Q/ATQ7s0cXbaPRS1IAK3HRE4d9Y1Ar9+4rh2jB5K23FP2zl2WAcmjic/SQQmAgMAAAAtQAAGAAAAEhCBk3bQuQi8zCvod3/xbm39wz/TQx/7lNZdfU0tBBOBGx6FqiH47TF9fnN3heD6u38lEYGd5moPlkIEtsbo73c+q5lSMW3HPWmmVNQ/7t4ev/u3HhF4gREYAAAAAAEYAAAASEEETtpB5yKwJBWsVwnBX4qG4CAaJIjANZ6xGvC6KwQ/MfRyePdvPSKww1ztwVKIwCPvntaju7ar3MT7rJuVg0D//OPndXRqMn+YCEwEBgAAABaAAAwAAABkIAIn7aCzEVjKCMF1p0AEjop8NPTmx3Tfd7/ekRBcu/s34UkisMNc7cGlHoGtMdq0b6eG3h5L22lP2Tc+pi3DQ7Jy/LYkAnfnexsAAADoAQRgAAAAQMr8i2QicNIOOh+BpYQQfGU0BBOB47O1EDyqz2/+l0UPwdG7f5uJgg2rRODoZupcfKqXInCf9fQXz31fJ85Ope20J0ycO6O/ful/dMGvfKT1PH7uRzZT56IbRGAAAABgaSIAAwAAAHOIwLGpeUfgRVYNwQ98SQ999FNad1UtBEeTJhF47okwBBcqdwQvTgiO/e7ftDMlAjvM1R5c6hF4ZGpSX93+fZ0vzqbttKudL87qb3c+q5Gp04rc+E4EdppNnu+C9zYAAADQxQjAAAAAgCSX2EcETtpBfI9F3887q7aJ3BFcF4IDpeSQJR6BJckzpu6jodsbgp8Yelknp6cTnlmkCNwpRODc2awIbI3Ry8fe0pe3b9FFv5S20650vjirP3/+P7X1yLBs0ueeE4GdZpPnicAAAABAGm/5Fau/0umTAAAAADrN3rSm8shE/pPE1D/KmIvOu82Go8Zt1NQe5M6b6IPUeZO6kfVUZOG6K6/SHRs+kHdGbWWN1c3Xr9e9t/2KVi4b0MjkhC76JfllX4ESvgopXxDT+Mj1eif+gtuUedfZcMdNX+voo7TZ8GtWsJ7Gz07pqdf3aNfIIa1acblWX/4eFaxNjldNmPVLenDLJl0ohh+Bm7y7hMXML336NYzPG33hl3/V4UzdHT/zrp468Grr39vSvK/3gt/bObMJh8x6cbjidlKRpcZnrLE6NDmhgvX0s6uvU5/npe20a8zF321HhlWwOf/+fh4/9yObqXPRjexrHV9w/bkfWXW93q7v7YbNjO9IyUgTW/emnQAAAACwZHAHMAAAABDBncApG853hI29cyrvbBZN4x3Ba6+q/x3BdXe3cidwdcMzVv2FPr02Pqbfb+EdwdHf/Zv2JerFO4Hb8N6u7JY7gaNPFKzV11/5ob68fYvOzV5M22lXOF+c1Vefc4y/EncCO84mz3MnMAAAANCIO4ABAAAASeamNcn3PXEncGwq746wqfPndf8v3S1ruuffm9bfEbyiekewr1L1juDs672U7gSufm8Yo74W3RHcePdv5GiLeCdwO+4A3nLw1fa9tyu75U7gGs+GdwIfPHlctw6u08pl/e7vnUVQDgKNn5vS37z0jLYdeUMFa5s7P+4EdppNng9XuAMYAAAAIAADAAAAksIALKX8lTcRODaVFQOmL85o45r12nDNtXlnsuiSPxq6qFK5XPtoaCJwZMMaE/1o6NFDWrW8uRD8b3t/pGeG96X++RYrArflI6APvlp3DCJwxovDlRZEYGusxqYmtWP0kDYOrtXK/gEVbOc/EnqmVNT+E2N6eNv3tHd8NHLnLxE4Z76FEZgADAAAABCAAQAAAEm1ACwRgZPn4lNpTxkjHZ2c0G9svL0rokySaAi+TCOTJ3XRL9VCMBE4Nl8NwdNTeupA5Y5ghxAc3v37eN3dv52LwO0MwLVDEoEzXhyutCgCvztzQf81vF/nixd107XXt+R3Vc+HXy7r3OxFfePVF/R3O7dq8sI5eQkf+0wEzplvUQSe2DqUdkAAAABgySAAAwAAAIoGYIkInDwXn0p76vjUpPo8T7eu3ZAYQrpFNAT3a2TyVBiCfV9ByuVZyhFYaj4Eh3f/7m/4M3UmAn+xzQG4dkgicMaLw5UWRGBjjHwF2js+qh++9YYGL79S1668QtaYRQnBfrms88VZ7Tx2WA9v/w+9MPKmAinz2ETgnPkWRGACMAAAAEAABgAAACTFA7BEBE6ei08lPWWN0QuH39CqFVfoxsHru/ZO4DlhCH6f7r3tI7WPhi6V6n5HcNRSj8BSJQR7lY+GTgnBs35JD37vcV0oxX/3byci8GIE4NohicAZLw5XWhGBZeQZq6mLF/T0/+3X2PSkltmCrlm+UtaYtvwDlKLvh+H3J4f1V88/rU1DO3V2djb8fb8OrycC58wvMAITgAEAAAACMAAAACBJMjeuyWoO0S0icGwq6SnPWv1geL/6CwXdOHiDCtbryMezNqN2R3AlBJ+eqHw0dDwEE4FDkd8RfGCPdo0c1qrlK7X68vfoyX2v6H+H94dn5hp21b4IvFgBuHZIInDGi8OVFkRgycgYo4K1OnR6Qv/95mt67siwjJGuHlhRjcDGmObia0U5CFQs+5opFXXy3Bk9c+h1/eWLT+vfX9utyZlzKniebOWauF5EInDO/AIiMAEYAAAAkMw1198UdPokAAAAgE6zv31b+IAIHN1MnYtPpT0165d0yw0b9MCdn9Qd7/+AVizr7+qPha5XKvv69isvatPuF3Ti7BnNFGcjIZgIHF/wg7KKflm3rFmvk2endOrc2aajoNSeCHzgj76WODVfPz52RPdvfiz1eSJw7oHClRZF4HplBSqVfS0vLNPGwbW6eXCtbh5cp59etVp91koKg/GcPuupWPZrrw+Cavg9fPqk9r49qr3jo3pp7JC8yj96aPwHLc1ebyJwzvw8I/DBP/lm2gEAAACAJYMADAAAAKguAEtE4DZEYL8cRsEPr3u/HrjzE70Zgne/qE2v1ELwHCJw8oIfBLKq3XHZDRH4wB+3OACPHdH9T6YH4NrRicAZLw5X2hCBZaRAUrlcrgTd8L+3DK6VZLTxvWurczcPrtXet0erLx0/O6UT01PaOz4qY4w8EwZfz8v+mUUEzn1xuNrGCEwABgAAAAjAAAAAgKSGACwRgdsQgSXJLwcq+v4lEYKPn3lHs35JJvJ1JQJnLXQ6ArclAG9+LPd6E4FzDxSutCkCN26Wg0BSIL/ub0PKQSBr67+3TRh8Iyfl9v4mAue+OFxtUwQmAAMAAABSb/wtCwAAANB2QeZmfClInYvPB5lz0Xm32XA0cBsNag9y54Pog9T5IHUj6yl51migr0/7jh3Vfd9+RPd88x/0gzf268zMBfnlct7ZdVzBerr/9rv17Bf/VJ/50G1a0devMCXNyf++iEwG7v8eN3CdDXfc9LWOPkqbzZnPWUg4ZNaLw1XX2cwvfbv+3bPb9W7be7u68w68t3NmEw6Z9eJwxe2kIksZR03dtMbIGqs+a9VnPfVZT/1eofq4z3oqWCtrTNM/92tPu19v5/d2ONz0z/3IZupcdGPe7223F4errte7mfc2tzgAAAAAkgjAAAAAQB0icONsZDN1Lj6VFwM8axND8HQPheCvffp39JVPflYDhT5JRGDXBSKw626JwHmzC4nAiVspxyYCuy10TQQGAAAAQAAGAAAAoojAjbORzdS5+JRLDOj1EPybG2/XH9zx8epHWBOB3RY6F4Fbq9nrTQTOPVC4QgR2GSYCO+wbAAAAWKoIwAAAAEAMEbhxNrKZOhefco0BcyF46NhRfW4uBA/3Rgh+8K5P6NYb3lfdJgK7LRCBXQ9ABM6bJQLnzcXOJmcuukEEBgAAAHoPARgAAABQ8+EgvkQETtloKgZ41qq/ckfw5zY9onu+1Rsh+OGPf0bWmOo2EdhtgQjsegAicN4sEThvLnY2OXPRDSIwAAAA0FsIwAAAAEAFETh/NrKZOhefajYG2LmPhh6r3BHc5SH4565bqw2rVkfWiMBuC0Rg1wMQgfNmicB5c7GzyZmLbvROBAYAAABAAAYAAACkeYeD+BIROGWj6RgQqPLR0IXKHcFdHoJ//edvj60Rgd0WiMCuByAC580SgfPmYmeTMxfdIAIDAAAAvYEADAAAAMwhAjvPRjZT5+JT84nAkuSZyh3BXRyCf+an3pu4TgR2W1iMCLwYiMD5swmHzHpxuEIEdhkmAgMAAACQRAAGAAAAoojAzrORzdS5+NR8I7CCyh3BXRqCVy4bcAhFROCsBSKw6wGIwHmzROC8udjZ5MxFN4jAAAAAQHcjAAMAAACNiMDOs5HN1Ln41EIisNQYgh/tihCcHbOIwK4LbY3A7dCi600Ezj1QuEIEdhkmAgMAAABLHAEYAAAASEIEdp6NbKbOxacWGoGluRBc0L5jI10QgpsJRUTgrAUisOtxicB5s0TgvLnY2eTMRTe6MQIDAAAAIAADAAAAFa0LB/ElInDKRksisCR51lTuCO50CCYCE4HTlonAGc8SgYnAaQvhKhEYAAAAaAoBGAAAAKgiAkdPpLcisBTUfTR0J0MwEXhpReDWX28icO6BwhUisMvw0ovAAAAAAPT/AAAA///s3UuIXXcdwPHfmZk8mhqn1tZqzMJUiakLBau4sJXajSmIGwWr0oXoQhClUNduXBbcuasrQVwoSnEhCCLVjVCpVNGmim0wfYmxrzQmk8w9Ls487v/e//+ccyf3zPPzCaH3/O/vPGbuPbd0vm0jAAMAQEIETi9k70XgiNgFIVgEFoFLEyJwy7MisAhcWmhWRWAAAOhFAAYAgCkicHohezMCR+RD8K/PNSF4CFsPRSJw28L8IvCQRODChggsAhcXRGAAABiGAAwAAFkicHohezcCR+RD8FBE4NJsx7wI3DIvArfs3KyIwH2GRWAAADggBGAAAIjij5iLSyJw92yyWZybnhoqAkc0IfjI0qF4+oXzpSubCxG4NNsxvwcjcOtngQhcfqpjNnPKtp2bFRG4z/ABiMAAAIAADAAAES0/axeB0wvZ+xE4ImKhGv4fhUTg0mzH/B6LwHVEjNb+uvl7/Vdz7nrq+fF91n4V5tL5Ouq1e7bzd13HKPrONsden2/9Ysce3PC93TGbOWXbzs1Kv4tKlmb9LN/6vd160sxU/89yERgAABi3tNMXAAAAu0YdUVcRVe6JydW1pelnJlbKu3YdKDNfvMDMfL/ZZoc66qrqHt24kDrq6Jgfm127mvx88kT2O5N7KrcwecrW2cG0vvxjW4VLSl7rjvdFsk9dR1T9vsa6rqPqM9sceObXOn1Umu2Y71gov9blsw8RihaqKm5aOrSxPX3WKvswP1G1zqVTPe/tiIg+93Zy8CpWR6NYrUcxGo2m95/3vd0xmzll24maleLtML/P8q3f260nzezT/7O8973dDM/8ub+V13vL93a/nde/lL4ffwAAcGAIwAAAME4E7nPgEIFbiMDpUnG2Y36ACDxv712+NR6+52yy1nrWzkvqd83V1IP5HHd99Nn/vBR/v/hKXHjt1bhyfSWuXr+evl9E4MymCCwCAwDA7iEAAwDAJBG4z4FDBG4hAqdLxdmO+V0egd99fDkeuvuTg55jJ114/b/xk6f/EI//9am4tHIlRuP/GbUInNkUgUVgAADYHfwZwAAAkFM3P2LOPlFYmn6mbt2cXioeKDNfvMDMfL/ZZvRg/pnAg2h9+evi3PRy9/simfRnArftzAxOLt8a37n3gfjxg9+Ij508FQuTdW3e93bHbOaUbTs3K/0uKlma9bN86/d260kzU/0/y/2ZwAAAcLAJwAAAEBGlGCACdx44ROCWY4vAE49Ksx3zIvCOOrl8a/zgcw+JwL03ReCdjMAAAIAADAAAY0TgzR1E4K0TgUXg/efQ4pIILAKPX0Rs9fUWgQEAYHgCMAAAJETgzR32ewQekggsAu8/InBmRQRON4tz6YYIDAAAwxKAAQBgigi8uYMI3Nf2hSIRuG1hZ4L/wSECZ1ZE4HSzOJduiMAAADAcARgAALJE4M0dROC+RODSXPJABN7jRODMigicbhbn0g0RGAAAhiEAAwBARO9wIAL3OnCIwC0rIvDEo9Jsx7wIvKNE4MyKCJxuFufSDREYAADmTwAGAIDY6FilZ6aWRODOA8euj8ADEoFLc8kDEXiPE4EzKyJwulmcSzfmG4EBAAABGAAA1ojAPYjA7Vr7jggsAu8/InBmRQRON4tz6YYIDAAA8yMAAwDAGBG4h30SgQcjAveYSx5sbyhi7kTgzIoInG4W59INERgAAOZDAAYAgAkicA8icDsRuMdc8kAE3uNE4MyKCJxuFufSDREYAABunAAMAAAZInAPInA7EbjHXPJg8FDEsETgzIoInG4W59IN/4IHAADcGAEYAAAiovhjfBG4YwcRuPXYInCPueSBCLzHicCZFRE43SzOpRsiMAAAbJ0ADAAAG0TgzXkReOtE4LEDi8AHkAicWRGB083iXLohAgMAwNYIwAAAkBCBN+f3ewQekgg8dmAR+AASgTMrInC6WZxLN9zbAAAwOwEYAACmiMCb8yLw1onAYwfeJRGY7SQCZ1ZE4HSzOJduiMAAADAbARgAACJ6/TBZBO5BBJ4gAo8dWAQ+gETgzIoInG4W59INERgAAPoTgAEAYJ0I3DIvAm+dCDx2YBH4ALrRCFxH85asNx6Pol57L9URMcrtkN/InbJt52ZFBO4zLAIDAMAusrTTFwAAALtKHRFV60KzMr2cnY06oq4yo4XZqIpn7LNr14Ey88ULzMz3m212qKOuqu7RjQupo46O+bHZtavJzydPZL8zg6nriMm+lT3z2Oasr3fxKyp8cclr3fG+SPYpfzHT83UdVZ/ZtZtn1tc6fVSa7ZgfoAutjkZx+drK/A+8TRaqKm4+fGRbzrUegb/5+I/iyQvPxWg8Lk683qNYe/9FxOLCQvO7av799WqhisVqIUb1KEbr3bOu43o9itFo1ETLKiLqauzt23KX9fws731vjy1t373detLMPv0/y3vf283wzJ/7W/ks7/G3aQAAOPAEYAAAmCQCt8yLwF1E4K7B2LkIPGfP/PvF+O6vftb3W9RcTLX22ZF9Mp1rP1D3qZJHmV2OHz4a3/vM5+PE29/Rebx5aIvAzcM6FheqOLx4KJYWFuPw4mKcfucd8YHb7oj3HL+lueYjR+P0bXfES2++Hi+++VpERFy6ejWevfhy/OPiK/HGlf/FtdXVuDZajWurq82nSlWFCDy5jwgMAAD7mQAMAADR54fJIvDm/P6IwEMSgbsGY19E4LdWVuLPr/wrIkrfosxiucemq9X0M+sZs2t2ep/CSeuIr//0h/HYF762YxF4tR5FFVXctHQojiwtxZnbT8SnTp2Ou0+8L86860TxOGduzz/3+pXL8ccXz8dTL5yPJ86fi4tvXYqV0WpcW73exHcReGxKBAYAgP1KAAYAgDUi8MGKwEMTgbsGY89H4Cpi439NHLE9Ebjv7PRy5qRVxPnXLu5oBP7LyxfitpuPxxc//In47JmPxPLRYzd07OWjx+L+O++K+++8Kx6592z85p9/i989dy5++/wzcfnaSqxcvx7V2GsWIQLvuwgMAAAIwAAAME4EFoHnSQTuGoxtjcBDy3+LZrm3J+Y7b/Ubf70XqmpHI/Dvn382Pv3+Dw12nvUY/PCVy/HYk0/EL8/9KS6tXI3ro1HyrhOB91EEBgAAYqF7BAAADpapUNS90KxkC1NmsS7FqPxsyxn77Np1oMx88QIz8/1mm9G632i9+aBzvk4fFOfr4sbg6n4XlWzO+npnX+v8gSaWu98XyWT5i5me7zu7dvPM+lqnj0qzrVODyH/Zs9zbE6udt/qNv97jEfjFN17NH2QAhxaXBo2/45aPHotH7jkbv/jKt+O+Ux+Mtx0+MjWTeYvlnt1c6Xtvjy1t373detLMVP/P8t73djM88+d+slmcSze29y4HAIDdTwAGAICIaPkxe98FEbiPfR+BC6+qCNznwHswAs/yeovAu8Hy0WPx6NkH4/sPfClOLt8SiwsLybdCBG6f25gXgQEAYFcTgAEAYIMInD613yPwUETgZF4Ebp8VgXfEx0+eip9/+Vtx36nTcXRxKXnnicDtcxvzIjAAAOxaAjAAACRE4PQpEXhrROBkftdE4KGIwHvR4sJiPHr2wfjqR++Jmw8dEYE3nt7bERgAAIj4PwAAAP//7N1rjFxlHcfx3zlnZvbepdt2oV1bt610t5dtq7W13gBbShQQES1QNfpCJfF+STTR+EpeGI13Y9B4I5gQozFEoiGKoEVEwIBaRFoq29qtBQst25beZnfm+GJ2p3Pm3J7ZObM7l+8ngew885/znO7ZGZL9MlMCMAAAACBF/iKZCEwENmLwcyERgQ0PTAQOmycCJ+6WLVfoi9vfTgT2TBGBAQAAgEZGAAYAAACmEYEj5pswAtcCETh6nggcPUsEnjPbVq4uicAXEIGj54rzRGAAAACgrhCAAQAAgFJE4Ih5IrARInD0/FxG4FlBBG5U0xG4I5X2rBOBo+eK83UTgQEAAAAQgAEAAIByROCIeSJwBVsG3eNdJQKbHLi+I7Dpc1tE4EawbeVqfXTrdjm299clRODoueI8ERgAAACoCwRgAAAAIAgROGKeCFzBlkH3eFeJwCYHrssIXGkUlIjAjeBdG7bq8sFVvnUicPRccZ4IDAAAAMw5AjAAAAAgk9/nE4G9dxGBK9gy6B7vKhHY5MBE4LB5InDivnTVO7W4Z55vnQgcPVecn8sIDAAAAIAADAAAAEwjAkceKGCeCFzBlkH3eFeJwCYHJgKHzROBE5V2UvrqW25W2vb/2oQIHD1XnCcCAwAAAHOGAAwAAACUIAJHHihgvnEjcPIivvNE4Oh5InD0LBF4TqxetERvvnREVkXP7eBFIrDRMBEYAAAASAgBGAAAAJAUG4qIwBHzROCADQy2JAJ75mchAtdaq0bgfCWRr8F84nU71NfZrcqe28GLRGCjYSIwAAAAkAACMAAAAFBEBG6tCFwrRGDPZNNH4JDvZAtF4EPjLwQfpAn0dXbrhrWbQjMjETh6rjhPBAYAAABmFQEYAAAAkAJ/i08EjjxQwDwROGoDIrAZInDMbJ1F4LETx/Xk/44EH6BJ7Fy7WW1OauoWEdg7RQQGAAAA6hEBGAAAAJhGBA5ZatIIXHNEYM9kXUTgWmrNCLyir1/XDG8IfnCTWNjVo3es2VSyQgT2TtVXBAYAAABAAAYAAAC8iMAhS0RgI6bX2nBWmp0InHddua4r27LjDlS2TASO2qQVIvANazdpNkzmczozkdVL588V/zmdPa9sLjcr++8c2SJbVskKEdg7RQQGAAAA6kkqfgQAAABoMa5U+D1/8YuSr4Lm/BO++fiFwkr8RsUl1woYDZmVFbqjyUPjDhQwH3qCAfNms4UHuHItK3605Bq6MphPkum1NpyVCqHICvxDhF/DuOvt5l3JkjKplDJOSplUSsP9S/Twwf1xBypbjv+58Dwm/A/jn3ddWSazU0+eWb/Wxb3DF8KvdehiyPWu5LldNh/7VJ/Z9XZsW1cPb/QPJ+jc5ISeP31Kjx0+qN0H9urZU+PF+3ra2nX58mFdtnxI/d3z1J5K1+w8Bucv1LLeBTo4/kLo675nxfB6Gz+3S5YqfS0P/a9T7LWO3DTgMeav5cbP7cJwha/7AAAAAAjAAAAAQBAicMgSEdhInUZg181LsjzR98qhEW0fWqcrV63T+Nkz2vr1LyiXz0cfyLcVEbgVI/C6iwe0qLvHP5iQk+fP6nsP36+f7XlEZ7JZObbt+548+J/9uvX+X+kDmy/Xuza8VovnXSTbNCxWaNvK1frxY3+KfN33rBCBI9UsAgMAAAAgAAMAAAChiMAhS0Tg2O18NwIXZiUC511XllQWfdcXo69jO8WHLejq0fqBQf1tbNR/ICKwwd7hC80Ygbe9Yo1/ICFjJ47rQ3fdrtHjzyvlOGpLBf/6wrElOSnd/tiD+s2+f+grb75Jr37Z8ppE4CtWTAVgiQgcoi4iMAAAAAACMAAAABCJCByyRAQO3qqw2VxHYNd1JVfKpC9E3x0h0bfczg2v0eNjozMMRUTgVorAm1+23H9nAo6cHNd1d3xTk7mc0k74z+qFk3GVchy9eOa0PnL3Hfrude/VlqUrEj+vdRcPKGU7msznSvb2nIj/1ILvCp4nApsME4EBAAAAAwRgAAAAIA4ROGSJCFwq7TjqyrTpTDYb04VqE4Fd15XkKpNKe6LvlcPrtD0m+pbatmqtHNtWLp8nApuckyp7bjdLBLZtWyOLl/nvqNK5yQl98Jc/0mQuV0EUVOHF0rKUzeX0kbvv0K/f92ld3D0v8fPbNDCoR8aeKds78IZ3hQgciQgMAAAAJIsADAAAAMigVRGBQ5YaNwInbdOylbr12pv07T/co/+eOK6JfE52aFipPgLn3anvk7wf77xjaH3h7/VdtU5O3LsnA/T39GrDwKAeHxutIhQRgZs9Aq/pX+I7erVcSd/58736z/ixwkc4VxL6Sl4ss7mcvrz71/rq1bsS/yjoxT29MZeXCOydIgIDAAAAc4EADAAAAEiajoJE4IDZJo3AtXDjq16nK4fW63N336k/7n9SZ7LZiC40swhceKfvhejblq4++pab/hho/6kQgSO3qmCh0SPw0KLkA/D42dP6xROPeqPtDCPw7/Y/qUPjxzQ4f2Gi57i0t+/CVr69A294V4jAkYjAAAAAQDIIwAAAAIBkHoqIwCFLjRiBa6Ovq1vf33WLfv74Q8V3A0/mc4WfrBlG4PCPdy5E31QC0bdU6cdA+8+ycSNwbUS8FjRxBL64p9d31Go9fOjfOjs5EfCtqDwCO7at+575l97/6ssSPceNi1/u3cq3d+i9RGAiMAAAADBrCMAAAADANCJwa0XgGit/N/DZbPbC3jHXOq+pGOpKmXTZxzsPr69J9C3V39OrDUsG9fjh0ZCzbMwIXDstGIHd5L+fu0f3hf+IzCACPzC6L/EAnHfz/q1CF4jA3ikiMAAAADBbCMAAAABAKSJw60TgWRD6bmDfn2XqT1n+8c7T0Xf1iLavGqlp9C23c+PUx0AnEorqJALXVGtF4PkdXb6jVevoSyeiByqMwEdeGk/itIIPbvxaTgT2ThGBAQAAgNlAAAYAAADKEYFbIgLnXdf7d43WUOm7gXdP/d3AxW9TMfo6yjjp4jt9dwyPaPvwiFL27EXfUp6PgW6WCFwLIc/vZo/AKxf0+45ULbOQbx76jp6KCcpVIQLXawQGAAAAQAAGAAAAghGBmz4Cjx1/QS9fsMjgQMkofzfwkRPHZVlW4d2+qXRdRN9S/T292jAwWHgXcGKhiAjcLBF4bPyYNi9d4TtSNYw/pdswAs/v6Kz2lOJORETg+ovAAAAAAAjAAAAAQDgicFNH4EMvzm4Anjb9buDP332nuts66ir6lit+DLREBI7dXC0VgZ89mfy7a/s6u41+LgqnEB+BVy9aktCZle+tGb6WE4G9UzWKwAAAAAAIwAAAAEAkInDTRuC/jR3QG1+x2uAAyevr6tb3dt0yJ3tXwvMx0BIROHZztU4ENn67rrntl67VPU/vCfg7skPEROA1/QNJnp4kaTKfm9pbRODQoxGBAQAAgLlmz/UJAAAAAHXPLfwrNne4vi+CH+OG3vDPxy9Mn17cRsWl4D9H8GzEjiYPjTtQwHzoCQbMm80WRv3X7yd/uV+T02ETgQofA73Muxh5+d3QOf9y/M+FZ7KCj3Z15/JjYEOe35U+twNeTqIeXFit4HUg4iihDy29OX72bOCjq/HGwSG1p9Kq9rktSSnb1rVrNiZ4dgWPHT5YsrfnRBR+K3rWs2J4DcN/xJN7LZ/5czty04Ap8+s9p89tAAAAoIEQgAEAAAATRODo2QaMwP87eUL37d1j+ODWtXPjVtUuFBGBoxbqOQI/dfS/gY+sRmcmo4+//qqpt7dWF4EvWz6k5fOT/4j3k9lzZXuH3iACE4EBAACAOUMABgAAAEwRgaNnGywCW5alz971Ux05cdzwwa1p26p1cmxbROCQPYzuaL4IvP/555Svwff3nSObNbTwkhk/t13X1SU9vfrCtrclfm6StPfoswF7h94gAhOBAQAAgDlBAAYAAABklHWnB82micAhS/UVgZ8/dVKf/MXtOnku+Y+zbRaFj4EenLpFBA7cw+iO5orApybOa2z8WOCjqtGRzuhr1+zSwLyLCkG3wud2V1u7bt1xgxZ0did+bpP5nJ4+9lzI3qE3iMBEYAAAAGDWEYABAAAAaep3zkTguNmIHU0eGneggPnaRmDLsvTA/n/pxh98TWMvvqC8y98JHOTGV24tuUUEDtzD6I7micCWpEcOPRP4iGotm79QP3jH+7Wst08ZJyXXzYdeQ1eF6+vYtgZ65+tb175bW5aurMl5PXp4VKcnshVfa/+t6FnPChE4ep4IDAAAAAQiAAMAAADTiMBGsxE7mjw07kAB87WNwI5t6++HD+qmH35DD43u09mJrOEBWscbVgzLsqySFSJw2ZmUfRU6Ej3fYBH4kbHaBGBJWnrRAv3qfZ/SzRteo96OLnWmM3IsW5as4rV0bFvtqZR62zv1phWrdefNH9aWpStqdk6Pjh2QdeGVJhgROH6eCAwAAADUXGquTwAAAACoK67kWq4sWUazslzFTrsqvF3uwhclXwXN+Sd88/EL06cXt1FxybUCRkNmZYXuaPLQuAMFzIeeYMC82WzhAa5cy5Jj2zpw7Kiuu+3L+tgVb9Gnt79VPe3tsq3W/X9mJ3I5ZXOTyk5O6qGDT6urrV0veT4qO/p6h/4Eh1xv37Mj4ufC8xjXlSyTi10DnkIX8dz23RExH7MQ8HIS9eDCauC3qJLndtn81JcPjO5VNjepjFObXy2kHEefufwafXDLm/TH0ae0e3Svnjt1QkdOjaunrV2XLrxEqxZdomuHN2ppb19NzmFazs1r94G9U7eKrzQVXWv/rehZz4rh9Q5/OiT3Wj7z53bkpgGPMX8td1237H9SAQAAAFobARgAAAAoRwQ2mm22CGxbljrSGd32wG9171N79JUb3qNNy1aqI50xOEhzKI2+9+7bo9/v/afue/oJnZk4r0wqLUuzFYoaLAKbPLd9dzR+BD49kdUvn/irdm18rW8ySRd1dOr6tZt0/dpNNd0nyj+fO6xnjh2VbVmebz4RuOwWERgAAACoC/8HAAD//+zdb4wU933H8c/82b271GA7NQFc4wSDAcOBg2ndVqV1YiBVXLAcKVIdOY/6hChqn0SNVKlR2/yRXLlSa7eqZPVBm6StGxLXtioTE3GHjWMnAQyYuzO+Oxz+xD4bB3wYA3fc/ps+mN293Z2Z38wce+ze7fslWbr97Xdmjp2deXAff3YJgAEAAIAwhMCJZudbCGxJyjhuR7WBg6HvoB/65nJybFuO7ajLyVTnr19Q1LwQeNY/IrZDQ2DLk/a9dVwP3/178z54e+74ET/8lQIvPiFww6MWh8AAAAAACIABAACAaITAiWbnYwg839vAdaHv8ID6Riqh79R06Ou6ijqHcyEErgRBWddV1nFn7WOK63+Buh86IgT+6ckR/XL811r5m4sDU/PFuSuX9MLIQP0iIXDIw/YIgQEAAAAQAAMAAABmhMCJZudjCCzNrzbwdOib197hQfWN+P9VQl/XcdTlZhq2ij6H7RgClzxPlucpm8lUQ98tq3p1/6pebblznXnjZujAENixbf3LK3v1+IOPzNsW8PeOvKrJQt7w8hICEwIDAAAA7YUAGAAAAIhDCJxodr6GwHO5DVwf+g7UhL41H+9cCX2TpVdtFwIHmr6uq62renX/qvXacuc6OfZ1Dus7MATeMzKgE+e3aNWipYGJue7Xly/p6cGD0bcOQuCQh4TAAAAAQKsRAAMAAABJEAInmp2vIbA0d9rAnudpIp/TVCGvvmH/O337RgY1kTd8vHN124RBUYtDYE9RoW9vOfR1wv4R10+HhcCubesbe57Wfz/yVWVa/do3Uckr6V9/vlcThbyMVzkhcMhDQmAAAACglQiAAQAAgKQIgRPNzucQeC60gS9dndQTL72g7x/cr4uTk3IdW67tqMvJxL4vpPYMgUuS//2+8pR1yx/vnGmz0LdRh4XAA2ff1u7jr+uh3k2BZ+eqo2Nn9PTQIbmOk/peTgjc8IgQGAAAALiuCIABAAAAKfYPzrVzhMDxs/M5BJbauw28sOdj2rl5m975cFz733pDE7nc9JMJ3hdS+4TAjR/v3FX78c6r2jD0bdRBIbBjWfrW3mf1u7ev0NKFNwWOMde8f/kjfbP/Obm2M+N7OSFwwyNCYAAAAOC6cT628BN/1+pfAgAAAGi14upP+H/aT/qHZEvJQuDybKJpK/BD+DZW5IPgfPxC5deLO1B1KfzfET5rOGKSTeN2FDKf7BxaKWb90eD5syxLGcfRgdMn9MIbR7VmyW9p0YIblXFaH0r+RleXdqzfpMULbtTw+2O6kptS0StNvwsTvC+kqKAoZN6KfMY4G3xo+aGv54e+PZmsbuju1gNrP62df7BNj25/WJ9bc7dW3LK4LcL2sYvj+t/BQ827tgNPGOZjFkIOadrYX01xHwh7puCVdOSd09q+dmNbXAczlSsW9c3+Z3V47Iwsq/HNnf5envZch25jmA05pGljfyXptV2zdK3XtukQkfMxL3bYvfzC/iHzRgAAAEAHIAAGAAAA5AfAkgiBzQeqLhECT3NsWxcmrui/Dr6sfLGge5bdoazr1AdHLbJu6TI9tOFenR4/p3cvjitfLBqCotaEwJ7k1xIlZV1HPZkuP/S969PauXk69F3ZJqFvrbGL43pm8KCaem0Hnpg7IbAl6ezlD/XBlcvavHy1HLu9zlcShVJRu44d0HePvBL++xMCm2fbIAQmAAYAAAAIgAEAAABJ0wGwRAgcc6DqEiFw7XL7toF7sllt761vA5cqbeAWhsCepj/euSeT1YLubj2wdqN2bt6qR3c8rM/d1Z6hb62xi+N6ZuBQ86/twBNzJwS2LUtDZ9/WzT03aO3iW+dUCFzyPD0//Lr+tu8Z87VLCGyebXEITAAMAAAAEAADAAAAkuoDYIkQOOZA1SVC4HpzpQ08dnFchWLRf+I6hsDlom/Dxztv1Fc2b9OjO75UDn2XtHXoW+tXF87r2cHX/AeEwFW2ZevFXx7Xx3sWzJkQuFAq6vDYaf3Vnl1KfuMgBI6cbWEITAAMAAAAEAADAAAAkoIBsEQIHHOg6hIhcONTNW3g4+3bBn6z0gYulUIC6uaEwPUf71wJfXv0wLqN+sofbtPf7/iS/niOhb61fjJ8TK+eGp1eIASucuzpEHj1oiVt8f6PkisWtHv4mL7+413KlUqJbwOEwDGzLQqBCYABAAAAAmAAAABAUngALBECxxyoukQIHFRtAx96WflC+7aBK98NnOR9ISULijwv5OOd190zL0LfWt899LLeOn+2fpEQuKoSAo9PXNHvLFuhLtcNPUYrTeRz+tHAQf3N3mdkVa7pmGu7DiGwebYFITABMAAAACBZt9zW67X6lwAAAABaLfdgb+RzhMDxs4TAZvlSQSsXLdVjX/iyNt2+Qj2ZbMIDzL4fHfm5nnjpx3rv4gXlS8WGgDp5KOiHvpayrqus4yrrutq2ZoO2ru7VllW9cuz2bYDOxLnLH+nef/qG3LB/FyFwnUKpqA1Lbtc/Pvhl3brwprb4SOiS5+nspYt6bP9u7RkdUNZpCKcJgWNn2zUEPvmtH0Q/CQAAAHQIGsAAAACAohvAFYTA8bOEwNEcy9aFyfJ3AxeKumfZ8rZrA5+ptIFLxYYJQyoT+Hjnbv3Juk36ak3Td8U8aPo2KnklPbF/jwbe+1X0ECFwlW3ZOnv5on547KDuvGWJFi+4URm7de//yXxOR989o7/c/T86PHY6+uOpCYFjZ9sxBKYBDAAAAIgGMAAAACCZG8AVhMDxs4TA8TvOFwtauehW/cMXHtE9bdgGfvzF3Xr3owsqel7oO63245273HLTd/UGbV293m/6tvF3vTbLgTNv6U+/98/x32tLCFzHkzRVKOi+5Wv09c88oE/efIt6stnk98prdLWQ17krl/Rvv3hRuwYPKOu4suNCaELg2Nl2C4FpAAMAAAAEwAAAAIAkKbejN2EwSAgcN0sIHL/jkudpqlDQX9z3eX1ty3Yt6O5um5bs6fFz+uv/e0qvvX1Kk7kpPwkK+3jn1Ru0dc16be2Q0Ffyz9vYhx/oi//xuMYnryTbiBA4oFjy1O1m9Ed3rNHO3/+slt+8SF1uZlY+Gtq/1vI6P3FZTx39mX5w7BeaKuTl2m7zr22JEDhu9jqEwATAAAAAAAEwAAAAIKkcAEuEwIY9EgInkCIElqR8sag7Fy3VY23YBv73n72ox1/arcl8ThnHKYe+d2vrGr/p63ZI6FtxNZ/XkbFT+rOnnlS+6H9XcuKPMCYEDvDkB8H5YkHb127UjrUbde+yO/z/wcBxrykMLpZKypeKyhULevP9d/X8m6/r+eGjmszn5TqOLM3itS3N+HwTAjc8mmEITAAMAAAAEAADAAAAkqTcjnVKEiBWEALHzxICJ9qxSp6UK+T1523YBj4zfk7fP7Bf935qpbasWt9xoW++6IeI5y9/pP987RU9+epedWWydeeXEDhm1nhJ+quFUkkFr6glN9yoz664S/etuEubbluujO3IsSzZti3XtiNfvXypKM/z/P2Uijr8zmkdHjul/SeHdeKD9+XathzbCWxNCBx7IH9ljoXABMAAAAAAATAAAAAgqRIAS4TAsQuEwEmkDIElS4ViQSvbtA3cSSqhb65QUP/okPadGNJzQ4eVsZ3I7/wlBI6ZTRACS5InT0WvpEKppJLn6bdv+5RuXXCzli68SasXLdUNXd2hezg8dlqXp65q5Nx7OjJ2WrZlybEcObYt2za/2oTAsQfyV+ZQCEwADAAAABAAAwAAAJKkqR3rgtEJIXDkHgmBE5hBCOyVv6+0HdvA81lt6Ns3OqR9o4Pad+INTeRzcmxbrh3ffCYEjplNGALX/lj0SpIneZ6nkufJkxc661i2LMs/B45lp76XEwLHHshfmSMh8MlvEwADAAAAbqt/AQAAAKBdTEcL5Z8asobwbTxZXsLgwJM8y0sWAnuSLE+x09XfMfDbR8wFJwLz8QuVXy/uQNWl8JcofDb8pW9Yid40bkch85G/YMh8sll/A09ekqCo5hxalqWeTFZP/vQn6hseoA08i8JC3/4Tb2giNyWn/JHBXY5rSr3qeJ6XLARu9rUdeMIwH7MQckjTxv6qF/YSpbm2G+ZrfnQsOyKXNQeDae/ls3ZtV3ee/nynPdfBR+bZkEOaDuSvhJ7riB3M8F4e+S+KeEFiXgEAAACgY9EABgAAAOQ3gCvStsf8kTTtsUR9sJpj0wSOnI3eNG5HIfPJzqGVYtYfTd8EtiSVaAM3XZLQt/Fc+e/x5KESTeCYWeMlGR3spg2B65eT3ctn7dqu7pwmcOSs8WGacy2d/PauiN8PAAAA6Bw0gAEAAIAGNIETL9AETnS+0zeBPVmyaQM3RX3oO6h9I0PqPzGkiZz/8c6O46jLzURu77/HI6uPwXmawObZGTSBw/eUph1KEzhqNuSQpgP5K23fBAYAAABAAxgAAABQfQO4Im17zB9J0x5L1AerOTZN4MjZ6E3jdhQyn+wcWilm/dGZNYEl2sBphYW+fSeGqk1ft9r0TXNtK3EI7I+26NoOPGGYj1kIOaRpY381xX3AsJfITY33gogXJO29fNau7erOaQJHzhofJjvXNIABAAAAGsAAAABAJJrAiRdoAic63zNrAlsSbeAE6kLfkUHtGx1S3+iQJvI13+kbaPqmubZFEzj6INOrNIFjZjWj800TuOGR4VwDAAAAEA1gAAAAQApvAFekbY/5I2naY4n6YDXHpgkcORu9adyOQuaTnUMrxaw/OvMmsEQbuFZj6Ns/Oqj+0UrT15n+Tl9DW7Dup6TnmyawaWN/NcV9wLCXyE2N94Imne9Zu7arO6cJHDlrfGg+16doAAMAAAA0gAEAAABJyZuhCdpj/iRNYMOBqks0gWN3rNomsEQbOCz07Rut/3jnQNO3Sc3Q6iRNYNPG/ipN4JhZzeh80wRueJTgmgUAAAA6EQ1gAAAAQNLU9nID2PCH5LTtMX8kTXssUR+s5tg0gSNnozeN21HIfLJzaKWY9UevrQksdU4buD70HVD/yFBd6Os4Tt1rE/kOjnjBZ3ZtK3EI7I+26NoOPGGYj1kIOaRpY381xX3AsJfITY33giad71m7tqs7pwkcOWt8GH6uaQADAAAANIABAACAspTN0JjZ6W1oAhsOVF2iCRy7YzU2gaX53QauDX33lkPf/tHB6dC3tunbhO8NTX9tiyZw9EGmV2kCx8xqRuebJnDDI5rAAAAAQB0awAAAAICkqe1ryz/FN8LStsf8kTTtsUR9sJpj0wSOnI3eNG5HIfPJzqGVYtYfvfYmsDQ/2sCNoW/f8JD6TwzWfbyz8V1pfGhFzgWX01zbShwC+6MturYDTxjmYxZCDmna2F9NcR8w7CVyU+O9oEnne9au7erOaQJHzqa4tmkAAwAAADSAAQAAgAY0gacXaQLXz7dvE1iau23gYOg7qP7aj3cO+07fqua2BWkCh80FF2gCN/naru6cJnDkbJprGwAAAAANYAAAAECSrm5fG94oMvwlPm17zB9J0x5L1AerOTZN4MjZ6E3jdhQyn+wcWilm/dHmNIGlmjbwZz6vr93ffm3g8NC3/uOdA/86K/TH8BXjQ+OOGpbTXNtKHAL7oy26tgNPGOZjFkIOadrYX01xHzDsJXJT43ujSed71q7t6s5pAkfOJri2T32HBjAAAABAAxgAAAAou6ZmaMzs9DY0gQ0Hqi7RBI7dsaKawFJNG/jlchv4oda3getC3+EB9Y0Mqm/ED31dJ6zpG30Om9oWDHkBaQKHzQUXaAI3+dqu7pwmcORs0msbAAAA6HA0gAEAAAD5DeCK0I6U4W/Kadtj/kia9liiPljNsWkCR85Gbxq3o5D5ZOfQSjHrjzavCSyV28DF8ncD379dC7p7ZKdoql6L6dA3XxP6DjU0fX2J24JW5DPG2eBD444altNc20ocAvujLbq2A08Y5mMWQg5p2thfTXEfMOwlclPje6NJ53vWru3qzmkCR84aHp76zg+jDggAAAB0jP8HAAD//+zdO28kWRkG4K/b7RkJgVhtQLLSBmSbIEFEBkIEoEkINuQnIKT9byTcIjIkIiPNIJJNkIhBg7xzcRNU267yuX1ltWd8eZ5g1XXmPaeOt9wE83K2nAAGAIAbnASu5cqEk8D3/yRwxOE08G72buBf/Tp+9Pn37+w0cFH6vjqc9H3bf6dv+rSgk8DH+W4Xf+AksJPA42zllr0bTSMf/CQwAADgBDAAAMTyBPCl6hmpzt8wrz09NkXWnB5LnQeb3dtJ4Ga2PXW0UCWfe4abFdkpetyTwBERF3F4N/CRTwPfLH3/+Oos/vyPs3j95pvYXZ70TfxeRPR60/YzXPu8m7/BjXvf7rsd6RJ4in6k73bxB538YKByy97kaXTF/w50VmlO7f5uHOl539l3+2pxJ4Gb2cqlE8AAAOAEMAAATI59MnSQvZ7jJHDnRldDTgIPF47RSeCIiG0c3g38l9/Hn16dHd4NfLvTwL3S9+ZJ3xu/Yjc3vvxxnATOLOwkcCvvJPDlblY96/Kqn63csnejaeQDnQQGAADCCWAAAIiIOH9xOAHcPoi0vOr8Tfzm5qfE3/I7CTzOtv8VtR9a446ZqaOFKvncM9ysyE7R458Ejs3h3cDv3sVvfvKL+OpnL+Jbp8/j2a7//xGulr4vz+L1u/Mb7/Tt/JtP/F5E9HrT9jNc+7ybv8GNe9/uux3pEniKfqTvdvEHnfxgoP2s23d3EniUnf6x9nmvfdbVOZ1s5Za9ydNI9rs9G1rz3f7aCWAAAFAAAwBAxKwAjlACK4GfTAkcMZW63/vOd+O3P/1lfPnDH8ez3WlsN5s42WxjH/u42O/j/cVFvH3/Lv5w+U7fl2fx+u359X/eeXHvYjO17Q2zEUrg5MJK4FZeCby8bObK1EMugRXAAACgAAYAgIiIOH/xRYzKACVwLVcmlMAPrwTe7yPevH8f3z59Fj//4gfx2SefxmeffBr/PT+P/5z/L17++1/x16//Ga/ffhMn25PZSd9RL6QEXiSVwL3J06gSOLG4EriZ3SiAAQAgwjuAAQBgpv9uSO8EruXKhHcCP5x3Al9mN5uI57tdvNlfxO/+/rfY7/dxsZ+W2WwitpttbE+2V+/0rd6uuKgOdN4b6p3Ai7x3Avez3gm86nk/qXcCAwAAsf3YGwAAgPtlX/1YH9o3c2V+nL1O7vN/ib0/5JPZVHpffKjP2Tcvyvx44HJ7oxtdDdV/jvZDa9wxM3W0UCWfe4b7Fdkpmnzas2e45nlvIuJkexKnJ7t4vtvFs90uTk92cbLdTgV9Oam8yj7rZDZiKooGmy8u1z7v5k/UuPftvtvR+2HKfDZ77O928Qed/GCg/azbd6//2Gu+2zdGh1/14z/vO/tuXy2+/nmvfdbVOf0v++rnnf5uz4aG320AAEABDAAAJSWwErg19PhL4MVlM1emlMDtXDFHCdybPI0qgROLK4G7WQAAeMIUwAAAEOvLACVwLVcmlMBK4M6AEjhJCTzIKoEzm5jvZpArU0pgAAB4WBTAAABwoARu5RYflMD9hSp5JXBnQAmcpAQeZJXAmU3MdzPIlSklMAAAPBwKYAAAmFECt3KLD0rg/kKVvBK4M6AETlICD7JK4Mwm5rsZ5MrUwyiBAQAABTAAAETkiyIlcDlUzZUJJbASuDOgBE5SAg+ySuDMJua7GeTKlBIYAADuPwUwAABcUgIncosPSuD+QpW8ErgzoAROUgIPskrgzCbmuxnkypQSGAAA7jcFMAAAzCmBE7nFByVwf6FKXgncGVACJymBB1klcGYT890McmVKCQwAAPeXAhgAAG5SAidyiw9K4P5ClbwSuDOgBE5SAg+ySuDMJua7GeTK1H0sgQEAAAUwAAAc3LIoUgKXQ9VcmVACK4E7A0rgJCXwIKsEzmxivptBrkwpgQEA4P5RAAMAwBUl8PW9lcDNrBJ4ednMlSklcDtXzFEC9yZPo0rgxOJPsAQGAAAUwAAAsKQEvr63EriZVQIvL5u5MqUEbueKOUrg3uRpVAmcWFwJDAAAT40CGAAACkrg63srgZtZJfDyspkrU0rgdq6YowTuTZ5GlcCJxZXAAADwlCiAAQCgSgl8fW8lcDOrBF5eNnNlSgnczhVzlMC9ydOoEjixuBIYAACeCgUwAAA0KYGv760EbmaVwMvLZq5MKYHbuWKOErg3eRpVAicWVwIDAMBToAAGAIC4g6JICVwOVXNlQgmsBO4MKIGTlMCDrBI4s4n5bga5MvXxSmAAAEABDAAAB0rgcVYJ3MkqgZeXzVyZUgK3c8UcJXBv8jSqBE4srgQGAIDHTAEMAAAzSuBxVgncySqBl5fNXJlSArdzxRwlcG/yNKoETiyuBAYAgMdKAQwAADcogcdZJXAnqwReXjZzZUoJ3M4Vc5TAvcnTqBI4sbgSGAAAHiMFMAAAVCiBx1klcCerBF5eNnNlSgnczhVzlMC9ydOoEjixuBIYAAAeGwUwAAA0KIHHWSVwJ6sEXl42c2VKCdzOFXOUwL3J06gSOLG4EhgAAB4TBTAAAETEByuKlMDlUDVXJpTASuDOgBI4SQk8yCqBM5uY72aQK1N3XQIDAAAKYAAAmFECz5dVAo+znTtmpo4WquSVwJ0BJXCSEniQVQJnNjHfzSBXppTAAABwtxTAAACwoASeL6sEHmc7d8xMHS1UySuBOwNK4CQl8CCrBM5sYr6bQa5MKYEBAODuKIABAKCgBJ4vqwQeZzt3zEwdLVTJK4E7A0rgJCXwIKsEzmxivptBrkwpgQEA4G4ogAEAoEoJPF9WCTzOdu6YmTpaqJJXAncGlMBJSuBBVgmc2cR8N4NcmVICAwDA8SmAAQAg4gjFQSWvBE7kFh+UwP2FKnklcGdACZykBB5klcCZTcx3M8iVqeOWwAAAwP8BAAD//+zZQXbbMBBEQdz/1FlIMUGBmOnYfn6OWLUy4SaF/ReAAQBg/GMUHCJwshWBi60IfH7c7taVCLzfLe+IwNXLj1MROPi4CAwAAP8bARgAAJ5E4IAIHG2LX0xe7T50sReBiwMROCQCN1sROLnEfJtmt65EYAAA+B4CMAAATETggAgcbYtfTF7tPnSxF4GLAxE4JAI3WxE4ucR8m2a3rkRgAAD4OgEYAABeiMABETjaFr+YvNp96GIvAhcHInBIBG62InByifk2zW5dicAAAPA1AjAAAFwQgQMicLQtfjF5tfvQxV4ELg5E4JAI3GxF4OQS822a3br6dAQGAAAEYAAAePhiFBwicLIVgYutCHx+3O7WlQi83y3viMDVy49TETj4uAgMAAC/mQAMAAAfROBjKQJ3WxE4+vAQgbPt+igCi8C7hQhc/BcAABgCMAAAvBCBj6UI3G1F4OjDQwTOtuujCCwC7xYicPFfAAC4PQEYAAAWIvCxFIG7rQgcfXiIwNl2fRSBReDdQgQu/gsAALcmAAMAwBjfHwWHCJxsReBiKwKfH7e7dSUC73fLOyJw9fLjVAQOPi4CAwDAbyIAAwDAXyJw8Y4I3G1F4OjDQwTOtuujCCwC7xYicPFfAAC4JQEYAABmInDxjgjcbUXg6MNDBM6266MILALvFiIwAABwEIABAGB8MhSJwN1YBA62xS8mr3YfutiLwMWBCBwSgZutCJxcYr5Ns1tXIjAAAOwJwAAA8CQC19tjKQJ3WxE4+vAQgbPt+igCi8C7hQgMAAAIwAAAcCIC19tjKQJ3WxE4+vAQgbPt+igCi8C7xc0jMAAAIAADAMArEbjeHksRuNuKwNGHhwicbddHEVgE3i1EYAAAuDMBGAAAxhjfEopE4G4sAgfb4heTV7sPXexF4OJABA6JwM1WBE4uMd+m2a0rERgAAA4CMAAAfBCBReD4QAROiMD1XgQOdqc/ROBmux6LwAAAcEcCMAAAnIjAInB8IAInROB6LwIHu9MfInCzXY/vFYEBAAABGAAAHr47FInA3VgEDrbFLyavdh+62IvAxYEIHBKBm60InFxivk2zK1cAAHBLAjAAAPwlAm/2InBzIAInROB6LwIHu9MfInCzXY9FYAAAuAsBGAAAZiLwZi8CNwcicEIErvcicLA7/SECN9v1WAQGAIA7EIABAOCVCLzZi8DNgQicEIHrvQgc7E5/iMDNdj1+9wgMAAAIwAAAcEUE3uxF4OZABE6IwPVeBA52pz9E4Ga7HovAAADwzgRgAADYEYE3exG4ORCBEyJwvReBg93pDxG42a7HIjAAALwrARgAAMYPhiIRuBuLwMG2+MXk1e5DF3sRuDgQgUMicLMVgZNLzLcBAAA2BGAAAHgSgacnEXhZiMAicHEgAodE4GYrAieXmG8DAABcEIABAGCM8eOhSATuxiJwsC1+MXm1+9DFXgQuDkTgkAjcbEXg5BLzbQAAgBcCMAAAfBCBlycReFmIwCJwcSACh0TgZisCJ5eYbwMAAEwEYAAAOBGBlycReFmIwCJwcSACh0TgZisCJ5eYbwMAADwJwAAAMMZlDBCBpycReFmIwCJwcSACh0TgZisCJ5eYbwMAAAwBGAAADiLw5kgE3jyIwCJwdSACh0TgZisCJ5cY+SUAAOD9CcAAADATgTdHIvDmQQQWgasDETgkAjdbETi5xMgvAQAA700ABgCAVyLw5kgE3jyIwCJwdSACh0TgZisCJ5cAAACGAAwAANdE4M2RCLx5EIFF4OpABA6JwM1WBE4uAQAAt/cHAAD//+zcS67UMBBAUQexBIYsgf2vjQGimbxPu1NVrjABOecMkOOu9vuEPCQuQgAGAICMCJxsicDJhQgsAlcbInCTCLyYFYEBAIAFARgAACoicLIlAicXIrAIXG2IwE0i8GJWBAYAAAoCMAAAjMXfU4vAyZYInFyIwCJwtSECN4nAi1kRGAAASAjAAADwRgRuvSgCh3PnCRFYBC42ROAmEXgxKwIDAAABARgAAMYYy/BzelEEPl2JwKcJEVgELjZE4CYReDErAgMAAC8EYAAAGGOqbiJw60UROJw7T4jAInCxIQI3icCLWREYAAB4IgADAMA7EVgETuemhQhcHxTMi8DFhgjcJAIvZkVgAADgjQAMAADPRGAROJ2bFiJwfVAwLwIXGyJwkwi8mBWBAQCAIQADAMCZCCwCp3PTQgSuDwrmReBiQwRuEoEXszePwAAAgAAMAAAxEVgETuemhQhcHxTMi8DFhgjcJAIvZm8dgQEAAAEYAAAyIrAInM5NCxG4PiiYF4GLDRG4SQRezN41AgMAAAIwAACURGAROJ2bFiJwfVAwLwIXGyJwkwi8mBWBAQDglgRgAABYEYFF4HRuWojA9UHBvAhcbIjATSLwYlYEBgCA2xGAAQCgQwQWgdO5aSEC1wcF8yJwsSECN4nAi1kRGAAAbkUABgCA0fx7ZxFYBE7npoUIXB8UzIvAxYYI3CQCL2ZFYAAAuA0BGAAAxrgYikTgCy+KwOHceUIEFoGLDRG4SQRezIrAAABwCwIwAAC8E4HreRG4MTctROD6oGBeBC42ROAmEXgxKwIDAMD2BGAAAHgmAtfzInBjblqIwPVBwbwIXGyIwE0i8GJWBAYAgK0JwAAA8EoErudF4MbctBCB64OCeRG42BCBm0TgxawIDAAA2/r6rz8BAAD4H3z5+eu8eRzj6Lz5+Pilnj/mi0c1f6QXxUvxiUf6geKPfvQ+qeky+Kjlhwm/ouKbd7yuGjfmGEdr7vO87nD2nY7O/Fz0bsPnRTi/2Ph4T/N+P9JvUXzTkt9h5eX5PfU9nObzT/DD7/H0NDVv4ePSsz3GYzTmn+733zzbp/d073VjNjy/mv/4uq/8Po9aXf1zYN6+8myP6gfVeb47+/bwXH2259WT4qZefbbze53fpfjLvvJsv8zXj3o5e97u3e/Gn6wvb7gwCwAAGzu+ff/hH0kCAAAAAAAAbMB/AQ0AAAAAAACwCQEYAAAAAAAAYBMCMAAAAAAAAMAmBGAAAAAAAACATQjAAAAAAAAAAJsQgAEAAAAAAAA2IQADAAAAAAAAbEIABgAAAAAAANiEAAwAAAAAAACwCQEYAAAAAAAAYBMCMAAAAAAAAMAmBGAAAAAAAACATQjAAAAAAAAAAJsQgAEAAAAAAAA28QcAAP//7NmBDAAAAMAgf+t7fKWRAAYAAAAAAACYEMAAAAAAAAAAEwIYAAAAAAAAYEIAAwAAAAAAAEwIYAAAAAAAAIAJAQwAAAAAAAAwIYABAAAAAAAAJgQwAAAAAAAAwIQABgAAAAAAAJgQwAAAAAAAAAATAhgAAAAAAABgQgADAAAAAAAATAhgAAAAAAAAgAkBDAAAAAAAADAhgAEAAAAAAAAmBDAAAAAAAADAhAAGAAAAAAAAmBDAAAAAAAAAABMCGAAAAAAAAGBCAAMAAAAAAABMCGAAAAAAAACACQEMAAAAAAAAMCGAAQAAAAAAACYEMAAAAAAAAMCEAAYAAAAAAACYEMAAAAAAAAAAEwIYAAAAAAAAYEIAAwAAAAAAAEwIYAAAAAAAAIAJAQwAAAAAAAAwIYABAAAAAAAAJgQwAAAAAAAAwIQABgAAAAAAAJgQwAAAAAAAAAATAhgAAAAAAABgIgAAAP//7N13WBRn1wbwm2WXXdilN6UKWJFgxY4IqCCoYG+x9xJjSdA3amJsSSyxx8RegjGvxhI19hY1McaoiTUaFEWNRkVUOgLfH3z6GqXN7szOqvfvuryU3TnnOeAyLHPmeR42gImIiIiIiIiIiIiIiIiIXhNKuQsgIiIiIiIiIiL91KtTE0P690RQrWpwsLeDQqFAdk4Obt/+B3sPHMHsBYtx+85ducskkkXHtq3wdue2qOpfCTbWOgBAWlo6LidcxYbN27Fs1Td48iRX5iqJiIiIxGfm5BGQL3cRRERERERERK+6ct6ecHF2gouTIxwd7eHoUPDH3t4W9na2sNbpoFKpYGGhLPhbpYKFhQUsLFRQKpXIy81DzpMnyHmSg8zMLDx6lIpHjx/j4cNHuHX7Dm7euo2kG7fwx9kLuHnrttyfLpmA994dhPfeHQRz86IXeLt3Pxm9B43CseMnjVgZkbw0GjUWzf0ELSObFnvc8ROn0GvgKNy9d99IlREREREZBxvARERE9MpwdnJEt85tUD+oFtzdy8DKyhJmZmbPns/KzMbde/fx2+k/8O2G73Hhz79krJaIiN4ETYLrY1C/7qgXVBNarZXRxr177z7+vJyAX0/8jiM/H8ex4yeRnZNjtPFJfv17d8O0iWNKdWxycgoi27yNq4nXJa6KyDQsnj8dbVpHlurY4ydOIaZTH84EJiIiotcKG8BERERk8hQKBUYPH4hhA3vBysqyVDF5eXnYsHk7JkyageQHKRJXSEREb6JxccMxfHAfKBRFz740lgcpD7H3wGFs3roLu/cdkrscklgZV2f8tH8LrHW6Usds/WEP+gweLWFVRKahWVhjrF2xQFDMh1NmYtGS1RJVRERERGR88v+WSkRERFQMjUaNtSsWIG7k4FI3f4GCpnHHtq3ww8Y18PXxkrBCIiJ6Ew0b2AsjhvYzieYvANjb2aJDm5aIXz4fP+3fgv69u0GtVstdFkmkTesWgpq/ANA8vPGzPVCJXmed27cWHNM+NlqCSoiIiIjkYxq/qRIREREVYf7MyQhv0kjveD9fb3y9bL7gi6RERERF8XArizGjhspdRpEq+Plg2sQxOLz7O8S0jJC7HJKAf6UKgmPUajUq6xFH9KqpVNFPcEzF8r4SVEJEREQkHzaAiYiIyGS1bNEUsa1Kt3dXcSr4+WDMqCEiVERERAT06NoeGo3pz671KeeFpQtnYPH86Zz5+ZrRd79pvg7oTSBk1aCnNBo1LFQqCaohIiIikgcbwERERGSyhvTvIVqurp1iedGTiIhEUSeoutwlCNKmdSR2bP4anh5ucpdCIjEzMzNqHNGrRO/vDxNZ0p+IiIhIDHxnQ0RERCapUgU/1K5ZTbR81jod2sZEiZaPiIjeXE6ODnKXIFjF8r7YvG4ZfMp5yV0KERERERERSYwNYCIiIjJJ7WOjRZ+l0iqqmaj5iIjozaRSvprLhHp5umP5opl6Lx9MRERERERErwY2gImIiMgkRUWGiZ6zft1acHVxFj0vERHRqyLAvzI+mThW7jKIiIiIiIhIQmwAExERkcmpHlgVFcv7ip5XpVSiHZeBJiKiN1zHdq1Rr05NucsgIiIiIiIiiSjlLoCIiIjoRe1joyXL3bJFOL5Yskqy/ERERKWRn5+PBw8eIjklBZmZmcjIyER2Tg5USiUsLCxgrdPB3t4W9na2om+JYG6uwPsjBqNd1/6i5iUiIiIiIiLTwAYwERERmZyoCPGXf36qVo1AlPP2ROK1JMnGICIiKsqUz+biwI8/IeHqNaSlpZd4vFZrhQD/SggM8Ee9oBpo3Kge7GxtDK6jUf0gVK1SCecu/GlwLiIiIiIiIjItXAKaiIiITEqj+nXg6eEmWX6FQiHpDGMiIqKiJCenYO4Xy/DH2Qulav4CQFpaOn759RSWrIhH3yHvoWqtUIwcMxEJV64ZVItCoUDbmBYG5SAiIiIiIiLTxAYwERERmZQ2rSMFHX/hz7/wODVVUEx0pHQzjImIiIqSm5drcI7snBx8vW4jQiLbY92G7w3KFdygjsH1EBERERERkelhA5iIiIhMhkKhQETTEEExO3bvx9GfTwiKCfCvjCqVyguKISIiMiVZWVl4Z/R4LF25Vu8cVf0rQak0F7EqIiIiIiIiMgVsABMREZHJaBoaDFcXZ0Exu/YexP5DRwSP1Y7LQBMR0WtgwuQZOHv+ol6xFioVKlesIHJFREREREREJDc2gImIiMhkxLaKEHT8jVt/4+Tps/hh1wHk5uYJio2ODBd0PBERkSl68iQXkz+bq3e8TzlPEashIiIiIiIiU8AGMBEREZkEtVqNpqHBgmJ+PHIMAHDnn7v4/cx5QbHlfcuhdo1AQTFERESmaP/Bo7jzz129YnU6rcjVEBERERERkdzYACYiIiKTEBURCns7W0Exe/Yffvbvg4d/Ejxmu9gowTFERESm6Njxk3rFaS0tRa6EiIiIiIiI5MYGMBEREZmE1lHNBR2flpaOvQf+1wDetfeg4DEjm4cKjiEiIjJF/9y9p1dcVna2yJUQERERERGR3NgAJiIiItlZ63QIbdxAUMyxX08iMzPr2ccnT59F0s1bgnJ4uJVFSKN6gmKIiIhM0d37yXrFPXjwUORKiIiIiIiISG5KuQsgIiIiahXVDFqtlaCYfQePvvTY4aO/oGvHNoLytGkdiUP/v5fw68DKyhK1awQiwL8yHBzsoLWyRFp6BlJT03At6QbOnvsTlxOuSjK2h1tZ1KgeAD8fb1hb62BlqUF2Tg7S0zNw5597uJZ0A6dOn0XKw0eSjC8mD7ey8PXxgoe7G2xsdLCytISlpQZaK0uYmZkhOycH2dk5SEtPx/37D3A/+QESr9/ApcsJePIkV+7ySQBHR3uU9y2Hcl4eKOPqAisrS1hqNFCplMjKzkZ6egbS0jJw8+/bSLyWhMsJV5GWli532UZhrdOheqA/KlUsDwd7W1jrdDA3VyA9IxOPH6fi+o2b+CshEWfOXZS7VAKgNNfv1/uEq4niFiKAtU6HCuXLoZy3J9zLloFWawVLSw0sLCyQk52DjMxMpKWl4+at27h2/QYu/XUFjx6nylavPixUKlSpXAEV/Hzg4VEWWisr6LRWyMl5gtS0NCQ/eIhLlxNw5txFPEhhM74kFioVPD3dkJ6egb9v/yN3OVAqzeHnUw4+5Tzh4e4GeztbaDRqWFlqkJeXj/SMDGRkZOJ+8gNcT7qJK4nXce36DbnLFo2NtQ4+5bzg6eEGt7KusLWxgVptAUuNBgqFGdIzMpGZmYWHjx7h1q07SLx+A1cSryE9PUPu0omIiIhee2wAExERkexaRzcTdHxeXh527Nr/0uN79h8W3ACOaNoESqW5bE07jUaNZmGNUcHPBxq1GskpKTh+4hROnj4rKE+zsMbo2ikW4SGNYGmpKfbYW3/fwb6DRxD/7Ub8duqMIeXjraqV0bl9DJqGBsPXx6vE43Nz83A54SoOHDqK9Zu2yd44etowr1UzEIEBVVClYgW4lXUt8WtYlOycHCQl3cLZ8xdx4tQf2L3vEK5cvS5y1SWrWT0ADerWhq2tDczMzIw+fmHy8/ORmpqGX06c0nuvUjF4uJVF6+jmCKpVDdXe8oenh5ug+Kev4d/PnMdPx07gh137ZL2p4flziKWlBo8fp+LM+Ys4fPQXvc5rVatUQkx0c4Q1aYgA/8owNy950aiUh49w6vRZbN+1D1u27XolbvJ4HZVxdRYck/LwES78+ZcE1RROq7VCdEQ4ghvUQbW3/FGxgl+pXmNP5ebmIeFqwU0Hh44cw45d+03y9ebq4owuHWIQ3LAualYPgE6rLTEmNzcPZ89fxI9Hf8G69Vtw6a8rRqjUMK4uzmgaGgx3N1eoVCo8fpyK38+cx+GfjiMvL0+UMZwcHRDRtAnq162FqlUKGulqtRoAcOHiZUybOR879xwUZazSUCgUCAtpiPAmDVEtsCqqVq4IKyth+2gnJ6fgzPmLOHX6LHbuPWDwezFjqlzRD5HNQlEt0B/+lSrC28tD0PcwUPBaT7yWhAuXLuPc+Us48vNxHD9xWrTXjKmyUKlQq2YgKpb3haODPSw1Gpgp/vceLT8/H3/fvoP1G7fjceqrdaMLERERmSYzJ4+AfLmLICIiojeXo6M9fv9597OLeaVx5txFhEV1fOlxjUaNiycPCZ5N3HPACPxQSENZal07tsH4McPh7OT40nO//nYaceOn4ez54hukQbWqY+IHI1Gndg3B4+fl5WHvgcMYP2kGriYKa1LWrhGIke/0R9PQYCgU+u0qkpeXh0OHj2HSp3NK/DzFFOBfGS2ah6JJcD1UrxYAC5VKsrHy8/Nx9vyf2Lx1J1Z+/V/JZ645OTpg/qzJaBoaLOk4hjp67FcMHTkON2/dNsp4arUaXTrEoGO7VqhZ7S3BF6uLk5WVhcM/Hceab74z+nmkuHNI4rUkfDR1VqlriooIQ9+eXdCofpDe39MA8PDRY6yKX4/5i5abZGNOLL8c3Faqm15edPfeffjXkmb/+d3fr0WNagGCYvYeOIwuvYZKUs/zGtWvg769OiM0uIHgn9HFycrKwqEjx7Bs9TrsL2RlEGPzr1IR7w0fiIimIbCwsNA7T25uHn48egwz536F4ydOFXrMii8/R8sWTQXn7tp7GPbs/1Hv2oCCWa8Txo5A3x6dC33/duHiZbw3bkqRtZfExlqHju1ao21MC9QIDIBSaV7ksbm5eRj9n0mI/3ajXmOVVtUqlTCgT1c0Dw+Bk6ODqLmvJl7H1h17sXTlWpOY1fwiXx8v9OrWEc3DQ+Dn6y3JGMkPUnDi5O/YsfsA1m/ajqysrJKDinHq513wcCsrOM6jYpDBY78oKiIMXTrEIrhBnVKd/07/cQ4RMd1e+4Y4ERERSY8NYCIiIpJVv15d8cnHYwXFzFu0HJM/nVPoc9+sXCi4+bVxyw4MHD5GUIyhRg8fiDGjhhQ7O/PR41R06TW00AuoCoUCY0YNwbBBvQ1uYD5IeYj3x03Blm27SjxWq7XC+Ljh6PV2p2IvyAqRnZ2NWfMW4/P5i0XJVxhXF2cMGdAD0RHh8PbykGyc4jx6nIplK7/B5wsW/2v/arFoNGps27AK1d7yFz23FC4nXEVUm+6SNgnVajWGDOiBPt076zU7UqiLlxKw8KsVWLfhe8nHKs05JDc3D2MmTMWq+PVFHlO7RiA++mAU6tWpKWp9STdvYcz4aQY3mkyVqTWA/Xy9cXTvFsE3N4wcMxFfr5OucRbauAHeHzkYQTWrSTbGU2fOXcTU6fOw7+ARycd6kbVOh4/Hj0aXDrGi/WwECr6HN23dgfGTpuP+/Qf/ek6uBrBCoUD88vklvtdKS0tHzwEjBG2z4e3lgXeH9EVsqwhY63SljsvMzEJIZDtJVtyoWT0AcSOHoElwA1FvHipMZmYWNm/diemzFyHp5i1JxyqNenVqYuTQ/ggJri/55/68Py8noPfAUQZtWWIKDeDaNQIxdeJY1Kwu7MYcQL6bU4mIiOj1Yrx3cERERESFaKXHxctdew8V+dz+Qz8Jztc0LBgaTelnIBsqrElDxI0cXOLSvDbWOiye/9lLswW0WiusXjIXo94ZIMrsVXs7W3w591N0ateq2OMqVfDDzs3x6Nerq6gXuC0sLPCf94Zh/szJouV8Xt2gGtj/w7cY0r+nbM1foOD/c+Q7/XFkzybUDRI+Y7skA/u8/co0fwGggp8Phg/pK1n+Fs1DcWjnBnzw3jtGaf4CBUtjzp81Bds2rEL1wKqSjVPac4i5uQLTPh6Lt6pWfuk5C5UKkye8j23frRa9+QsAnu5uWL1kLvr37iZ6bnrZiCH9BDdo7t67jw2bt0tSj7tbGSxdOAPfrl5klOYvULAlwbpVX2DN0nkoW8bFKGMCQFDNati3fR26d2kn6s9GoOB7uH1sNPZs/QaN6tcRNbe+/jN6WKlutNNqrfDFnGmwt7Mt8VgnRwfMnDYBR/duQvcu7QQ1f4GCG6B6dG0vKKYkDvZ2mPXJh9j+3RqEN2lklAaoRqNG5w4xOLR7A0YPHyj666m0Kpb3xarFc7Dl2+UIa9LQqM1foOD95pql84z63lxsQwf0wpb1K/Rq/gKApUa/rUiIiIiInscGMBEREcnG3a0M6gYJazzcvnO32CUFd+zaL3jJNBtrHVpGCm9E62vUsAGlXmLV3a0M+vXs8uxjG2sdNsQvRkTTEFFrUirNMXv6x2geXnje0JAG2LphJSpX9BN13Od17hCDj8ePFjVnGVdnrPpqDlycnUTNawhvLw98F78YXTrGipo3srk0y8pKqYUENVuoVPh08gdYtXiOZEtVlqRuUA1s27ASg/p1lyS/kHOIhUqFkcP6/+uxct6e2L5xNQb16y7phX2l0hzTJo751zmMxBcdEY6OJdzAU5jFK+IlWY0grElD7NoSj5iWEbLsQR7ZrAn2bP3GKEvhR0WE4b9ffwmfcsJngwvh6e6GdasWol1MlKTjlMRap0P/3l1LfbyLs1OJ58EuHWNxeM9G9OzWQdB2IC+qWqWS3rEvqhtUA3u3rUOPru1lacJa63QYO3ootm5YhXLenkYdu1+vrtj1fTyiIsIM2g7AUH6+3ujfq/SvNVMyafx7mDhulN43aV766wp27j0oblFERET0RmIDmIiIiGTTPjZacPPhx6PFLyV449bfOHfhkuBaWkc3FxyjD2udDrUFzoYKDWkAoGBmyJql81C7RqAUpUGlVGLO9Ilwdyvzr8ebhgZj5ZezSzWLx1AD+3QX9aL9qHcGwtHRXrR8YlGr1fj8k4/QPjZatJxlXY03400sYtfs6uKMrRtWoW+PzrI0np6nVqsxecL7WLpwhkFNjRfpcw4Jblj32b8DA6pgy7fLJZ2h/KLJH8Y9O4+RuMKaNMT8zycLbtRcTriKRUvWiF7P0AG9EL9sAVxdjDPrviiuLs5Ys3QeenfvKNkY0RHhWLJwBnRarWRjPE+tVmPB51Pxdue2RhmvMCHB9QTv4RwW0rDQx+3tbLF6yVzMmzFJlD11xVgRBQD69OiEjWuXwNPDTZR8hqhdIxC7NscjrEnhX0MxWet0+HrZfHzy8VijvaZLEhUZLncJgk35MA6D+/fQO/5q4nV07jkEaWnpIlZFREREbyo2gImIiEg2URHCL+zsPXC4xGMO/Ch8GegmwfVhYy1syUF9uLu5Cm56e3m4AwDmTp+EBvVqS1HWM85Ojpg+Zdyzjxs3rIvli2bByspS0nGfMjdXYOK4UaLNOmnZwnQvHiqV5pg5bQIC/F9enlcfaemv3sXCjMxM0XJ5erhh07qlei+3KJWYlhFYu2KB4CVNi6LPOcTO1gaOjvao9pY/1n/9FdzKuopSS2kpleaYMWW8aF8DKmh2xY0cjDVL5gr+umZlZeHd9z8SbZ/Lp+JGDsbEcaNkW7b2RUqlOT6d9AGGD+4jeu66QTWwcPZU0ZqOpaVUmmP61PGIbNbEqOM+pc+5w8vT/aXHqgdWxc7N8aKuApF4PcngHCOG9sOnkz6AhYWFCBWJw8HBDqu+miPpjYoebmWx+dtloq8uYyhfb2ln1ottXNxwDOz7tt7xVxOvo123AUi6If/+z0RERPR6YAOYiIiIZOHn643qgcL2K83MzMLufT+WeFxxewQXxdJSg9hWkYLjhFLpcbHYydEBwwf3QduYFhJU9LLm4SFoHh4CP19vLJ4/HZaWxt2HrFIFP3RuH2NwHne3MnB2chShIulotVaYN3OSKLmOnzgtSh5jSnn4SJQ8ZVydsembpajg5yNKPrE1blgXa1csEGUmsD7nEKDgQvrqJXPhYG9ncA368PbywLBBvWQZ+3ViY63DwL5v4+i+zXh/xGDBjar8/HyM+3g6fv1N3PPFiGH98P6IwaLmFINCocC4uOHo3L61aDkd7O2waM4ngmfCikWlVOKLOdPgK/Gy04WPLfz8o33hBrLQxg3w3dol8PURt/5N3+80KH7E0H4YFzdc9tUjCqPRqPHlvE/RKqqZ6LnLlnHBd2uXIDCgiui5DZWXL2xLFznFjRyMEUP76R3P5i8RERFJgQ1gIiIikkX72GjBszx/OXGqVEuiHT9xCrfv3BVckxQX1sRgaanBhLEjjDrm1I/iEL9sgWzLJ3frZPj+uPo2yoztraqV0bNbB4PzLPhqBVLT0kSoyHiSkgy/0GllZYlVi+fC28tDhIqkU69OTSyYNVm28Vcunm30mb8v6vV2R9jZ2shag9yENmztbG0Q0qgeRr0zAP9d8yXOnTiAKR/G6bUvaG5uHsZPmo5V8esFxxYnpmUExo4aJmpOMSkUCsycNgH16tQUJd/0KeNkXx7YWqeDf5WKstZQWsrnmsYtWzTFqsVzRF9xZdP3O3Hw8M96x7eNaYGxo033NQwUNP7nzZyEIIFbABTH3s4Wa1csEL0ZL5ZLl6/IXUKpvDukr0E3wLD5S0RERFJRyl0AERERvZmi9Vj+ef/Bo6U+9tCRY+jUrpWg/A3q1YazkyPu3rsvtLTXjj7NBTEF1aoOby8PXLt+Q+8cN27eQmpamsF72WVlZSEtPQOZmVnIyMiEhVoFraUVrG10UCnFeTs9uF8Pg5syCVeu4Z1RE7Bw9lSjLdltqJ9//c3gHDOnTTC5ZZ+LEtsqEhcvJWDWvK+MPraLs5PRx3yRg70dOrZrhcXL4+UuRTa2NtZYvWQurifdfPaYQmEGhbk5NGoL6LRa2Fhbw8nJAS7OjnBxdhJlRmJ2djZG/2cS1m343uBcz6vg54PZn30keFnywlxNvI6riUlITklBysNH0Gm1cLC3RdkyrqhSqYJBS0ur1WrM/mwiwqM7IT09Q+88oSENENMyQu/4N5G5uQJKpTkaN6qHL+d+Iuqe6EDBqi8jxnykd3yAf2XM/nSiKK9hqem0WixbNAthUR1x736ywfm+mDNNtG0opLD2v5vkLqFEg/p1x7i44XrHs/lLREREUvo/AAAA///s3Wd8jOnXB/CfSS+kIZEqRUS0aGv1GkEQvbP6Lquzeu+910WU1RaLVaMTgmjRoyaIhAiRSJEymTwvfPKs3X8ymfvc95Rwvi83c67rsFNiznWdwwVgxhhjjGlc+bJeKONVSlBMdnY2jp08q/Ljz5y/KLgAbGhggHatm2Pdxj8ExWnb84iXOHbyLCJfvEJKaiqK2ljDw80VDevVVPutyJevXuNI0GlERL5CUnIyihW1gZurCxrUqSnqRkmhQoXQ1Lc+1m/aTl5DLs/CkWOn0bmDau2k38bG4e79h7j34BFevHqNyBev8ORpBD4mJOb6eCMjI1Qo64XKlcojwL8JqlauSC7UuLu5oHGDOirNuFbmSNBpPH0eicE/90LVKhVRpLC52tpZmpgYiy6unzl3SVR8m1ZN0aFNC1FrAEDMm1icvRCC0Ou38ORZBGLfvUdq6meYm5nBwcEOXp4e+PGHymhQt6boFsojBvfDueAQ3Lp9X3Te6vAu7j1uht3Dq6hoZMrlsLaygLXVl/nBJeyKi16/XYD/d10ABiDp3FNVPH0eiTETZ+PSlWuSr7147hRRs52jomMQuHU3jp08i4jIV3k+ztrKEo0b1EGvHh3JNyA93Epi8thhGD91HjVdTB4rTTeOjMxM3Ln3EA/Dn+B19BskJ6fAwNAARW2s4eXpjurVKsOiSGFJ9tIF1atWxoZVCyUt/j59HonfA3dgy/Y95DX09fWwbME00YemsrIUuBx6A5cuX8Pd++GIePESiZ+SoK+nDyvLInB3LQmfimVRp2Z1VPYpJ+pzuYRdcSyYNRF9Bo4SlfOQX3qjcYM6otb42quoaNwMu4f7Dx/hZVQ0Pnz4iOSUFBgYGMDczBTWVpZwdnZASWdHlPP2gpenu9KOCDv+3I8//zosWX7q0KdnJ0yfOIr8/5OLv4wxxhhTNy4AM8YYY0zj2rfxFxzz6PEzvHgZpfLjT54JRlpaOoyNhX3Z2LJZ4wJTAE78lIRJ0+crvdHVp2cnTPhtqORfJCenpGDKzEXY8ecBKBS5z2jr0aUdJo8bDitLC9IeNapXEVUABoApsxahlIcbqlQq/z8/S05JQciVGzh1NhjBIaGIfJF38SE36enpuH7rDq7fuoP1m7ajQd2aWDxvCpwcaK1BA1r4iS4AA8Djp88xZPRk0esoY2lRBEf+2orSpdzJa4RcvY6798PJ8dZWlpg9dSw5HgAiIl9h8Yr12HfwaK7P448JiYiKjsHVa7ewZfseGBsboXvndhg2qC/sbIuR9jQyMsLSedPQoHnHPF872vAw/AmWrt6IQ0dP5plXZZ9yGDaoH5r7NSTv41PBGw72doiOeUteg6kmPT0dG7bswrzFq5Geni75+v16dUWN6lVIsenp6Zi/ZA1+37xTpdziPyZgz/7D2LP/MJr7NcTc6eNJLc17dm2PjVt34XnES8GxLZo1Rvmy4m5Lxn9MwMYtu7Bt5z7Evst7VIWRkRE6tWuJYYP6wtnJQdSeumDn5lWiiqyJn5JwK+we7oc/Rvijp7h+646g3wnzMnLIAFQs702Ol8uzsO/AESxasT7PjiWx7+Lw6MlzHD1xBgBQtkxpjB7+M/z9GpELhy2b+6J9a3/sO3iUFF+mtAfGjhxEiv1aeno6Dh07hc1/7BE8V9zU1ARNGtVDk0Z1UadmddjZFkNWlgL3HoRj07bd2L33b9H5qVP3zm0xZ9p4weNscnDxlzHGGGOawAVgxhhjjGlc8ybCiwcXLl0V9PiUlFSE3ghDvdo/CoqrUqkinBztdf4LmVdR0ejWZzAePXmu9HGB2/5EROQr7AhcKXj2ZF5i3sSie98huPfgkdLH/bHrLzyLeIE929YJLsQDQFkv8fMNPyYkokX7nujRpR0aN6iDIoUL48XLKJwNDsGJ0xdEtQL9r3PBl9G2S38EHdhOmp1cu2Y1yXJRtzXL5ogq/gLAmt+3iYofOWQAihW1Icdv370fE6fPF/QcSEtLx8YtO3Hg8HEsmTuVXAj1LuOJXt07IHDbn6R4KWVlKbBybSDmL10NuTxL6WNv3b6PnwYMR+uWTbF66WwYEuZsy2Qy+DasK+rWHlPuXdx77N53CIHbdqut0G5qaoKhA/uQYt/GxmHAkDG4EkprAX/sxFncvReOwHWLUamisPbvhoaG+G34QPwydJzgfXv36CQ45msnTl/A8DFTVWrdm56ejm0792HP/sOYM20cenRpJ2pvbaMUf2PexOL4qXM4cuw0LofekPzAjJ1tMfzSrwc5PuZNLIaMmoTgkFBBcQ/CH6P3zyMR0MIPC2dPIh+SGztyEA4dPYmMzEzBsZPHDRd9Gzs4JBTjp8zFk2e0Ob2pqZ9x8HAQDh4OAvDlYNnntHS1HFaRWse2LbFw9mRy23Au/jLGGGNMU3R/yAljjDHGvik//lCZNF/2xOkLgmOEzAzOoacnI91Q1qTET0n4acCIfIu/Oc5fvII1G8QV23IkJSejz8CR+RZ/c1wJvYkVawNJezk7OYhqLZpDLs/C5j/2oFufIWjZoReGjJ6MA4eCJC3+5njxMgoz5y8nxTralxDVNltTpk8aBd+GdUWtcfBwEE6eEf6azuHkYI+eXduT4+ctXo0RY6eRnwMfPnzETwOGiypiDhvUT+uzmjMyMjB45ETMXrgi3+Lv1w4eDsK4yXPI+/74Q2VyLPtf2dnZePo8En/s+gv9B49B5VrNMHPeMrXesv65b3dSS/BPScno9NNAcvE3x+uYN2jfbQCeRbwQHNvKvwkc7UsIinFzdUbtGvRDOoHb/kT3vkMEz21NS0vHyHHTMXvhCmRnZ5P3L0hu3b6PQcMnoErtphg3eQ4uXbmmlm4Jo4b+TP4dIyLyFQI69RFc/P3a30dOoH23AXgX954UX9LFCQP6dBMc16BeTVGf4QqFAouWr0O7rv3Jxd/cJCR+KhDF39Ytm2LpgmnkmeRc/GWMMcaYJnEBmDHGGGMa1bZVc8Ex7z/E43LoDcFxx06eJX1h6u/XSHCMJv02cSbuP1StAJtj09ZdpFsi/zVh2nzcDLsneG/Kl3oymQyepVwFx2nb3v2H8ebtO1JspQrCbrNpWuf2rTCwX09Ra0S9jsGYSbNFrdG/d1eYmBiTYjdu2YnFK9aL2j/HbxNn4UjQaVKsfQlbdGmv2nxqdcjKUmD4mGnkFqJ/7PqLPFPWu7SwGfBMubA7DxC4dTc2bd2Ng4eDNFJE6dFZ+I1UhUKBEWOn4WH4E0ly+JSUjAGDxyAlJVVQnIG+Prp3aSsopnWLpuRWr4ePncLYyeLe85at2ih6JIKui3odgwFDxsAvoCv2Hjgi6FCKUNZWluT58fHxCejRb6gkLajv3g9H719G4fPnNFJ8n56dBT8vxXyGZ2dnY9KMhZi/ZA15jYLM368RVi2eSep+AXDxlzHGGGOaxwVgxhhjjGlUU9/6gmMuhtBuf7x4GYVHj58JjqtQrgy8PMW1t1WX8xev4MChIMFxb2PjcPvOfVF7Xwm9SZrJFv8xAddu3iHtWdJZ+G1xbcvIzCQXxrw8PSTORjrVqvhgwaxJ5JmFwJeWjz8PGYuPCYnkNQwNDNCutfCDJABw78EjTJ21mLx3bkaOnY6oaNqXuV07tZE0FyGWr9mIvQeOiFpj2859pDh3NxfyF+jsf1X2KYe5M8bjfNBePA4Lxs7Nq9CpXUvRLV7z4u/XCE6OwmedB506j0NHT0qay70Hj7Blh/Cb+G1aNhP0eN9GtBuTUdExGDluOin2v6bOXiz48FdBsXPPAdTza0/6/Yaie+e2MDMzJcWOn0Zve5ybazfCsHDZWlKsk6M9WjRrrPLjvTzdUbeWsNEoX1u7cRs2bN5Bji/IfBvWxboV88jvq1z8ZYwxxpg2cAGYMcYYYxrTsH4tUsvI0+cukvc8f/GK4JhChQqhXYDutYFWKBSYPmcpOf7WbXEF4Blz6XvfDLtLiita1Jq8pzZR/67tbItJnIk0HOztsGHVAvKtW+DLzaGxk2fj+i3aYYAcLZv7onixoqT9J89YKMlN+K99TEjE3IWrSLEVypVB1UoVJM1HFbfvPiAXHL52/OQ5wbcvgS9zWN3dXETvz/6XtbUlfBvWxaols3H36iksnD0JZUpLe7CEMiYhK0uBJSt/lzSPHKvXbxX8PHRzdYZ3GdXmzBc2N0fF8t6U1DB/8WokJH4ixf6XQqHAlJmL1NIOWVsyMjPx28RZGPbbVCQlJ2ts3/atab/jnb94Bfv/Pi5xNsDq37ci/NFTUmyXDqp3kujRpT15bu3tuw9E/Q5akNWvUwMbVy+EsTEXfxljjDFWsHABmDHGGGMa06ZFU8ExGRkZomaFnjwTTIpr3rQheU91uXHrjqjbPw8f075cBL588XeDWMQFgHDi3laWFuQ9tSnyxStSHKWwqW5GRkbYuGYRHOztRK2z+vet2L3vkOh8/BrXJ8WdD76CkKvXRe+fm70HjpC/vG/mp9n3mvT0dAwfM02S9qppaekqzwP/L7eSXABWN2trS/Tq3hGnj+zGnGljYWlRRPSaMpkMNX+sKjgu5Op13Ln3UPT+uYl7/wHHT50THOfXuJ5Kj6tdsxoM9PUFr/8s4gX+/Ouw4DhlLl6+hiPHaW3ndU1GRgZ+HTFR1Cx1CjdXZ3gRD0UsWr5O4my+UCgUWL5mEym2ZvWqKs+Tb1S/NmkPhUKBCVPnfVOHD1RV68dqCFy3WOW/4//i4i9jjDHGtIkLwIwxxhjTCEMDAzRppNqXrV+7fuuOqNszl65cw/sP8YLjPD3cUNlHt+axir11ImZendi2jNS9LYoUFrWvtlCecwBgbk5rSalOS+ZNEX1L9eSZC5g+Z4noXGQyGerU+oEUS21XrKrtf+4nxTWoW1PiTJQ7cCgID8IfS7befeJajo4lJMuBKWdoaIj+vbvh0ukD5LmnOerWqg5rK0vBceeDL4vaNz/BIaGCY6pXraTS46pWrih4bQDYs1/a4m+OHXsOqGVdTcrOzsaYSXNw8LBmWj5/zd+vEWmUwe27DxB6PUwNGX1x4HAQomPeCo4zNTWBb8P8W5SXLVOa3HnhzPlLort3FETVqvhg64ZlKGxuTorn4i9jjDHGtI0LwIwxxhjTCD/f+rC2pnxpLLyF839dDKHNY9W1NtBnLoSIin8d/YYcey5Y3N6vomhffhkU0Dmh1FsyhoaGEmcizuCfe6Fj25ai1nj89Dl+HTFRknwqVSyLojbC24LHxycg6LTwG4JC7P/7ODLlcsFxZct4kgpqFAqFAus2bZd0TerhDk39mdk/bIsXw+qlszFxzFDyGjWqVyHFBZ06T95TFafPXkRWlrD3XVVnrnt6uAnOJzs7GwcPnxAcp4qz50MKfEFp09Zd2EE8NCMW9Tl87ORZiTP5N4VCQe5aU6dm/gej6tepQVobUP8BKl1U2acctm9aQT6IyMVfxhhjjOkC4X2MGGOMMcYIAvybkOKOnRD/hdvpcxfRppXw9tPNmjTAxOnzRe8vhXdx70Xd4AWA2Ng4UlxC4ieEP34mau/3H+Ihl2dBX19PUJyhlgvA+vp6cCvpglLurnB2doC1lSWsrSxhaVEEJibGMDAwgKGBAfT19f51o8jJ0YG0n5EOFYCbNKqHiWOGiVojPj4BfX4ZJdkMzEoVy5PiQq5el6TlsTLvP8Tj9p37qFbFR1CcTCZD1coVRbW6V1XI1RuS3v4FQP5y20KCdsQF1ZXQm4h5G/uv/6avpwc9fT0YGhjA3MwMZmamsLayRFEba1Gzt/+rUKFCGP5rP7i6OGHwqElIS0sXFF+2TGnBe35MSMTT55GC44SIe/8B7+Leo4RdcZVjHOztYFu8GGLfKf9sLOniJDif55EvyaMAVHHi9Hn069VVbeur05NnEZg+V3uzZL29VJv9/F/HJfh9ND+nzgajd4+OguNUmWdNnWMd+y6OXJguqMp5e2FH4CryQSUu/jLGGGNMV3ABmDHGGGNqZ2pqgob1awmOe/o8Ek+eRYjeP+jUOaSnp8PIyEhQnJOjPerU/AEXL9NuEEtJir+HjMxM0t/DUwn2BoDPaZ8Ft9ErJNNswxoXZ0f4NqiDiuW9Ub6cF0q5u2r2Vi6hLaU6eHm6Y9WSWYIL9l/LlMvx68iJkjx3c1Qo60WKuxl2T7IclAm780BwARgAfCp4a6YAfEX6Gcj5Fc/yUqQwraVmQZf4KQmtO/cV1CXA0b4ESnu6o5x3aVQs740fqvrAtngxUXkEtPCDsbExevYfJigXL093wXvFvBHe1pYi9l2coAIwAJQp7ZHvc9jFSfiBHnXNO84RdueBWtdXp+lzlgo+eCAV2+LFSPPs495/wKMnz9WQ0b9dDr2BTLlc8MzpMqU9IJPJlL6Wy3rTCt9Xr936rmb/lnJ3xa4tq0ndRgAu/jLGGGNMt3ABmDHGGGNq16q5L2l+1oWL4ts/A8CnpGTcCLuLWj9WExzbplUznSgAS3WD8nOa8AKwZHt/ThNeANZAQdTTww1dO7VGw7q14FXaQyN76jJLiyIIXLcEVpYWotaZOW8ZTp+7KFFWX7iWdCbF3b6rmWLJ3fu0oo+Hm6vEmeROHe9lH+ITSHG6dNtdkzIyMgQXU17HvMHrmDc4c/7S//+3Wj9WQ+f2rdDKvwlMTU1Iufg1rodZU37DhGmqdbrQ19eDg73w2c2vozVTAH5L6HKR35/HxsaKdAM7/NFTwTFChN25r9b11eXqtVsaOeySF+8ypUhxYrugqColJRURkS9RupSwgxbmZmYo6eKIiMi8b51TDjIAwFU1zj3WRYf2BvLMX8YYY4x9M7gAzBhjjDG1a9nclxQnZcu5cxcukwrAfo3r5XurQhOSk1IkWUchcEYiACRJtbciW5J1pNKiWWMM6N0N1atVgkzDN411lUwmw7oV81DKXVxBcvfev7F2wzaJsvqHnS3t1mP4Y/UWY3JQ29xS/1xCpKWl48atO5Kvm0g8IFJQ53vripCr1xFy9TrmL1mDiWOHon1r2sz6vj91QciVGzh64ky+j3VydCB1BfBwKwnfhnWRnq6+W59GRkak9y0He1ulPy9hq/zneYlQY/tn4Mt7TULiJ1gWsFbqW7bv0er+Tg72pDixIziEePnqteACMAC4OOVdAHZysBd8+C/H/YePSHEFFRd/GWOMMfYt4QIwY4wxxtTKytIC9Wr/KDgu/mMCLl4OlSyPYyfOYtJY4fNMixcriiaN6iLo1HnJcqFITpGmCJulED4HNSU1VZK95VlySdYRq2H9Whg/ajB8KpTVdio6Z9qEkWhUv7aoNa7dCMOo8TMkyujfKG1vEz8lIf4j7ZaqUM+evyDFaaIA/DEhUS0HWVJSaO8PBgb8T1EpvI55g4HDxuNiyDUsnD1RcMt6mUyGmVN+w7mLl5Ga+lnpY50dacUzdzcX7Ny8ihSrblb5zPgsXtyGtG50zBtSnBDv4t4XqAJw/McE/H30hFZzsC9BK+hHx2jmFjsAxLyJzf9BuXB0yPs2u4uzIzUdPNLQ7eeCjIu/jDHGGNNV/K9uxhhjjKlV65Z+pFsHKampqFm9KjLl0hQNLYoUhlyeRbq9FNDCT+sFYCaejY0Vpk8cjQ5t/PnGby66dGyNX/r1ELVGVHQM+g4ajYzMTImy+oeZmSmpFetHDRV/gS/t5tPS0mFsLOw9z0IDRZyEhES1rJuRmYns7GzBrdNlhfg1KKWdew5ALpdj5eKZgt/fnBzt8XPf7li6coPSx1lbKy+WFkRmJsrbZ1NvA75794EUJwT18IW2XAwJhVwu/BCalKwsac/h9x/iJc4kb9QDSzbWVnn/zCbvnymTnJIi2RiQbxUXfxljjDGmy7gAzBhjjDG1atGM1v7ZycEef+1U/mW0pjRuUAdGRkZqbV/J1KtKpfL4feUCOBNn4H3rfqhaCfNnTBA1/zg19TMG/DqGNIdTFeZmZqQ4qW7PqyopOVlwAdjEWHhhW6ik5GS1ra1QZENP7/uena0L9uw/jFo1qqJrxzaCY3t164iVawOVFuioLWR1mXE+rz1DYqvy+AT1HzxJStbse5tYujBL1kTge3OOT0nqe//8n70+0fZS9rlDOTwFAImJSaS470VGRgY69hzIxV/GGGOM6Sw+ds0YY4wxtbGzLYYa1atoOw3RLC2KwL9pQ22nwYhaNvfF/p0bufibBwd7O2xYtYD8BTEAKBQKjJ4wEzfC7kqY2b+Zmiq/qZeXjAzNth7PyBB++1lo214KXZvBzdRj1vwV+Pw5TXCcfQlbNGlUT+ljqMUzXSaTKT+4QH1t5tdOWwoF7QZw2J172k6BfIghIyND4kzylk7cS2kBmPja1eSfuyDS19eHq4uTttNgjDHGGMsTF4AZY4wxpjbtAvxhoP9tNBxp5d9E2ykwgoAWfli3fC65ePitMzIywqY1i8lzEXOsXLcZew8ckSir3FHfSyhzr8WgzNnV05NxW3Imibj3H3DqbDAptplvA6U/19P7Nj7Pv/bm7TulP9fTE/66zM7O1sjrOStLu+2UhcjOzka4DsySpfz/BKDR1tUK4meWgX7et9Wpr10+OKScTCbD76sWoLJPOW2nwhhjjDGWq2/vX3CMMcYY0xn+zRppOwXJNKhTE4XNzdXaRpVJq1oVH6xaPEvS25Xx8Ql48eo1XkfHIDX1M1I+f0Zq6mekpf37xp1PhbLwbVhXsn3VZen8qahSqbyoNU6cvoBZ85dLlFHeKLcaAXrhmMqA0DI2IzOTVDhmLDfBIaGkQ0uV83kv+O/73LfgxOkLSn9OuQFZqFAhWFlZ4MOHj9S0VCK01bw2xccnaORWdH6ot2sNDWmtwCkonyEA8FnJ65P62tXkn7ugsrQogm0blqNtl/548ixC2+kwxhhjjP0LF4AZY4wxphYlXZxQxUdcYUmXmJqaIKBFE2zfvV/bqTAV2NhY4fdV80V/Qf465g0uhVzDybPBuBJ6E+8/xKsU5+bqrPMF4KED+6BDmxai1gh/9BSDho+XKCPlUlJp7U41PbeU8oU5zxdnUnoY/oQU5+5aEoYGBsjIzL2NeVrat/U8PX7yHC5duab0MdSCoaVFEbUXgAubm6t1fSlpehZ7XtLTaf8/NTGnXexeyl6f1ANUpibcPUUVtsWLYdeW1WjdqS+ionkeMGOMMcZ0B/cZY4wxxphadGjT4ptradqqObeBLiimjBsOR/sS5Pjrt+6gR7+hqFTDD0NGT8bhY6dULv4CQEa68DmwmtSsSQOMHz1E1Brx8QnoPXAkPiVp5lb8p6Qk0i1ZK0sLNWSTO5lMBosiRQTHUb+cZyw3b9/FkeL09GRwd3PJ8+e6UsSTwtVrtzB45MR8H0cteltaCH8fEMrMrOAU59J05JAL9RaytbWlxJnkzcqK9pml7M+WlEx77VpaWsCQeCO5oLp7P5wU5+zkgB2bV8HGxkrijBhjjDHG6L6tb2UZY4wxpjP8mzbUdgqSq1WjKoraWGs7DZYPnwpl0aldACk25k0seg0YgeZteiDo1HlpE9MRXp7uWLFoJvT19chrZGRm4pfh4/A84qWEmSknl2fh48dEwXHWVhYaO4xib2dLmjEZ9/6DGrJh3ysxN3VtrPP+jIt6/Ya8rq54GxuHOYtWok2XviodXnn/XvWDP18rVtSGFCeEuZmZ2veQiq7Mko0lHo7QxP/PHMpeg8q8iY3N82dRr6NJa+Z3KORb1K3PYHIr5zKlPbB900qYmZlKnBVjjDHGGA23gGaMMcaY5LzLeKJsmdLaTkNyhoaGaNOqGTZs3qHtVJgSA/v1JBXhbt2+j579h5G/IP6agY7OzbOytEDguiWib6dNn7ME5y5cligr1cW+ixN8u8bQ0BDuri54+jxSTVn9w9PTjRT35u07iTNh3zNzc3ph0MQk7/azzyNfQKFQCD5QEf7oKVasDUSWIoucl1gZ6ZmIio4RfLuP+tr09vJU6yEiIyMj2NvbqW39b1X0m7ekuJLOjhJnIv1eUVF5tx6OeBGFrCwF6XejiuW9Ef74GSmnguhjwid07zsUh/Zshp1tMcHxVStVwJb1S9Gt9+A82+kzxhhjjGkKF4AZY4wxJrl2Ac21nYLatGzWmAvAOszaypJ0+zz88TN0/mkgPiYIv2GaG4sihSVZR0oymQzrV8xHKXdXUets370fvwdq5zUQ/eYtvMt4Co4r41VKIwXg0qXcSXExb/K+ucWYUA4l6IXBDCUzb9PS0hH3/gNsiwsrikRFx2DfwaPknLQp5m0s5PIswR0TvL1KqSmjL3wqeH93rXml8PLVa1Kca0lniTPJW0kX4QXg7OxsRLx4lefP09PTEfsuDvYlbAWvXalieezed0hwXEEW+eIVev88Anu2ryPN2q5fpwbWLp+LvoNGqyE7xhhjjDHVcQtoxhhjjEnO36+RtlNQmx+qVoKTg72202B5aOrbAEZGRoJiMuVy/DpigmTFXwAo6eIk2VpSmTFpNBrUqylqjdDrYRg7abZEGQlHvYVUpVJ5iTPJXeWK5UhxD8IfS5wJ+555uJckx6akpCr9OeU1WKGcNzUdrVMoFIiOEd76urSnhxqy+UdB/jvVpnv3HyGdMI/Yy9Mdpqbqn7ns5uos+IAFALyOfoP4jwlKH/Pw0RNSTrVrViPFFXQ3wu5i0PAJ5Fu8rfybYPHcKRJnxRhjjDEmDBeAGWOMMSapapUrftPzwvT0ZGjX+tu94VzQ1a1dXXDM4aOncO/BI0nzqFhet76c79qxDQb06SZqjajXMeg7aLRWWxoKbd+ao3rVyhJnkrsqlSuQ4m7dvi9xJux7VsWHfuAh8VOS0p9TXoN2tsVEdx7QJmU3K/Pi6eEKN1f13RqtXtVHbWt/yzIyM/HkmfBuEIaGhqhX+0c1ZPRvDevWIsWFP36a72PC7tA+Zzw93HTudxpNCTp1HhOmzkN2Nm2Gdc+u7TFp7DCJs2KMMcYYUx23gGaMMcaYpNoGNCPHrlgbiKvXbkmYTe709fXQtlUztG7ZlBTv37QRlq3eKHFWTAqeHsJnsB48EiR5HjWrV5V8Tarq1Sph/swJKFSoEHmN5JQU9Pt1tCTzkcUIvX6LNIPUp0JZONjbITqGNv9RFdWq+JC6A3xKSiYXthnLTb06NUhxmXI5Il8qL3aGXg8DBgpfu3XLpli4bC0pL217HvECDeoK654gk8nQuV0A5ixaKXk+hc3N0ahBbcnX/V7cvf8Q5ct6CY5r6lsfx0+eU0NG//BtWJcUd/vuw3wfI+b3655d22PU+Bnk+IJs6469sC9hi5FDBpDihw3qi4SERKxav0XaxBhjjDHGVMAFYMYYY4xJqmmTBqS4J88iMHPeMomzyVvIleto1kR4u2Dgy+1OTw83PHkWoYbMmBguzsJn50l96KBMaQ/4VNCN2zKO9iWwYdVCGBsLf57nUCgUGDV+hk7cUn0bG4d7Dx4Jvo2kpydDt05tsGCp+gpQ3Tu3IcWFXLkOhUIhcTbse9WmVVOUsCtOin379h3k8iyljzkffBkJiZ9gaVFE0NpdOgZg8Yr1BfK5fjPsHvr1Eh7Xyr+JWgrAbQOawdzMTPJ1vxdnzoegW6e2guOaNWmICdPm59smncrJwR51CF1MACDoVP6F6eCQULyNjYOdrfAW0x3atMDSlRvwmtAO/Vswd9Eq2NvZonOHAFL85HHDkZD4Cdt375c4M8YYY4wx5bgFNGOMMcYkU79ODTjalyDFBl+6KnE2yn1KSsb1W3dIsYUKFeI20DpIJpPB3MxUUExGZqaks38BYMjAPoJvqKqDsbERAtctJheDcixfvQn7/z4uUVbinQu+TIrr1qmtqEK4Mna2xdCyuS8p9sz5SxJnw75XhgYGGDGYdksNAJ6q0Bo3IzOT9Hnt5GCPzu1pxRNtu3DpKqlw7e7mQi4Y5UUmk6F3j46Srvm9OXU2mFTEtbK0QK9u6vu7/6VfDxjoC7+j8fLVa5XHWJy9QPu8MTExxpTxI0ix34oR46bh3AXa7x8ymQwLZk8i/57AGGOMMUal/W+mGGOMMfbNaNOK1lIZAE6cviBhJqqhfpEDAM39GkmYCZOCpUURwYVXQwMD0i3wvPz4Q2W0baUbhwOWLZiOShXLiVrj2ImzarnBJsbBwydI8/jsS9hiyC991JARMHbkryhsbi44LjX1Mw4fO6WGjNj3aMr4EShT2oMcr+qhKOqBkCnjhpNuH2pb3PsPePzkOSl24m9DBd+WVmZQ/54oW6a0ZOt9j9LS0skHiQYN6AkrSwuJMwJcSzqjR5d2pFghbal37f2btAcAtG7pRx6d8i2Qy7PQd9Bo8sgGA319rF4yG/WJLfoZY4wxxii4AMwYY4wxSejr66FJo3qk2Pj4BASHhEqcUf6OnjhDjvXydBfchpapl1wuJ8WVcneVZH9rK0usXDQTenr0X7HFxH5t2KC+aBcgrhD9MPwJBo+cJEk+UnoQ/vjLHFKCoQP7kGY/KtOwfi106dCaFHv0xBnEf0yQNB/2fRo2qC8G9Okmao0LKt7sPXriDJ5HvBS8vo2NFZbMm6oTHRKEOnk2mBRnZ1sM0yaOlCQHJ0d7DB/cX5K1vnfbdu0jxRUvVhTzZkyQOBtg6fypMDExFhyXlaXA5u1/qvz4q9duiep+s2TeFFQoV4YU/y1ISk5Gz/7DEPU6hhRvYmKMjWsWoWqlChJnxhhjjDGWu4L3Ly/GGGOM6SS/RvVR1MaaFHvpyjWtzAV8HvFS1Bzf9q39JcyGifUpKRlZWcKfR43q1xK9t5mZKf7YuBwlXZxErWNiLPwL4P+qVrkixowYKGqN9x/i0XvgSCQlJ4vORx3+2PUXKc7Y2AiBaxdLdguxdCl3rFkyh1S4z87OxuZtqn9xz1huihQ2x8rFszBp7DAUKlSIvE5E5Ctcv3lb5cdv3bmXtI9vw7pYu2xugSsCHzgURI7t1qktBvX/SdT+lhZFsG3DMlgUKSxqHfbFuQuX8Yh4q7ttQDMMG9RXslzmTh+HWj9WI8WeCw5BROQrQTEbNu8g7QUAhc3NsWvLaskPUhUk0TFv0b3fUMTH0w5vWRQpjG0bl8PL013izBhjjDHG/lfB+lcXY4wxxnRWK/8m5NjTWpyBeeHiFXJsc7+GEmbCpPD+wwfBMT27toehgQF5TzdXZxzasxk/VK1EXiOHoSE9D+BLgXP5ohkwNDQkr5GRkYGBw8YL/lJZk/YdPIrwR09JsSVdnPDXzg1wLeksKoeK5b2xd/t62NhYkeJPnQ0m38RiBZeYIu3XrCwtMGxQX1w5dwid27cSvd7fR04IevymLbvI7xFtA5ohcN1iSVsjq9uD8Me4EXaXHD91wgiMGvozKbaEXXHs3b4e5by/36KbOqxYs4kcO+G3IRgxRNxtbJlMhrnTx6Ffr66k+KwsBRYvXy847sChIFy7QeuiAXy5Bb1/10a0aNaYvEZB9zD8CfoP/g1paemk+GJFbbBz82o4OdpLnBljjDHG2L9xAZgxxhhjohkbG6FRg9qk2Ey5HCdOnZc2IQFOnqG1dQQAZycH8q0Nph6vCG35nJ0cMHfGeNJ+LZv74vj+7ZK1RBQ7j/inbh1Et7SeOnsJzos4GKEJCoUCC5auJcd7ergh6MB2UuFMJpNhYP+eOLRnM0rYFSftnymXY87CVaRYVrDZWFuhY9uWMDMzFRQnk8ngU6Es+vfuhh2BK3H7yklMGjsMxYsVFZ1TckoKNm3bLSgmIzMTcxfTn8P+fo1wLmgvmvrWJ6+RGydHe7Rp1RQBLfwknzcs5sa+TCbDuFG/YvfWNXB3c1E5rn1rf5w6vAs+FcqS92a523vgCMLu3CfFymQyTBg9BNs2LIejfQnB8aVLuePvPwPJxV8AOHL8FPlQwpRZiyCXZ5H3trQogsC1i7Fm2Rw42NuR18nhWtIZ7QKao31rf0GvD20KDgnFiLHTSJ1ngC/vVTs3ryZ3T2KMMcYYU8X/AQAA///s3WdcVNfWBvCHERDpoAJSFDuKBTV2oxj7DbFdjSXeiJrojSWJJYkajVGjMWpifC0xUWPvvQbFLiiIAoIFRLDTO0iZdu4HX73GiJk55wwD3Of/UWavvZCZM+d31t57mRo7ASIiIir//Hp3F30sYXhEtFF7YF4IDkVmZjYcHe1FjR/QtzeCQ8JkzorEir4Rg9Ytm+s97sPhg1CligWmz16I3Ly/P/a4xzudMXniR2jdykdMmiWyFNED8DmFQoGPRg6TNH/MnXio1Wr4j3hfUpzXEQQBObl5CA0LR1JyquR4RwNO4eTp86J7jzs62mPFj99hzMhh2LJjHw4eCXjj397ZqToG9X8XI4YNRL06niKzfub3TTtx83aspBhUPpmYmGDVsgVYKXyHrOwcpKZlIC09A4WFhSgsLELh/+8oMzczg5WVJeztbFG9WlW4uTpLXiBSks3b9yIlNU3vcQePBGBg3z7o07OrqHndXWtg89rlCLkSjk3b9uDAkQC920EoFAq08mmKXj180c23I7wbNXyxy1qlVuPQ0ROYOWcRsrJzROX4sr0Hj2HKpLGSClTdfDuhU/vWCAg8h8PHA3EhKATZObl/ek2DenXQ453OGDTgH9z1a2Cz5y/BgZ3rYWYq7tFYn55d0bljW+w5cBQ79hxEeGTJBWWFQoG3O7TB0MH90PfdnpJOHsnKzsHc75eJHn8tIhpr1m/BxHH+omOYmJhg8AA/+PXujkNHT2D3/iO4eOmKTmMtLaugTSsfdO3SAV07d0SjhvVe/EwQBARdDsNXsxYgLv6e6PxKw96Dx1DDxQnfzJgsarxXg7rY9vtKDPpgbJltuUFERETlGwvAREREJJmU45/PnA+WMRP9abVaXLwUin5+vUSN793DF1/OWmCUHsb0VxeDQzH6wyGixg4e4IfuXd/GgcMBCA4JQ3zCA+Tk5MLBwQ5O1avB3a0G2rdthQ5t3xK98/PvmJubw8W5OpJT9C/GdGz3luQexF4N6mLJglmSYvwdjUaLXfsO4avZC0Ufn/jctJnzcfZ4M9HHMAOATzNv+DTzxqL5MxETexf37j9EVnYOlEolLCwsUL1aVdSpXRP16njK0rf0dkwc5v+wXHIcKt9MTEzg6GAPRwd7o/aCfPQ4UdQxss9Nnv4tmjVpJHoXoImJCdq3bYX2bVvhuzlfIjwyGtcionE7Ng4ZmdnIyMxEUVExrCwtYW1tCRdnJ9Sq6Y6aHm5o0qghvBs3gI219Wtjm5maYlD/d1Gvjif8BvmjuFja9Uar1WLh0hVYv3qppDiVK1dGP79e6OfXC4IgIC09A/n5BTA1rQRHR3tYW1lJik+6Cw2LwC9rN+PTT0aLjmFlZQn/Ee/Df8T7SElNQ2xcAhITk5H/9ClMFArYWFuhprsbvBrWk+3Y82++W4pHIk48edmCxcvRumVztG0trX1FlSoWGDq4H4YO7ofMrGxE34zB/QePkJqWjqKiYigqKWBpUQV2drZwd3OBh5sr6tb1LLEAbmJigrc7tMH+HevQs+8wWRaMGdKKNRvgWsNZ9G7ulj5NsPG3ZRg+aqLkaxQRERHRq1gAJiIiIklsbazh+3Z70eP/OHlGxmzEOX0+WHQB2NmpOrr5dkLgGfFHSZN8Tp4+L2lHt4O9HUZ/OER0EfllgiCguFgJCwv9du15uLuJKgB37thO7zHGUKmSAsPfHwB3N1cMHjFO0uKJpORUTJs5H+tWL0WlStKKs2ampmjq7YWm3obbcZeXn49J02bzIS+VCRqNFlNnzNPp1IOSZGRkYcLkr7F9w0pYWlaRlE+1qo7o2a2L6F39JfFp5o3RHw7BL2s3S451+NhJnL1wCV07d5Ahs2fFLqfq1eAk72nVpIcfflyFdq1boM1b0gqhwLN7QmcD/zF37TuCnXsOSY6jVmvwyWczcGj377L1onV0sEeXTu3QpZP0+xEX5+r4fMLH+Gr2AhkyM6wZcxbBxcUJfr3F9UXu3LEt1iz/HmPGT+OCUiIiIpIVewATERGRJP3f640qIo+tTbj3ELdj78qckf5OBJ6DUqUSPb7/e+KKxyQ/pUqFXfsOGzsNAMDaDdtxOfSa3uPc3cTtpPNpXr56RHbu2BZjR38gOc7RgFOYv+hnGTIyLJVajQmTv8b16FvGToUIADB/0c84e+GS5DjBIWGYOHUWVGq1DFkZRq/u8hWVp06fh4yMLNniibX/0B9l+v+8vFCqVPAfNwUJ9x4aO5W/FRwShilffStbvEdPEjHMf4KoI+BLQzffjsZOQWeffDYDV65GiB7v16c7flr0jYwZEREREbEATERERBK9948eoseeu3hZxkzEy8zKRnhEtOjxPd7prHNvRkEQPY0sBBEJiBljzLlXrNlg1L7SwLPe0rPnL8HTggK9x7q6iCsAV5NwDLKxDOr/rixxVv22ESt/3ShLLENQqzX48uvv8MfJs5Jjif04yvU5louAspWPvjRajbFTkGTFmg1Y9dtG2eIdOR6IKdPnQqlUyhZTTu6uNWSL9ehJIqbOmAe12njvgbBrkZg0dRbycvXfvS3lWiB6bBm7/rwqLT0DH378GR4nJhk7lRJFXL+B0f+eKmnB4uvExsVjmP+EMvm7u4o8Wh4Q/14VRO7ALSoqxsixkyX1Lf5gyEDMmTlF9HgiIiKiV7EATERERKJZWVmiQ9tWoscfOR4oYzbSSCnMONjboWtn3Y7BzsnNFTVHXt5TUeNeVVBQqPeY/Kfla+609Aws+nGl3uPkcinkKkaNmwytVovHT/R/oGpnayNqXnt7O1HjjKlO7ZqyxZq78Cf88NPqMlfoLC4uxvjJM7B1535Z4om9hsj1OX6dgkL9Fzrk5xsun9KQmWncRSZiaTRafLvgJ8z7fpnssXfuOYQx46chL1/8kdKGkp0j7nNTkmMnTmP2/CVGud7EJzzAmPHToFSpkJaRofd4KUd+i72O5ItYDFXaYuPiMXDYx4hPeGDsVP4iOCQMgz4Ya7DFbdE3Y9B30CjcuBVjkPhiiblvlDK2qKhYUoE9PSMTI8ZMkrSjeuI4f3w2fozo8UREREQvYwGYiIiIRPNu1BDm5uaixoZH3kDQ5SsyZyTe9t0HJD3Qb+zVQKfXPUlMFnV05O07cXqPeZ07dxP0nztGprnj9J87RuQR4Ru27MaeA0dFjZUi8MwFDBs14cUD9tAw/Y8DFPuAXa0qf0eBqmTOeenyNfjsyzkGLXbq40liMob5T8CBwwGyxhRzDYkV8fnTlZiCiSHzKQ3XIqOMnYLeEpNS4D/uc1l3/r4qIPAcBgz9CLFx8QabQ4yLl+S/31i3cTsWLllRqj074xMeYPCIcUhKTgWg//ezUqlETKz47/SoG7dFjYsTce9hDPfuP0S/IaNxITjU2Km8sG3XfgwdOV5S4V4Xj54kou/g0di551CZWUgl5XQeMfecUnbvPpdw7yH8x05GTm6e6Bgzv5iEoYP7Sc6FiIiIiAVgIiIiEi07O0fUOKVSidnzl8icjTTZOblYsOT/RI/P1fFBj1arxcFjJ/SKnZKahpOnL4hJ6y9279evKJqekYljAWdkmvuIXq/Pys6RtEv802mzERB4TvR4fShVKny/dCWGj5r4p10nx0+e0fuBotiFEdE3y9bOHV3cuBUre8wduw/C75/+Rt/JdPL0efR4b5jshScx1xCVWo3dBuyNffCIfvkUFxcbZYGGnLbu2F9u+q+q1Grs2H0Qvr0Hlco18Xr0LfTsOxxbduyDRlN6xdGSZGZmY826LQaJ/fOqdZgyfR6Ki4sNEv9loWERGDBsDB49SXzxb7v26fe9evLMBUmFxMiom3p/1wiCgJ17DXf9kVtKahr+OfxjLPn5l1L5u5YkMysbE6d8jc+//BZFRaWTR15+PiZNm40x46e9WGRgLIIgYO3G7aLH63vPCQD7Dh4XPd/LrkZE4V8ffSp6YalCocDcmVNhbmYmSz5ERET0v6uSpa3Tt8ZOgoiIiMqnjMws/KNXVzhVr6bzGLVagy++XoCAQOm9MOV2PfoW7O1s0apFM73GFRQUYuacRTo/VI2IuoH3+vSAvZ3t375WEARM/2YhIq7f1CunksTeiUezJo1Qr66nbnPPXojwSPE7MF52N+E+GtavA68G9XR6/ay5ixESFi56Pq1WwKGjJ+DgYIcWzZvAxMREdKw3CbsWiX9/OgP7Dh77y88EQUD0zVj0fbcHKuuwW/7U2YtYuWajqDxS0tIx5J99oVAY5veUmyAImD1vMe4m3Jc9dlp6Brbs2Ie8/Hw0b9oYVapYyD5HSe4/eIQpM+bh+6UrJR1f+Sb6XEMAYNWvG7HvkDwPtl8n6sZtdPPtBBfn6jq9funyX/HHSXkWlhhLZlY2LCwqo12blsZOpURKpRJHjgdi3KSvsHXn/lIrIgHPdvefOHUe54NCUL+uJ9xk7MGrj7z8fIyd+KVBFps8F33zNi4EhaLNWz6o6ih/L3aNRov1m7Zj3KdfIfeVnr8J9x+isVd9NKhf52/jZGZlY9ynXyErS9zivefu3E3AwL59YGpqqtPrt+06gHUbd0ia0xiCQ67ij5Nn4VnLA7VreZTavBqNFrv2HoL/uMm4ci2y1OZ92Z24BGzesRcajQZNvb10un+R2/rNO/Hb79tEj9f3nvNqRBS+mDkfGpl29D9+koTAMxfQqkUznb8bX2ZhURlr1m9BkREXIRAREVH5xwIwERERSRJz5y76+/WGmQ6r1JNT0jBp2izsN2AhQqoz54Px9GkB2rTygbm5bivv536/DGcvXNJ5jsLCIlwIDoHv2x3g4FBy31aNRov5i37Ghi27dY6ti1NnLsK7cQPUqV2rxNeo1Gp8u/AnbNy6R965zwWhUcP6byxAazRaLFi8HL9tEP/g7zlBEHD6bBBu3IpFi+ZNZO2TezsmDnO++xFfz/0BiUnJJb7uSWIyrlyLRKf2bd7Y3zc+4QFGfzJFdG/Ux0+SUFBQiM4d25X5IrAgCFi6fA02bdtr0Dmuhl/H9l0HUFhYhDq1a8HG2spg892OicPiZb9gyvR5uBVzx2DzALpfQ4BnD9G/MfCJCxqNBmfPX0KnDq3fuCBIEASsXrsJ3y81Xo9uOQVfDoObqzOaejcydiovCIKAmNi7WL9pJyZOnYUdew4hI1P/I8PlkpiUjO27D+J69C04OtijloebwRbjvCwnNw/HAk5j/OczcU2mRUxvkpicgp17D0Gj0cC7cUNYVK4sS9yrEVEYO+ELbNmxD1rt64/lPXX2Ipp6e6GOZ8k91TMzszFm/DRcj74lOafHT5Jw5+49dPPt+LeFwb0Hj2Hq9HmyFdVKW3pGJvYcOIqwa5FwsLeDZ00Pg32/FhYWYd/BY5g0bTY2b99rsAVEulKpVAi6HIatu/YjP78AHu6uOi86kiIpORWLl63GDz+ukhxLl3tO4NnnzH/sZOTmiT+2+XUyMrOwffcB5OcXwKthPVjrcQ8SHnkD6zaVv4UTREREVLaYVHNvUjaaexAREVG51dKnCWZMm4RWLZrCxtr6xb9rtVrk5T/FnbsJOHnqPDZu3Y3snFwjZqo7D3dXjBk5FL5vt4dnTQ9YWVn+6efFxcWIjUvA6t82id5ZZ2NtjQnjRuLd3t1Ru5Y7KleuDK1Wi6ysHIRejcDKXzcizIC7P0YMHYjh7/eHV8N6sLG2hkajRUZmJkKuhGPFmg2IjJJn1/HrDB3cDyOGDETjRvVhY20NrVaLzKxshISFY/WvmxAWfl32Oc3NzPDhB4MxYugAeDdqKCpGdk4uzl+8jC079uF8UIheY22srTFm5FD07tEVDerXhrWVFbRaAckpqQg4dQ6Lf1qNzCzxfaif69qlAyaOG4UWzb3/9HksC54+LUD0zRisWbcFx06cLtW5zc3M0KfXO/Dr3Q1d3m4PBxkWAzxOTMKpMxdx5HigUXpGvu4aIggCsnNyERl1E2s3bEfgGXmOj9eFhUVljP94JPr79UJtz5qwsHiWT1ZWDsKvR+PX9Vtx7uLlUsuntAwd1Bfjx/qjUUPddprJSRAEPH6ShBu3YnEp9CoCAs/h/oNHpZ6HrhrUq4P+7/VCz25d0NTbCwqFPF2pnn8nh1wJx6lzF3ExOBRqtUaW2PqqXq0qRv3rfQzq/y5qv6EoWxKlSoULQSFYt3EHTp8L0nncB0MGYtjgfmjkVR821lZQazRITk7FqbNBWLbyN9mP9K3tWROfTxiDzp3awcXJCaamlQAAuXn5iLpxCxu37sGho/odD1/W1a9bGwP69kav7r5o6u0leTGDUqVCaFgEAgLP4sDhAKSlZ8iUqWG849sRfXp0xTtdOqKmh5ssMYuLixF14zYuhV7DhaAQBF0Ok72v9qv3nMCz03vu3E3A/sN/YO2GbQa/XpiaVoJfnx7o5tsJzby94OrqAmsrqxefm+dUajWiom/j8y+/QcydstVLnYiIiMofFoCJiIiI6H9O40YN0LNbZ/g080b9urXh4uwEW5v/Fks1Gi0KCguQnJKG+IQHuHM3AUGXruDiJeMVFUg+CoUCLZs3QZu3WqCJd0N4uLnCtYYzqlV1hIVF5T8VpZ6/F1JS05GYlIIHDx/jevQthFwJR2wcH87Sf3m4u8KrQT1Uq+aIqg72sLe3g6ODPeztbGFvbwcHe1vY2tjA3Nwc5mZmMDM3hbmZGUxNzVCp0l8LoYIgQKVSIS/vKbJzcpGTm4f0jAw8epKER48SkXD/Aa6GR5X5olFJqlerig7t3kJLnyaoV8cTbq4ucHFygo2t9V96XypVKhQXFyMnNw8pKelITk1FUnIq4uPvIzLqJiKjb5bJa3OrFk3RtXNH+DTzhmctd7i5usDK0vJF4VCt1iA3Nw8JDx7i7t17uHTlGk4EnpNlMRAZlrNTdbRv2wotmzdB3Tq14ObqghrOzrC2sfrT+1cQBCiVSmRl5yIpOQVPEpMRGxePsGvXERIWjqdPC4z4W4jnWcsDbVr5wKdZY3jW8kANFyc4O1WHne2za9zLVGo18vLykZKajuTkVDxOTMKtmDhcj76F61E3oVSpjPRbEBEREVVsLAATEREREeHZ7oxnO6E1OvdzporJxtoa5pXNkJ9fgGL236NSYGpaCZZVqsDc3BwajQaFRUWl2rO3rDE1rQRbGxsIgoCc3DzZdwQak0KhgJ2tDZQqVbkt/tGbPX//arVa5OblV6j3ry4UCgVsbayhUCiQm5dXJhdnEBEREf0vYAGYiIiIiIiIiIiIiIiIiKiCkKfhDhERERERERERERERERERGR0LwEREREREREREREREREREFQQLwEREREREREREREREREREFQQLwEREREREREREREREREREFQQLwEREREREREREREREREREFQQLwEREREREREREREREREREFQQLwEREREREREREREREREREFQQLwEREREREREREREREREREFQQLwEREREREREREREREREREFQQLwEREREREREREREREREREFQQLwEREREREREREREREREREFQQLwEREREREREREREREREREFQQLwEREREREREREREREREREFQQLwEREREREREREREREREREFQQLwEREREREREREREREREREFQQLwEREREREREREREREREREFQQLwEREREREREREREREREREFQQLwEREREREREREREREREREFQQLwEREREREREREREREREREFQQLwEREREREREREREREREREFcR/AAAA///s2YEMAAAAwCB/63t8pZEABgAAAAAAAJgQwAAAAAAAAAATAhgAAAAAAABgQgADAAAAAAAATAhgAAAAAAAAgAkBDAAAAAAAADAhgAEAAAAAAAAmBDAAAAAAAADAhAAGAAAAAAAAmBDAAAAAAAAAABMCGAAAAAAAAGBCAAMAAAAAAABMCGAAAAAAAACACQEMAAAAAAAAMCGAAQAAAAAAACYEMAAAAAAAAMCEAAYAAAAAAACYEMAAAAAAAAAAEwIYAAAAAAAAYEIAAwAAAAAAAEwIYAAAAAAAAIAJAQwAAAAAAAAwIYABAAAAAAAAJgQwAAAAAAAAwIQABgAAAAAAAJgQwAAAAAAAAAATAhgAAAAAAABgQgADAAAAAAAATAhgAAAAAAAAgAkBDAAAAAAAADAhgAEAAAAAAAAmBDAAAAAAAADAhAAGAAAAAAAAmBDAAAAAAAAAABMCGAAAAAAAAGAiAAAA///s2YEMAAAAwCB/63t8pZEABgAAAAAAAJgQwAAAAAAAAAATAhgAAAAAAABgQgADAAAAAAAATAhgAAAAAAAAgAkBDAAAAAAAADAhgAEAAAAAAAAmBDAAAAAAAADAhAAGAAAAAAAAmBDAAAAAAAAAABMCGAAAAAAAAGBCAAMAAAAAAABMCGAAAAAAAACACQEMAAAAAAAAMCGAAQAAAAAAACYEMAAAAAAAAMCEAAYAAAAAAACYEMAAAAAAAAAAEwIYAAAAAAAAYEIAAwAAAAAAAEwIYAAAAAAAAIAJAQwAAAAAAAAwIYABAAAAAAAAJgQwAAAAAAAAwIQABgAAAAAAAJgQwAAAAAAAAAATAhgAAAAAAABgQgADAAAAAAAATAhgAAAAAAAAgAkBDAAAAAAAADAhgAEAAAAAAAAmBDAAAAAAAADAhAAGAAAAAAAAmBDAAAAAAAAAABMCGAAAAAAAAGAiAAAA///s2YEMAAAAwCB/63t8pZEABgAAAAAAAJgQwAAAAAAAAAATAhgAAAAAAABgQgADAAAAAAAATAhgAAAAAAAAgAkBDAAAAAAAADAhgAEAAAAAAAAmBDAAAAAAAADAhAAGAAAAAAAAmBDAAAAAAAAAABMCGAAAAAAAAGBCAAMAAAAAAABMCGAAAAAAAACACQEMAAAAAAAAMCGAAQAAAAAAACYEMAAAAAAAAMCEAAYAAAAAAACYEMAAAAAAAAAAEwIYAAAAAAAAYEIAAwAAAAAAAEwIYAAAAAAAAIAJAQwAAAAAAAAwIYABAAAAAAAAJgQwAAAAAAAAwIQABgAAAAAAAJgQwAAAAAAAAAATAhgAAAAAAABgQgADAAAAAAAATAhgAAAAAAAAgAkBDAAAAAAAADAhgAEAAAAAAAAmBDAAAAAAAADAhAAGAAAAAAAAmBDAAAAAAAAAABMCGAAAAAAAAGAiAAAA///s2YEMAAAAwCB/63t8pZEABgAAAAAAAJgQwAAAAAAAAAATAhgAAAAAAABgQgADAAAAAAAATAhgAAAAAAAAgAkBDAAAAAAAADAhgAEAAAAAAAAmBDAAAAAAAADAhAAGAAAAAAAAmBDAAAAAAAAAABMCGAAAAAAAAGBCAAMAAAAAAABMCGAAAAAAAACACQEMAAAAAAAAMCGAAQAAAAAAACYEMAAAAAAAAMCEAAYAAAAAAACYEMAAAAAAAAAAEwIYAAAAAAAAYEIAAwAAAAAAAEwIYAAAAAAAAIAJAQwAAAAAAAAwIYABAAAAAAAAJgQwAAAAAAAAwIQABgAAAAAAAJgQwAAAAAAAAAATAhgAAAAAAABgQgADAAAAAAAATAhgAAAAAAAAgAkBDAAAAAAAADAhgAEAAAAAAAAmBDAAAAAAAADAhAAGAAAAAAAAmBDAAAAAAAAAABMCGAAAAAAAAGAiAAAA///s2YEMAAAAwCB/63t8pZEABgAAAAAAAJgQwAAAAAAAAAATAhgAAAAAAABgQgADAAAAAAAATAhgAAAAAAAAgAkBDAAAAAAAADAhgAEAAAAAAAAmBDAAAAAAAADAhAAGAAAAAAAAmBDAAAAAAAAAABMCGAAAAAAAAGBCAAMAAAAAAABMCGAAAAAAAACACQEMAAAAAAAAMCGAAQAAAAAAACYEMAAAAAAAAMCEAAYAAAAAAACYEMAAAAAAAAAAEwIYAAAAAAAAYEIAAwAAAAAAAEwIYAAAAAAAAIAJAQwAAAAAAAAwIYABAAAAAAAAJgQwAAAAAAAAwIQABgAAAAAAAJgQwAAAAAAAAAATAhgAAAAAAABgQgADAAAAAAAATAhgAAAAAAAAgAkBDAAAAAAAADAhgAEAAAAAAAAmBDAAAAAAAADAhAAGAAAAAAAAmBDAAAAAAAAAABMCGAAAAAAAAGAiAAAA///t2YEMAAAAwCB/63t8pZEABgAAAAAAAJgQwAAAAAAAAAATAhgAAAAAAABgQgADAAAAAAAATAhgAAAAAAAAgAkBDAAAAAAAADAhgAEAAAAAAAAmBDAAAAAAAADAhAAGAAAAAAAAmBDAAAAAAAAAABMCGAAAAAAAAGBCAAMAAAAAAABMCGAAAAAAAACACQEMAAAAAAAAMCGAAQAAAAAAACYEMAAAAAAAAMCEAAYAAAAAAACYEMAAAAAAAAAAEwIYAAAAAAAAYEIAAwAAAAAAAEwIYAAAAAAAAIAJAQwAAAAAAAAwIYABAAAAAAAAJgQwAAAAAAAAwIQABgAAAAAAAJgQwAAAAAAAAAATAhgAAAAAAABgQgADAAAAAAAATAhgAAAAAAAAgAkBDAAAAAAAADAhgAEAAAAAAAAmBDAAAAAAAADAhAAGAAAAAAAAmBDAAAAAAAAAABMCGAAAAAAAAGAiXJllQj7Sv+EAAAAASUVORK5CYII=;clipPath=inset(19.23% 35.67% 32.84% 35%);fontColor=#000000;" parent="1" vertex="1">
                    <mxGeometry x="989" y="320" width="80" height="73.64" as="geometry"/>
                </mxCell>
                <mxCell id="38" value="コード生成" style="text;html=1;strokeColor=none;fillColor=none;align=center;verticalAlign=middle;whiteSpace=wrap;rounded=0;fontColor=#000000;" parent="1" vertex="1">
                    <mxGeometry x="1030" y="250" width="80" height="30" as="geometry"/>
                </mxCell>
                <mxCell id="39" value="処理コード" style="text;html=1;strokeColor=none;fillColor=none;align=center;verticalAlign=middle;whiteSpace=wrap;rounded=0;fontColor=#000000;" parent="1" vertex="1">
                    <mxGeometry x="890" y="130" width="80" height="30" as="geometry"/>
                </mxCell>
                <mxCell id="41" value="デプロイ" style="text;html=1;strokeColor=none;fillColor=none;align=center;verticalAlign=middle;whiteSpace=wrap;rounded=0;fontColor=#000000;" parent="1" vertex="1">
                    <mxGeometry x="740" y="130" width="70" height="30" as="geometry"/>
                </mxCell>
                <mxCell id="43" value="&lt;span style=&quot;&quot;&gt;Amazon Aurora Serverless&lt;br&gt;or&lt;br&gt;Amazon Aurora&lt;br&gt;&lt;/span&gt;" style="sketch=0;points=[[0,0,0],[0.25,0,0],[0.5,0,0],[0.75,0,0],[1,0,0],[0,1,0],[0.25,1,0],[0.5,1,0],[0.75,1,0],[1,1,0],[0,0.25,0],[0,0.5,0],[0,0.75,0],[1,0.25,0],[1,0.5,0],[1,0.75,0]];outlineConnect=0;fontColor=#000000;gradientColor=#4D72F3;gradientDirection=north;fillColor=#3334B9;strokeColor=#ffffff;dashed=0;verticalLabelPosition=bottom;verticalAlign=top;align=center;html=1;fontSize=12;fontStyle=0;aspect=fixed;shape=mxgraph.aws4.resourceIcon;resIcon=mxgraph.aws4.aurora;" parent="1" vertex="1">
                    <mxGeometry x="551" y="406" width="78" height="78" as="geometry"/>
                </mxCell>
                <mxCell id="45" value="結果" style="text;html=1;strokeColor=none;fillColor=none;align=center;verticalAlign=middle;whiteSpace=wrap;rounded=0;fontColor=#000000;" parent="1" vertex="1">
                    <mxGeometry x="600" y="341.82" width="50" height="30" as="geometry"/>
                </mxCell>
                <mxCell id="47" value="処理コード" style="text;html=1;strokeColor=none;fillColor=none;align=center;verticalAlign=middle;whiteSpace=wrap;rounded=0;fontColor=#000000;" vertex="1" parent="1">
                    <mxGeometry x="890" y="130" width="80" height="30" as="geometry"/>
                </mxCell>
            </root>
        </mxGraphModel>
    </diagram>
</mxfile>